<svg width="103" height="104" viewBox="0 0 103 104" fill="none" xmlns="http://www.w3.org/2000/svg">
<path d="M46.1784 3.11911C50.6113 3.94268 55.1776 4.54529 59.6012 5.48399C64.7032 6.59368 69.5198 8.37554 74.0604 10.7144C75.3892 11.4018 76.746 11.7438 77.9507 12.537C81.6983 14.6956 84.6834 17.7194 87.5445 20.8491C90.7214 24.352 93.2785 28.3841 95.7116 32.522C97.1199 35.0702 97.4593 37.995 98.0373 40.8234C98.51 43.5273 98.4002 46.2998 98.4144 48.9664C98.2859 51.9692 98.616 55.0092 98.3729 58.0026C98.1672 60.5355 97.6269 62.9254 97.192 65.4397C97.1546 65.9002 97.0119 66.2363 96.8599 66.6875C96.301 69.3077 95.7514 71.8127 94.1796 74.1187C92.8557 76.2132 91.857 78.5658 90.6383 80.7847C89.4384 82.7733 87.8081 84.3793 86.1684 86.1004C84.0327 88.2448 82.0118 90.3985 79.4551 92.0451C78.8445 92.4591 78.1194 92.8638 77.5182 93.1627C76.4305 93.7697 75.1322 94.1278 74.1498 94.8593C72.5568 96.0047 70.7814 96.5559 69.0059 97.107C67.2305 97.6582 65.4457 98.3245 63.6608 98.9908C61.3988 99.8501 59.1462 100.594 56.7484 100.284C51.0359 99.588 45.3515 98.5469 39.667 97.5058C37.6225 97.108 35.6434 95.9043 33.6082 95.3913C29.6618 94.2596 26.4008 91.7928 23.121 89.5563C20.1664 87.578 17.5744 85.3973 15.1344 82.7654C11.5363 78.7647 7.81436 74.8698 5.32275 70.0317C4.63259 68.585 4.31434 66.8208 3.86277 65.2775C3.76684 65.0379 3.90017 64.817 3.79489 64.6925C2.56173 58.566 3.40115 52.4919 4.46982 46.4364C5.08484 43.1255 5.80513 39.939 6.85995 36.8956C8.22816 32.8346 10.1601 28.9353 11.8722 24.9022C14.7164 18.2955 19.7408 13.2567 25.081 8.59109C27.3219 6.57112 30.0798 5.2885 33.1629 4.26406C37.6495 3.00594 41.804 2.99565 46.1784 3.11911Z" fill="white"/>
<g clip-path="url(#clip0)">
<path d="M78.3777 63.9168C76.1653 64.1018 74.0452 64.6106 71.8328 64.8418C70.2197 65.0268 68.6065 65.0731 67.0394 65.0731C61.0015 65.2119 54.8715 65.3044 49.1102 63.5467C41.5974 61.1878 35.0065 55.2211 33.0246 47.5893C32.195 44.4441 32.195 41.1138 31.3653 37.9686C30.674 35.2859 29.4756 32.4644 30.5357 29.9205C30.9966 28.7641 31.9184 27.7928 32.1489 26.5902C32.195 26.4052 32.195 26.2202 32.1028 26.0814C32.0567 25.8502 31.8723 25.8039 31.688 25.7577C31.181 25.6189 30.674 25.4801 30.167 25.3414C29.7522 25.2489 29.0608 25.3414 29.153 25.7577C29.1991 25.9427 29.4295 26.0814 29.5678 26.1739C30.0287 26.4977 30.1209 27.1453 30.1209 27.7003C30.3052 32.7882 25.6501 36.6272 24.1291 41.4376C22.5159 46.5255 24.59 52.0759 27.5398 56.5162C32.4254 63.9168 39.8921 69.5597 48.3266 72.2886C58.2822 75.5264 69.9892 74.37 78.009 67.617C78.562 67.1545 79.1151 66.6457 79.2995 65.9519C79.4838 65.2581 79.9908 63.7318 78.3777 63.9168Z" fill="#FBBB1C"/>
<path d="M32.5177 26.2664C33.2551 26.8215 34.4535 26.6827 35.0527 25.9889C33.716 27.9315 32.7942 30.1055 32.3794 32.4181C32.2411 33.0657 32.195 33.7595 32.3333 34.407C32.5638 35.3783 33.2551 36.1647 33.7621 36.9972C34.4996 38.2461 34.9144 39.6799 35.4214 41.0675C38.0485 48.2368 43.7177 54.2035 50.7234 57.1637C55.6551 59.1989 61.0477 59.8002 66.3942 59.9852C70.4963 60.124 74.921 60.1702 78.2395 62.6216C77.7325 62.7141 77.7786 63.5005 77.8247 64.0092C74.3218 65.4894 69.9893 65.3969 66.2099 65.3969C63.214 65.3969 60.2181 65.2581 57.2222 64.9806C53.1662 64.6105 49.0642 63.963 45.2847 62.2979C36.8041 58.5513 31.0428 49.4857 30.8584 40.1887C30.8584 39.0786 30.9045 37.9685 30.6741 36.9047C30.4897 35.9796 30.0749 35.1008 29.8905 34.1758C29.3835 31.6781 30.3975 29.1341 31.3654 26.8215C31.4576 26.5439 31.5959 26.2664 31.8724 26.1277C32.1489 25.9889 32.5177 26.1277 32.5638 26.4052" fill="#FCDA32"/>
<path d="M29.7059 25.3414C29.6598 25.2026 29.7981 25.1101 29.8903 25.0176C30.0286 24.9251 30.1668 24.8326 30.2129 24.6938C30.259 24.6013 30.259 24.5088 30.3512 24.4625C30.4434 24.37 30.5817 24.3238 30.7199 24.2775C31.3191 24.1388 31.9183 24.0463 32.5635 24.0463C32.9323 24.0463 33.2549 24.0463 33.6236 24.185C34.1767 24.4163 34.5454 24.9251 34.8681 25.4339C34.9603 25.5726 35.1446 25.8501 35.0985 25.9889C35.0524 26.1277 34.6837 26.3589 34.5454 26.4514C34.0845 26.6827 33.5775 26.6827 33.0245 26.6365C32.7479 26.5902 32.4253 26.3589 32.3792 26.3127C32.3331 26.2664 32.287 26.1277 32.1948 26.1277C31.9644 26.0352 32.1026 25.9427 31.8261 25.8964C31.2269 25.8501 30.3512 25.6651 29.7981 25.4339" fill="#956B28"/>
<path d="M78.2853 62.5292C78.147 62.4366 77.9626 62.4829 77.8243 62.5754C77.6861 62.6679 77.64 62.8529 77.5939 62.9917C77.5017 63.223 77.4556 63.5005 77.5478 63.7317C77.64 63.963 77.8704 64.148 78.1009 64.333C78.4235 64.6106 78.7001 64.9806 78.8383 65.3969C78.8844 65.5356 78.9766 65.7206 79.1149 65.6744C79.2071 65.6744 79.2532 65.5819 79.2992 65.5356C79.5758 65.0731 79.668 64.5181 79.5297 63.963C79.4375 63.4542 79.1149 62.9454 78.7001 62.6217C78.6079 62.5292 78.4696 62.4366 78.3313 62.4366" fill="#19160D"/>
</g>
<defs>
<clipPath id="clip0">
<rect width="56" height="50" fill="white" transform="translate(23.5762 24)"/>
</clipPath>
</defs>
</svg>
