<svg width="107" height="105" viewBox="0 0 107 105" fill="none" xmlns="http://www.w3.org/2000/svg">
<path d="M4.58354 40.2415C5.18939 34.2228 7.16266 28.6652 10.2707 23.5498C12.3072 20.0978 14.6831 16.79 16.8264 13.4633C18.5643 10.8039 21.1385 9.37926 23.9265 8.20538C25.3786 7.62316 26.7239 6.91557 28.176 6.33336C30.2285 5.56651 32.1835 4.55837 34.2172 4.02338C38.2845 2.9534 42.4211 2.47249 46.5704 3.27622C49.1103 3.71587 51.7759 4.04903 54.3346 4.25683C56.777 4.45517 59.0655 5.10778 61.3445 5.87632C63.8561 6.66374 66.3866 7.21932 68.9076 7.89082C72.2334 8.74436 75.4052 10.0522 78.5676 11.4759C81.5068 12.7648 84.05 14.605 86.5838 16.5611C88.6806 18.1317 90.3909 20.1377 92.2362 21.9212C95.2668 24.9679 96.9522 28.7222 98.7538 32.4859C100.565 36.1337 102.357 40.0134 102.716 44.2434C103.154 48.9466 103.242 53.6214 101.926 58.2988C101.436 60.0094 101.169 61.8548 100.785 63.6907C99.8933 67.4691 98.671 70.9872 96.9741 74.5835C95.4311 77.7256 93.5581 80.6074 91.8013 83.4987C89.7743 86.8348 87.0871 89.6506 83.7586 91.7141C82.4039 92.5376 81.2725 93.4959 80.1316 94.5702C78.8556 95.8669 77.1896 96.1983 75.6212 96.7711C72.9683 97.7226 70.1898 98.7805 67.4394 99.4907C62.5391 100.726 57.6388 101.962 52.471 100.726C50.1732 100.189 48.155 99.0915 45.8572 98.5548C44.2477 98.1907 42.6665 97.4789 40.9408 97.1054C37.615 96.2518 34.7041 94.6151 31.6768 92.969C30.5514 92.4108 29.3003 91.9592 28.1655 91.5169C25.6633 90.6136 23.6828 89.0524 21.5859 87.4819C17.8481 84.4944 14.874 80.7522 12.5097 76.7094C10.5446 73.5158 9.44084 69.8088 7.96928 66.3052C6.60462 62.927 5.6077 59.3453 5.20171 55.695C4.9846 54.0436 5.24212 52.3142 5.25762 50.6818C5.21663 49.7449 5.04992 48.9146 5.00893 47.9777C4.76966 45.1577 4.73475 42.7043 4.58354 40.2415Z" fill="white"/>
<path d="M22.2832 43.911C29.1226 44.842 48.4593 47.4488 51.2572 47.8833C52.6873 48.1316 54.1173 48.2557 55.5474 48.504C56.9774 48.7522 75.4437 52.9728 81.2261 53.6555C80.6665 53.0969 75.195 47.0764 72.5214 45.0282C72.2727 44.842 71.9618 44.5938 71.651 44.5317C71.1536 44.4076 70.7183 44.5317 70.2209 44.6558C69.0396 44.9041 67.7339 44.78 66.9256 43.911C66.1173 43.0421 66.2417 41.3663 67.3608 40.9318C63.1329 37.332 58.9049 33.7321 54.6769 30.0702C54.1795 29.6357 53.6821 29.2013 53.0603 29.0771C52.4386 28.8909 51.7546 29.0771 51.0707 29.2633C47.8375 30.0702 44.6044 30.9391 41.3712 31.746C39.6303 32.1805 37.8894 32.6149 36.1485 33.2356C30.677 35.2217 25.7029 39.2561 22.2832 43.911Z" fill="#FFDE48"/>
<path d="M22.2832 43.911C22.7184 50.7384 22.905 57.5036 22.9671 64.331C24.335 64.5792 25.7651 64.8275 27.1329 65.0758C29.0604 65.3861 31.05 65.7585 32.9775 66.0688C39.5681 67.186 46.1588 68.2411 52.7495 69.3583C57.164 70.1031 61.6406 70.8479 66.0551 71.5927C67.2365 71.7789 68.4178 71.9651 69.5992 72.1513C73.5162 72.772 77.4333 73.4547 81.2882 74.0754C81.4748 71.4686 81.5991 68.8618 81.537 66.193C80.0447 66.4412 78.4903 65.1999 78.4282 63.7103C78.366 62.2207 79.8582 60.8552 81.3504 60.9794C81.2882 58.807 81.2883 56.6347 81.2261 54.4624C81.2261 54.2141 81.3504 54.0279 81.1639 53.7796C80.9774 53.5314 80.48 53.3452 80.1691 53.2831C78.8012 52.9728 77.4333 52.7245 76.0655 52.4142C69.9722 51.1108 63.879 50.0556 57.7235 49.0005C54.1173 48.3798 50.2624 47.7592 46.7184 47.2006C38.449 45.8351 31.7961 44.9041 22.3454 44.0352" fill="#F2B912"/>
<path d="M56.7282 36.8355C55.1738 36.5251 53.4951 36.2769 52.0028 36.8355C51.5054 37.0217 51.008 37.2699 50.7593 37.7665C50.3863 38.4492 50.6971 39.3181 51.1946 39.8147C51.7541 40.3112 52.5003 40.5595 53.2464 40.6836C54.3034 40.8698 55.3603 40.8698 56.4173 40.7457C56.8526 40.6836 57.2256 40.6215 57.5987 40.3733C58.0961 40.0629 58.407 39.4423 58.3448 38.8216C58.2826 38.2009 58.0961 37.2079 56.7282 36.8355Z" fill="#FCC010"/>
<path d="M37.3298 38.8216C36.6459 38.7595 35.9619 38.8216 35.3402 39.0698C35.0293 39.194 34.6562 39.3802 34.6562 39.7526C34.6562 39.9388 34.7806 40.125 34.9671 40.2491C35.1537 40.3732 35.3402 40.3732 35.5267 40.4353C36.335 40.5594 37.1433 40.6215 37.9516 40.3732C38.1381 40.3112 38.3868 40.2491 38.5112 40.0629C38.6355 39.8767 38.6355 39.7526 38.6355 39.4422C38.5733 39.194 38.5112 38.8836 37.3298 38.8216Z" fill="#FCC010"/>
<path d="M60.0235 54.3383C59.0287 54.4003 57.723 55.2693 57.2256 56.1382C56.7282 57.0071 56.6038 58.0623 56.7903 59.0553C56.9147 59.9863 57.3499 60.8552 58.1582 61.3518C58.5313 61.6 59.0287 61.7242 59.4639 61.7862C60.6453 62.0345 61.8888 62.0966 63.0701 61.7242C63.381 61.6 63.6297 61.4759 63.8784 61.2897C64.1271 61.0414 64.2515 60.7932 64.3758 60.4828C64.8732 59.2415 64.8732 57.7519 64.2515 56.5727C64.0649 56.1382 63.8162 55.7658 63.4432 55.5175C63.1323 55.2693 62.8214 55.0831 62.4484 54.9589C61.6401 54.5245 60.8318 54.3383 60.0235 54.3383Z" fill="#FFDE46"/>
<path d="M72.0241 67.2481C71.7132 67.0619 71.3402 67.124 71.0915 67.3722C70.8428 67.6205 70.7184 67.9308 70.6562 68.2412C70.6562 68.5515 70.7184 68.9239 70.7806 69.2342C70.8428 69.6066 70.9671 69.979 71.2158 70.1652C71.3402 70.2894 71.5267 70.3514 71.7132 70.4135C72.1485 70.5376 72.7081 70.6618 73.0811 70.4135C73.392 70.2273 73.6407 69.7928 73.6407 69.4204C73.7029 69.048 73.5785 68.6136 73.4542 68.2412C73.392 68.055 73.2676 67.8067 73.1433 67.6826C73.0189 67.4964 72.7702 67.4343 72.5215 67.4343" fill="#FFDE46"/>
<path d="M36.2107 57.814C36.0242 57.814 35.8998 57.814 35.6511 57.8761C35.589 57.8761 35.4646 57.9381 35.4024 58.0002C35.3402 58.0623 35.2781 58.1243 35.2781 58.2485C35.1537 58.5588 35.1537 58.9312 35.3402 59.2415C35.5268 59.5519 35.8377 59.7381 36.2107 59.7381C36.6459 59.676 36.9568 59.2415 37.019 58.8071C37.0812 58.4967 37.0812 57.8761 36.2107 57.814Z" fill="#FFDE46"/>
<path d="M29.9315 49.6832C29.5585 49.5591 28.9367 49.8694 28.7502 50.1798C28.5636 50.4901 28.5015 50.9246 28.5015 51.359C28.5015 51.5452 28.5636 51.7314 28.6258 51.8556C28.8745 52.4142 29.4963 52.7866 30.118 52.8486C30.5533 52.9107 30.9885 52.8486 31.3616 52.6624C31.7346 52.4762 32.0455 52.0418 32.0455 51.6073C32.0455 51.4211 32.0455 51.1728 31.9833 50.9866C31.9211 50.8004 31.859 50.5522 31.7346 50.428C31.4237 50.0556 31.175 49.9315 29.9315 49.6832Z" fill="#FFDE46"/>
</svg>
