<svg width="107" height="105" viewBox="0 0 107 105" fill="none" xmlns="http://www.w3.org/2000/svg">
<path d="M4.58354 40.2415C5.18939 34.2228 7.16266 28.6652 10.2707 23.5498C12.3072 20.0978 14.6831 16.79 16.8264 13.4633C18.5643 10.8039 21.1385 9.37926 23.9265 8.20538C25.3786 7.62316 26.7239 6.91557 28.176 6.33336C30.2285 5.56651 32.1835 4.55837 34.2172 4.02338C38.2845 2.9534 42.4211 2.47249 46.5704 3.27622C49.1103 3.71587 51.7759 4.04903 54.3346 4.25683C56.777 4.45517 59.0655 5.10778 61.3445 5.87632C63.8561 6.66374 66.3866 7.21932 68.9076 7.89082C72.2334 8.74436 75.4052 10.0522 78.5676 11.4759C81.5068 12.7648 84.05 14.605 86.5838 16.5611C88.6806 18.1317 90.3909 20.1377 92.2362 21.9212C95.2668 24.9679 96.9522 28.7222 98.7538 32.4859C100.565 36.1337 102.357 40.0134 102.716 44.2434C103.154 48.9466 103.242 53.6214 101.926 58.2988C101.436 60.0094 101.169 61.8548 100.785 63.6907C99.8933 67.4691 98.671 70.9872 96.9741 74.5835C95.4311 77.7256 93.5581 80.6074 91.8013 83.4987C89.7743 86.8348 87.0871 89.6506 83.7586 91.7141C82.4039 92.5376 81.2725 93.4959 80.1316 94.5702C78.8556 95.8669 77.1896 96.1983 75.6212 96.7711C72.9683 97.7226 70.1898 98.7805 67.4394 99.4907C62.5391 100.726 57.6388 101.962 52.471 100.726C50.1732 100.189 48.155 99.0915 45.8572 98.5548C44.2477 98.1907 42.6665 97.4789 40.9408 97.1054C37.615 96.2518 34.7041 94.6151 31.6768 92.969C30.5514 92.4108 29.3003 91.9592 28.1655 91.5169C25.6633 90.6136 23.6828 89.0524 21.5859 87.4819C17.8481 84.4944 14.874 80.7522 12.5097 76.7094C10.5446 73.5158 9.44084 69.8088 7.96928 66.3052C6.60462 62.927 5.6077 59.3453 5.20171 55.695C4.9846 54.0436 5.24212 52.3142 5.25762 50.6818C5.21663 49.7449 5.04992 48.9146 5.00893 47.9777C4.76966 45.1577 4.73475 42.7043 4.58354 40.2415Z" fill="white"/>
<path d="M26.7381 44.9863L27.1451 44.8942L27.1273 44.4773C27.0908 43.6211 27.0941 42.7199 27.2721 41.9345C27.4492 41.1532 27.7841 40.5491 28.3633 40.1953L28.3633 40.1954L28.3711 40.1905C28.5407 40.0825 28.714 40.0131 28.9275 39.9277C29.031 39.8862 29.1439 39.841 29.2705 39.7858C29.6093 39.638 30.0189 39.422 30.2873 38.9971C30.433 38.7945 30.523 38.5795 30.5915 38.3902C30.6276 38.2906 30.6537 38.2115 30.678 38.138C30.7095 38.0429 30.7378 37.9574 30.7803 37.8492L30.7916 37.8204L30.7993 37.7905C31.2401 36.0699 31.8051 34.4602 32.8839 33.3618C33.4054 32.8309 34.1285 32.4292 34.8793 32.2713C35.6247 32.1146 36.3637 32.2034 36.9648 32.5985C37.173 32.746 37.3762 32.9265 37.5944 33.1292C37.6376 33.1692 37.6817 33.2105 37.7266 33.2526C37.9028 33.4175 38.0911 33.5938 38.2822 33.7526C38.7643 34.1533 39.3703 34.5364 40.1545 34.4865L40.1545 34.4865L40.1633 34.4858C40.7876 34.435 41.2587 34.1139 41.6258 33.7279C41.9726 33.3631 42.2602 32.9036 42.5147 32.4969C42.5224 32.4846 42.53 32.4724 42.5376 32.4603C42.8114 32.0228 43.0506 31.6472 43.3215 31.3704C43.581 31.1052 43.832 30.9703 44.1252 30.9583L44.1381 30.9578L44.1509 30.9566C44.3938 30.9341 44.6464 31.0063 44.9986 31.107C45.0642 31.1257 45.1332 31.1454 45.2063 31.1657C45.594 31.2734 46.1716 31.4185 46.7012 31.1245C47.0421 30.9475 47.265 30.647 47.4226 30.3963C47.4981 30.2763 47.5685 30.1507 47.6315 30.0382L47.6473 30.0101C47.7154 29.8887 47.7756 29.783 47.8371 29.6884C48.3817 28.9205 49.5503 28.7841 50.6371 29.199C51.15 29.3948 51.5966 29.7099 52.0347 30.0935C52.306 30.331 52.5453 30.5668 52.7943 30.8123C52.9676 30.9831 53.1457 31.1586 53.3426 31.3426C53.7324 31.7375 54.2961 32.16 54.9451 32.16C55.2136 32.16 55.4477 32.0591 55.6144 31.9742C55.6992 31.931 55.7819 31.8836 55.8527 31.8431L55.8573 31.8405C55.933 31.7971 55.996 31.7612 56.0568 31.7302L56.1044 31.706L56.1458 31.6723C56.5308 31.3587 56.8937 31.0087 57.2389 30.6756L57.2464 30.6684C57.5995 30.3279 57.9347 30.005 58.2843 29.7202C58.9484 29.1793 59.8213 28.8935 60.5 29.0663L60.4999 29.0665L60.513 29.0694C61.0224 29.1847 61.4292 29.534 61.9234 30.0182C61.9665 30.0604 62.0104 30.1038 62.0552 30.1482C62.4856 30.574 62.999 31.082 63.6576 31.3631C64.364 31.7176 65.1679 31.7944 65.8601 31.8604C65.9149 31.8657 65.969 31.8708 66.0222 31.8761C66.7959 31.952 67.4278 32.0412 67.9362 32.3729C68.2368 32.589 68.4728 32.8723 68.7393 33.2091C68.7583 33.2331 68.7776 33.2576 68.7971 33.2824C69.0394 33.5897 69.3199 33.9455 69.6783 34.2293L69.6846 34.2343L69.6911 34.2392C70.0099 34.4752 70.3916 34.6712 70.7233 34.8416C70.8498 34.9065 70.969 34.9677 71.0746 35.0259C71.4948 35.2577 71.8002 35.4843 71.9883 35.8127L71.9921 35.8193L71.9961 35.8257C72.1374 36.0559 72.2132 36.3228 72.3095 36.6659L72.3133 36.6796C72.4011 36.9923 72.5124 37.3892 72.7503 37.7283L72.7502 37.7284L72.757 37.7377C73.3423 38.5322 74.2578 38.6712 74.9894 38.7457C75.1039 38.7573 75.2138 38.7673 75.3202 38.7769C75.5816 38.8006 75.8225 38.8225 76.0626 38.8632C76.3903 38.9188 76.6577 39.0022 76.8733 39.1393L76.8817 39.1447L76.8903 39.1497C77.2387 39.3524 77.5022 39.6809 77.8186 40.0754C77.8796 40.1515 77.9425 40.23 78.0085 40.3106L78.0228 40.3281L78.0387 40.3442C78.4595 40.7727 78.9687 41.1446 79.432 41.483C79.6114 41.6141 79.784 41.7402 79.9419 41.8625C80.5385 42.3249 81.0024 42.7814 81.2472 43.4021C81.5469 44.1989 81.3716 45.1499 80.8645 45.8598L80.8586 45.868L80.853 45.8765C80.327 46.6798 79.5988 47.2271 78.6989 47.65L78.6989 47.6499L78.6927 47.653C77.0686 48.4438 75.2161 48.8106 73.3744 49.1106C66.3937 50.2327 59.2714 50.8303 52.2272 50.6809L52.2249 50.6808C47.8329 50.6075 43.5087 50.1744 39.0919 49.7319L38.8452 49.7072L38.8452 49.7072L38.8376 49.7065C36.187 49.4816 33.5022 49.1843 30.9733 48.449C29.0726 47.8754 27.1716 47.0219 25.474 45.9585C25.4567 45.9252 25.4399 45.8955 25.4257 45.8707C25.4096 45.8424 25.3956 45.8184 25.3829 45.7967C25.359 45.7559 25.3398 45.7229 25.3193 45.6838C25.299 45.645 25.2875 45.6179 25.281 45.6C25.2949 45.5743 25.3053 45.5574 25.3133 45.546C25.3156 45.5427 25.3176 45.5402 25.3191 45.5382L25.3465 45.5243L25.3826 45.4967C25.6406 45.2997 25.8124 45.2166 25.9807 45.1618C26.1121 45.119 26.2345 45.0935 26.4074 45.0575C26.5001 45.0382 26.6073 45.0159 26.7381 44.9863Z" fill="#DFDFDF" stroke="#CACACA"/>
<path d="M26.7755 44.0482C27.0705 43.3725 24.047 42.6217 22.6459 43.0721C21.2448 43.5226 20.4336 45.5498 21.466 46.6009C21.9822 47.1265 22.8671 47.3517 23.2359 48.1025C23.3833 48.4779 23.3833 48.8533 23.3833 49.2287C23.3833 53.4332 23.9733 57.7878 25.8169 61.5418C27.6604 65.2958 30.9051 68.5242 34.8873 69.6504C36.0671 69.9507 37.4683 70.2511 37.9107 71.3773C38.0582 71.6776 38.0582 72.053 38.2057 72.4284C38.5744 73.1041 39.3856 73.4044 40.123 73.6297C47.5711 75.807 55.5353 76.1073 63.0571 74.4555C64.0158 74.2303 64.9007 74.0051 65.7856 73.5546C67.1867 72.7287 68.0716 71.3022 69.3252 70.2511C70.9476 68.8245 73.0124 68.0737 74.7822 66.8725C78.9856 63.9443 80.9766 58.6888 82.5252 53.7335C83.3364 51.2558 84.0739 48.7031 84.3688 46.0753C85.5487 46.3757 86.7286 45.4747 87.0236 44.2734C87.3185 43.0721 86.6549 41.7958 85.6962 41.1951C84.7375 40.5194 83.4102 40.4443 82.304 40.7447C81.1979 41.045 80.0917 42.0961 80.4604 43.2223C80.6079 43.5977 80.9029 43.898 80.9029 44.2734C81.0504 44.9491 80.3867 45.5498 79.7968 45.8501C76.2571 48.0274 71.9063 48.553 67.7766 48.7782C63.4996 49.0035 59.2225 49.0785 54.9454 49.0785C50.9632 49.0785 47.0549 49.1536 43.0727 49.1536C40.713 49.1536 38.4269 49.2287 36.0671 48.8533C33.3387 48.4779 30.6839 47.5019 28.0292 46.5258C27.1442 46.3006 26.4068 44.8741 26.7755 44.0482Z" fill="#E47C59"/>
<path d="M32.8959 42.6217C33.1172 41.9459 33.7071 41.3453 34.3708 41.1201C34.7395 40.9699 34.592 40.4443 34.2233 40.5945C33.3384 40.8948 32.6747 41.5705 32.3797 42.4715C32.306 42.8469 32.8222 42.9971 32.8959 42.6217Z" fill="#CACACA"/>
<path d="M38.7956 40.6696C38.6481 40.5945 39.6805 39.9188 39.7543 39.8437C40.1967 39.6185 41.0079 39.3932 41.1554 40.069C41.2291 40.4444 41.7453 40.2942 41.6716 39.9188C41.5241 38.7926 40.1967 38.9428 39.4593 39.3182C38.9431 39.5434 37.7632 40.5194 38.5006 41.1201C38.7956 41.3453 39.0906 40.8948 38.7956 40.6696Z" fill="#CACACA"/>
<path d="M51.1843 38.1169C51.553 37.8166 51.9217 37.5913 52.2167 37.291C52.4379 37.0658 52.6591 36.8405 53.0278 36.9907C53.2491 37.0658 53.3228 37.2159 53.4703 37.4412C53.6915 37.7415 54.0602 37.291 53.839 37.0658C53.544 36.6904 53.1016 36.2399 52.5116 36.4651C52.2167 36.5402 51.9954 36.7654 51.7742 36.9156C51.4055 37.2159 51.0368 37.4412 50.7418 37.7415C50.5206 37.9667 50.8893 38.3421 51.1843 38.1169Z" fill="#CACACA"/>
<path d="M39.238 45.8501C39.0168 45.6999 39.0905 45.2495 39.0168 45.0242C39.0168 44.799 38.8693 44.4987 38.8693 44.2734C38.9431 43.8229 39.9755 43.9731 40.2704 43.9731C40.6392 43.9731 40.6392 43.3725 40.2704 43.3725C39.6068 43.3725 38.5006 43.2223 38.2794 44.0482C38.2056 44.4236 38.3531 44.8741 38.4269 45.3245C38.4269 45.775 38.5006 46.0753 38.8693 46.3006C39.3118 46.5258 39.533 46.0753 39.238 45.8501Z" fill="#CACACA"/>
<path d="M52.3644 43.7479C52.2907 43.2974 52.2907 42.021 52.9544 42.2463C53.5443 42.4715 53.6918 42.9971 53.9868 43.4475C54.208 43.7479 54.6504 43.4475 54.4292 43.1472C53.9868 42.4715 53.5443 41.4955 52.5119 41.6456C51.627 41.7958 51.627 43.2223 51.7007 43.898C51.8482 44.2734 52.4382 44.1233 52.3644 43.7479Z" fill="#CACACA"/>
<path d="M63.0568 44.5737C63.6467 43.8229 64.9004 44.1233 65.2691 44.9491C65.2691 44.8741 65.2691 44.7239 65.2691 44.6488C65.3428 44.6488 65.3428 44.6488 65.4166 44.5737C65.0478 44.4987 64.9004 45.0242 65.2691 45.0993C65.4903 45.1744 65.7853 45.0242 65.7853 44.7239C65.7853 44.3485 65.2691 44.0482 65.0478 43.8229C64.3104 43.2974 63.278 43.2974 62.6881 44.0482C62.3931 44.4236 62.8356 44.8741 63.0568 44.5737Z" fill="#CACACA"/>
<path d="M68.8826 41.3453C69.4726 40.7447 70.2838 39.8437 71.1687 40.5194C71.7586 40.9699 71.7586 41.7958 72.2011 42.3964C72.4223 42.6967 72.8648 42.3964 72.6435 42.0961C71.9798 41.2702 72.1273 40.144 70.8737 39.7686C69.8413 39.4683 69.0301 40.2191 68.4402 40.8948C68.2189 41.2702 68.6614 41.6456 68.8826 41.3453Z" fill="#CACACA"/>
<path d="M56.3461 34.9635C56.4936 34.5881 56.7149 34.2127 57.1573 34.1376C57.6735 34.0626 57.9685 34.8134 58.1897 35.1888C58.4109 35.4891 58.8534 35.1888 58.6322 34.8884C58.2635 34.2878 57.8947 33.3868 57.0836 33.537C56.4199 33.6872 55.9774 34.2127 55.7562 34.8134C55.6824 35.1137 56.1987 35.2638 56.3461 34.9635Z" fill="#CACACA"/>
<path d="M45.6535 37.2159C45.7273 36.9907 45.8748 36.7654 46.0222 36.4651C46.1697 36.2399 46.3172 35.8645 46.4647 35.7894C46.6859 35.6392 47.1284 36.1648 47.4234 36.2399C47.7921 36.315 47.9396 35.7894 47.5708 35.7143C47.1284 35.6392 46.8334 34.9635 46.3172 35.2638C46.0222 35.414 45.8748 35.7143 45.7273 35.9396C45.506 36.2399 45.3586 36.6153 45.2111 36.9907C44.9898 37.2159 45.506 37.5162 45.6535 37.2159Z" fill="#CACACA"/>
<path d="M36.5095 37.6664C36.5832 37.291 36.7307 36.8405 36.8782 36.4651C36.952 36.2399 37.0257 36.2399 37.1732 36.315C37.3944 36.39 37.6156 36.4651 37.8369 36.5402C38.2056 36.6904 38.3531 36.0897 37.9844 36.0146C37.5419 35.8645 36.952 35.4891 36.5832 35.9396C36.2145 36.315 36.067 36.9907 35.9933 37.5162C35.8458 37.8916 36.4358 38.0418 36.5095 37.6664Z" fill="#CACACA"/>
<path d="M45.0638 45.8501C45.5062 45.3245 45.875 44.7239 46.1699 44.1233C46.2437 43.9731 46.3174 43.8229 46.3912 43.7479C46.6124 43.5977 46.7599 43.898 46.8336 44.0482C47.0548 44.4236 47.2023 44.799 47.3498 45.2495C47.4236 45.6249 48.0135 45.4747 47.866 45.0993C47.7185 44.4987 47.2023 42.9971 46.3912 43.0721C46.0224 43.1472 45.875 43.5226 45.7275 43.8229C45.4325 44.4236 45.0638 44.9491 44.6213 45.4747C44.4001 45.6999 44.8426 46.1504 45.0638 45.8501Z" fill="#CACACA"/>
<path d="M59.7386 42.3214C60.0335 41.7958 60.4022 41.1952 60.8447 40.7447C60.9922 40.5945 61.2134 40.144 61.4346 40.2942C61.5084 40.3693 61.5821 40.5945 61.6559 40.6696C61.7296 40.8198 61.8771 41.045 61.9508 41.1952C62.0983 41.4955 62.6145 41.1952 62.3933 40.8948C62.1721 40.4444 61.6559 39.168 60.9922 39.6936C60.6235 39.9188 60.3285 40.3693 60.1073 40.7447C59.8123 41.1952 59.5173 41.5706 59.2224 42.021C59.0749 42.3964 59.5173 42.6217 59.7386 42.3214Z" fill="#CACACA"/>
<path d="M57.2311 46.9763C57.7473 46.4507 58.411 46.2255 59.1484 46.3757C59.5171 46.4507 59.6646 45.9252 59.2959 45.8501C58.411 45.6249 57.4523 45.9252 56.8624 46.6009C56.5674 46.9012 57.0099 47.2766 57.2311 46.9763Z" fill="#CACACA"/>
</svg>
