<svg width="107" height="103" viewBox="0 0 107 103" fill="none" xmlns="http://www.w3.org/2000/svg">
<path d="M60.5878 4.6308C62.4265 4.78012 64.3988 4.70843 66.2188 5.08809C68.4891 5.62025 70.6257 6.37342 72.7624 7.1266C76.25 8.33727 79.4798 9.87479 82.5572 11.8637C85.4234 13.6035 88.1374 15.7948 90.3636 18.2942C93.7697 21.9328 96.5638 25.9854 99.2337 30.1438C101.078 33.0759 101.869 36.1544 102.411 39.4445C102.954 42.7346 103.363 46.2457 102.967 49.6915C102.431 54.8649 101.551 60.0102 100.335 65.0124C99.6134 68.1999 97.8763 71.073 96.4746 74.0893C96.055 74.9827 95.5298 75.7516 95.1103 76.6449C94.9673 76.9811 94.8243 77.3173 94.6907 77.5383C91.4436 81.9118 87.9948 85.9212 83.2605 88.6668C82.0458 89.3797 80.9274 90.3322 79.7034 91.1603C78.3645 91.979 77.0162 92.9129 75.5717 93.6071C71.726 95.3815 67.9671 97.5108 63.6591 97.8565C61.7923 98.0527 59.9162 98.3641 58.0495 98.5603C53.7414 98.906 49.4521 99.0214 45.132 98.0909C43.6568 97.7392 42.259 97.8576 40.7745 97.6211C37.1252 96.977 33.7899 95.3149 30.4639 93.5377C26.9175 91.6267 23.3805 89.6005 20.4928 86.6996C17.9218 84.1722 15.4845 81.4238 13.0378 78.7905C10.1689 75.6593 8.51457 71.8152 7.09946 67.8745C5.88612 64.2981 4.55787 60.7123 4.16766 56.9708C3.89505 54.6301 4.09147 52.2115 3.81886 49.8707C3.57431 47.1845 4.35466 44.6974 4.56043 42.1636C4.84102 38.7085 6.25208 35.577 7.21283 32.293C9.08755 26.301 13.0522 21.6379 17.3428 17.2332C19.235 15.3001 21.54 13.9802 23.8357 12.7755C27.2311 10.8485 30.7227 9.16128 34.5123 8.07786C37.1246 7.24664 39.5352 6.05124 42.1476 5.22001C45.6111 3.87826 49.2016 3.82205 52.6772 3.75651C55.339 3.74082 57.9634 4.18581 60.6065 4.40046C60.6065 4.40046 60.5972 4.51563 60.5878 4.6308Z" fill="white"/>
<path d="M28.1168 39.1714C30.0813 35.8572 33.4965 33.5961 37.1232 32.481C41.0219 31.304 44.8905 31.0872 48.3963 31.0562C51.5092 31.0253 54.6222 31.0562 57.7351 31.1801C64.4748 31.4589 71.698 32.3571 76.6848 37.0032C77.9239 38.1493 78.9817 39.5121 80.1302 40.7511C80.7951 41.4635 81.5204 42.1758 81.9436 43.0741C82.3062 43.8484 82.4574 44.7467 82.5782 45.583C82.9711 48.2467 83.3338 51.0034 82.4271 53.5432C81.0369 57.415 76.987 59.5522 73.0883 60.6053C69.1896 61.6584 65.049 61.9991 61.4828 63.9195C55.8613 66.9239 52.3253 73.5214 46.2505 75.3488C42.8957 76.3709 39.2388 75.7205 36.0352 74.2957C32.348 72.6231 29.0839 69.8664 27.0892 66.2425C26.0012 64.2602 25.3061 62.061 24.7621 59.8309C23.9461 56.2999 23.523 52.614 23.9763 48.9901C24.4296 45.3662 25.7897 41.8351 28.147 39.1094" fill="#DE8565"/>
<path d="M24.496 52.1576C28.4787 49.1541 31.8837 45.4224 35.1367 41.5997C37.5689 38.7478 40.1227 35.7746 40.8827 32.1035C40.9436 31.8608 40.7611 31.5878 40.8827 31.5574C41.0348 31.5271 41.2172 31.4968 41.6732 31.4361C42.038 31.4058 42.19 31.3754 42.2812 31.3451C42.4941 31.3147 42.3421 31.9215 42.3421 32.2249C42.4333 34.743 42.8285 37.2308 43.5277 39.658C43.6797 40.2041 43.8622 40.7805 44.227 41.2053C44.5918 41.6603 45.1695 41.9637 45.7471 41.8424C46.1119 41.7817 46.4159 41.539 46.72 41.2963C50.733 38.2017 54.7157 35.1678 57.7255 31.072C59.3064 31.1327 60.0969 31.163 62.4987 31.3754C61.1914 32.953 59.9145 34.2576 58.6072 35.8352C57.4823 37.1702 56.3574 38.5051 55.3542 39.931C53.6212 42.4492 52.1619 45.1493 50.125 47.3944C48.0881 49.7002 45.5343 51.4598 43.0109 53.2498C38.6634 56.3748 34.2247 59.7424 31.7621 64.5056C31.2149 65.5675 30.7284 66.7204 29.6948 67.2968C29.5123 67.3878 28.9651 68.0249 28.8131 67.9036C28.6003 67.6912 28.2963 67.2361 28.1747 67.1148C25.9857 64.3843 25.3473 61.5931 24.5872 58.1951C24.192 56.5568 23.9184 54.3421 23.8271 52.552" fill="#F6CDC9"/>
<path d="M74.3547 34.8946C73.8074 37.1397 72.0137 38.8387 70.4632 40.477C68.7607 42.267 67.0886 44.0874 65.4165 45.9077C63.6531 47.8191 61.7074 49.7001 60.4609 52.0058C59.3968 54.0386 58.9104 56.3747 58.1807 58.5287C57.2687 61.2593 56.843 63.7471 56.9951 66.5989C57.5119 66.1438 58.3023 65.446 58.8496 65.0516C59.3056 64.6876 59.8225 64.3538 60.4609 63.8987C61.1602 63.4437 60.3089 62.0481 60.2177 61.1986C60.0657 59.5603 61.1297 58.0433 61.7074 56.5264C62.7107 53.9475 63.6531 50.6103 66.0549 48.8809C68.9127 46.8482 70.6456 50.1552 70.5848 52.7947C70.5544 54.3116 69.9464 55.7982 69.5207 57.2545C69.1863 58.4681 68.9127 59.803 68.5783 61.0165C69.2775 60.8648 69.6119 60.8042 70.2808 60.6525C70.7064 60.5615 71.1017 60.4704 71.2841 60.4401C71.4665 60.4098 71.3145 60.2277 71.3753 59.7423C71.6793 56.496 72.8042 53.6745 75.0539 51.2777C76.6348 49.6091 78.611 47.1213 80.8607 46.3931C81.4688 46.2111 83.0801 46.6358 82.9889 46.0291C82.9281 45.665 82.9281 45.483 82.8065 44.8458C81.408 44.6941 80.2223 45.7257 78.763 45.665C76.7869 45.574 75.2363 45.0279 74.6891 43.0255C74.3547 41.8726 74.0811 39.9613 74.3243 38.778C74.5675 37.6252 75.2363 36.715 75.4492 35.5924C75.1147 35.3497 74.6891 35.0767 74.3547 34.8946Z" fill="#F6CDC9"/>
</svg>
