<svg width="110" height="103" viewBox="0 0 110 103" fill="none" xmlns="http://www.w3.org/2000/svg">
<path d="M60.5878 4.6308C62.4265 4.78012 64.3988 4.70843 66.2188 5.08809C68.4891 5.62025 70.6257 6.37342 72.7624 7.1266C76.25 8.33727 79.4798 9.87479 82.5572 11.8637C85.4234 13.6035 88.1374 15.7948 90.3636 18.2942C93.7697 21.9328 96.5638 25.9854 99.2337 30.1438C101.078 33.0759 101.869 36.1544 102.411 39.4445C102.954 42.7346 103.363 46.2457 102.967 49.6915C102.431 54.8649 101.551 60.0102 100.335 65.0124C99.6134 68.1999 97.8763 71.073 96.4746 74.0893C96.055 74.9827 95.5298 75.7516 95.1103 76.6449C94.9673 76.9811 94.8243 77.3173 94.6907 77.5383C91.4436 81.9118 87.9948 85.9212 83.2605 88.6668C82.0458 89.3797 80.9274 90.3322 79.7034 91.1603C78.3645 91.979 77.0162 92.9129 75.5717 93.6071C71.726 95.3815 67.9671 97.5108 63.6591 97.8565C61.7923 98.0527 59.9162 98.3641 58.0495 98.5603C53.7414 98.906 49.4521 99.0214 45.132 98.0909C43.6568 97.7392 42.259 97.8576 40.7745 97.6211C37.1252 96.977 33.7899 95.3149 30.4639 93.5377C26.9175 91.6267 23.3805 89.6005 20.4928 86.6996C17.9218 84.1722 15.4845 81.4238 13.0378 78.7905C10.1689 75.6593 8.51457 71.8152 7.09946 67.8745C5.88612 64.2981 4.55787 60.7123 4.16766 56.9708C3.89505 54.6301 4.09147 52.2115 3.81886 49.8707C3.57431 47.1845 4.35466 44.6974 4.56043 42.1636C4.84102 38.7085 6.25208 35.577 7.21283 32.293C9.08755 26.301 13.0522 21.6379 17.3428 17.2332C19.235 15.3001 21.54 13.9802 23.8357 12.7755C27.2311 10.8485 30.7227 9.16128 34.5123 8.07786C37.1246 7.24664 39.5352 6.05124 42.1476 5.22001C45.6111 3.87826 49.2016 3.82205 52.6772 3.75651C55.339 3.74082 57.9634 4.18581 60.6065 4.40046C60.6065 4.40046 60.5972 4.51563 60.5878 4.6308Z" fill="white"/>
<path d="M28.1224 39.1822C30.0892 35.8641 33.5084 33.6003 37.1394 32.484C41.0427 31.3056 44.9158 31.0885 48.4258 31.0575C51.5424 31.0265 54.659 31.0575 57.7756 31.1815C64.5232 31.4606 71.7549 32.3599 76.7476 37.0115C77.9882 38.1589 79.0472 39.5233 80.197 40.7637C80.8627 41.477 81.5889 42.1902 82.0125 43.0895C82.3756 43.8647 82.5269 44.764 82.6479 45.6013C83.0413 48.2682 83.4044 51.0281 82.4967 53.571C81.1048 57.4473 77.0501 59.587 73.1468 60.6413C69.2435 61.6957 65.0981 62.0368 61.5276 63.9594C55.8996 66.9674 52.3593 73.5726 46.2774 75.4022C42.9187 76.4256 39.2575 75.7743 36.0501 74.3479C32.3586 72.6733 29.0907 69.9134 27.0936 66.2852C26.0043 64.3005 25.3084 62.0988 24.7637 59.8661C23.9467 56.3309 23.5231 52.6407 23.977 49.0125C24.4309 45.3843 25.7925 41.8491 28.1527 39.1202" fill="#DE8565"/>
<path d="M24.4973 52.1837C28.4846 49.1766 31.8937 45.4405 35.1505 41.6133C37.5856 38.7581 40.1424 35.7814 40.9033 32.106C40.9642 31.863 40.7816 31.5897 40.9033 31.5593C41.0555 31.5289 41.2381 31.4985 41.6947 31.4378C42.06 31.4074 42.2121 31.377 42.3035 31.3467C42.5165 31.3163 42.3643 31.9238 42.3643 32.2275C42.4557 34.7486 42.8513 37.2394 43.5514 39.6693C43.7036 40.2161 43.8862 40.7932 44.2515 41.2185C44.6167 41.6741 45.1951 41.9778 45.7734 41.8563C46.1386 41.7956 46.443 41.5526 46.7474 41.3096C50.7652 38.2114 54.7526 35.1739 57.7659 31.0733C59.3487 31.134 60.1401 31.1644 62.5447 31.377C61.2359 32.9565 59.9575 34.2626 58.6486 35.8421C57.5224 37.1786 56.3962 38.5151 55.3918 39.9427C53.6568 42.4638 52.1958 45.1672 50.1565 47.4149C48.1171 49.7234 45.5603 51.4851 43.034 53.2772C38.6813 56.4058 34.2374 59.7774 31.7719 64.5463C31.2241 65.6094 30.737 66.7636 29.7022 67.3407C29.5195 67.4319 28.9716 68.0697 28.8195 67.9482C28.6064 67.7356 28.302 67.28 28.1803 67.1585C25.9887 64.4248 25.3495 61.6303 24.5886 58.2283C24.1929 56.5881 23.919 54.3707 23.8276 52.5786" fill="#F6CDC9"/>
<path d="M74.4147 34.9007C73.8668 37.1484 72.071 38.8494 70.5186 40.4897C68.8141 42.2818 67.14 44.1043 65.466 45.9267C63.7006 47.8404 61.7525 49.7236 60.5046 52.0321C59.4392 54.0672 58.9522 56.406 58.2217 58.5626C57.3086 61.2964 56.8825 63.7871 57.0346 66.6423C57.5521 66.1867 58.3435 65.4881 58.8914 65.0932C59.3479 64.7287 59.8654 64.3946 60.5046 63.939C61.2046 63.4833 60.3524 62.0861 60.2611 61.2356C60.1089 59.5954 61.1742 58.0766 61.7525 56.5579C62.757 53.976 63.7006 50.6348 66.1051 48.9035C68.9663 46.8684 70.7013 50.1792 70.6404 52.8218C70.61 54.3405 70.0012 55.8289 69.5751 57.2869C69.2403 58.5019 68.9663 59.8384 68.6315 61.0534C69.3316 60.9015 69.6664 60.8407 70.336 60.6889C70.7622 60.5977 71.1578 60.5066 71.3405 60.4762C71.5231 60.4459 71.3709 60.2636 71.4318 59.7776C71.7362 56.5275 72.8624 53.7027 75.1148 51.3031C76.6976 49.6325 78.676 47.1417 80.9284 46.4127C81.5372 46.2305 83.1504 46.6557 83.0591 46.0482C82.9982 45.6837 82.9982 45.5015 82.8765 44.8636C81.4763 44.7118 80.2892 45.7445 78.8282 45.6837C76.8497 45.5926 75.2974 45.0459 74.7495 43.0411C74.4147 41.8869 74.1408 39.9733 74.3843 38.7887C74.6278 37.6344 75.2974 36.7232 75.5105 35.5993C75.1757 35.3563 74.7495 35.083 74.4147 34.9007Z" fill="#F6CDC9"/>
<path d="M76.043 17.8674C76.043 14.7481 77.0621 11.3577 79.2276 8.50969C81.7754 5.11923 85.0874 3.08495 89.1637 2.54247C90.3102 2.40686 91.4567 2.13562 92.6031 2C93.1127 2 93.6222 2 94.1318 2.13562C98.7177 3.62742 102.667 5.93294 105.596 10.0015C108.272 13.9344 110.947 18.003 109.673 23.2921C108.654 27.6319 106.616 31.2936 102.412 33.1923C100.756 34.006 99.0998 34.9553 97.4438 35.4978C93.7496 36.7183 90.0554 35.4978 86.616 34.1416C83.1766 32.7854 80.5015 30.2087 78.3359 26.9538C76.6799 24.6483 75.7882 21.6647 76.043 17.8674Z" fill="#FF5050"/>
<path d="M91.2389 22.4284C91.3481 21.8197 91.4652 21.3125 91.5901 20.9067C91.7149 20.4853 91.9178 20.0483 92.1987 19.5957L92.1753 19.6191C92.2689 19.4475 92.4874 19.1353 92.8308 18.6827L92.9947 18.472C93.4004 17.9414 93.7048 17.5044 93.9077 17.161C94.1106 16.8021 94.212 16.4587 94.212 16.131C94.212 15.694 93.9857 15.3897 93.5331 15.218C93.3926 15.1712 93.2756 15.1478 93.1819 15.1478C93.0103 15.1478 92.8698 15.2024 92.7606 15.3116C92.6513 15.4209 92.5187 15.5926 92.3626 15.8267C92.3314 15.8579 92.2768 15.9359 92.1987 16.0608C92.1207 16.17 92.0348 16.2637 91.9412 16.3417C91.8476 16.4197 91.7461 16.4743 91.6369 16.5056C91.2311 16.5368 90.8643 16.5524 90.5366 16.5524C90.2713 16.5524 89.9045 16.5368 89.4363 16.5056L88.8745 16.4587L88.2424 16.3885C88.2892 15.5457 88.5545 14.7342 89.0383 13.9538C89.5221 13.1735 90.1698 12.5414 90.9814 12.0576C91.7929 11.5582 92.6669 11.3085 93.6033 11.3085C94.5085 11.3085 95.3435 11.4958 96.1082 11.8703C96.8886 12.2449 97.505 12.7599 97.9576 13.4154C98.4258 14.0709 98.66 14.8044 98.66 15.616C98.66 16.6148 98.262 17.6058 97.466 18.5891L96.7169 19.4553C96.4828 19.6894 96.2643 19.9391 96.0614 20.2044C95.7961 20.5789 95.5776 20.9925 95.4059 21.4451C95.2499 21.8821 95.1094 22.4049 94.9845 23.0136L94.9611 23.0838C94.8987 23.2711 94.8675 23.4194 94.8675 23.5286C94.8675 23.6223 94.8909 23.7393 94.9377 23.8798C94.6568 23.9266 94.3212 23.9578 93.9311 23.9734C93.5565 23.989 93.2288 23.989 92.9478 23.9734H91.4028C91.3091 23.8798 91.2467 23.7862 91.2155 23.6925C91.1999 23.5989 91.1921 23.4818 91.1921 23.3414L91.2389 22.4284ZM91.2389 28.0936C91.1765 27.7191 91.1453 27.2821 91.1453 26.7827L91.1687 26.2208V25.7526L91.1921 25.4717V25.2376C91.6135 25.0503 92.2611 24.9567 93.1351 24.9567C93.9779 24.9567 94.5085 25.0113 94.727 25.1205C94.7426 25.1361 94.7582 25.183 94.7738 25.261C94.7895 25.339 94.7973 25.4249 94.7973 25.5185C94.7973 25.6434 94.7817 25.9243 94.7504 26.3613L94.61 28.1171L91.2389 28.0936Z" fill="white"/>
</svg>
