<svg width="36" height="42" viewBox="0 0 36 42" fill="none" xmlns="http://www.w3.org/2000/svg">
<path d="M24.8414 13.0149C26.1029 11.7693 27.4089 10.5735 28.8037 9.47755C29.0543 9.25664 29.3021 9.08278 29.6387 9.00872C29.9753 8.93467 30.3449 9.0987 30.6701 9.21282C31.3177 9.4881 31.918 9.76053 32.5684 9.98877C32.7991 10.0972 33.077 10.2084 33.3635 10.1786C33.65 10.1487 33.8977 9.97482 34.0982 9.79809C34.5994 9.35627 35.0648 8.72342 35.1992 8.07053C35.3336 7.41764 35.1929 6.60645 34.7014 6.10453C33.9405 5.35022 32.7445 5.51389 31.729 5.83014C31.5843 5.8686 31.3895 5.95124 31.2505 5.89561C30.7807 5.81995 30.6759 5.19979 30.6571 4.72649C30.6998 4.02084 30.8843 3.32377 30.7852 2.60953C30.6862 1.89528 30.3507 1.16673 29.6473 1.02972C29.0385 0.898423 28.3955 1.33165 28.1221 1.92891C27.8014 2.52331 27.7615 3.18192 27.7689 3.84339C27.7763 4.50487 27.7837 5.16634 27.5576 5.76646C27.3286 6.41363 26.869 6.95239 26.4094 7.49116C25.2897 8.74542 24.0839 9.85283 22.7421 10.8576" fill="#C6C6C6"/>
<path d="M25.2292 12.0941C24.3407 11.096 24.3692 10.6256 23.2517 10.2746C20.875 9.56416 18.2568 10.4916 16.1387 11.7799C15.2508 12.3399 14.4488 13.0468 13.6498 13.7067C11.6478 15.4269 9.64868 17.1001 7.73841 18.8731C5.63051 20.7758 3.56133 22.8224 2.17846 25.2884C0.795581 27.7543 0.0933057 30.7337 0.970949 33.4781C1.41119 34.8268 2.18804 36.1015 3.21834 37.1082C5.27039 39.2627 8.2303 40.5279 11.217 40.567C14.2037 40.6062 17.1699 39.4165 19.292 37.2786C19.8963 36.7014 20.4118 36.0244 20.8384 35.2475C21.859 33.279 21.8567 30.9653 21.8961 28.7485C21.9354 26.5317 22.1752 24.1382 23.607 22.4307C24.2728 21.6211 25.2137 20.9698 25.8351 20.1104C26.6627 18.9801 26.9873 17.536 26.8307 16.2045C26.6741 14.8729 25.7879 12.2696 25.2292 12.0941Z" fill="#EF7C7D"/>
<path d="M7.64085 18.9144C9.09718 17.5861 10.5478 16.3518 13.3016 13.9689C13.3517 13.9247 13.7527 13.5712 13.8 13.5741C13.8472 13.577 13.8916 13.6269 13.9361 13.6768C15.9534 14.8377 17.756 16.4105 19.2607 18.2014C19.5717 18.5507 19.8741 19.0412 19.6121 19.4503C19.456 19.6769 19.2111 19.8037 18.9691 19.8835C15.9197 20.8793 12.5976 20.1116 9.46452 19.3553C8.81126 19.1741 8.26848 19.519 7.64085 18.9144Z" fill="#FACFCA"/>
<path d="M3.17639 23.6962C3.61778 24.2423 4.40432 24.5732 5.05474 24.8015C7.37563 25.6502 9.70506 26.3578 12.0373 27.0184C12.8768 27.2581 13.7192 27.4507 14.6202 27.4581C15.0457 27.4838 15.4768 27.4155 15.9524 27.3971C17.8131 27.2264 19.6596 27.291 21.4946 27.5438C21.5892 27.5495 21.731 27.5581 21.7726 27.655C21.8614 27.7548 21.9503 27.8546 21.9417 27.9958C21.8967 30.3066 21.9388 31.9618 21.461 33.5854C21.1688 33.7093 20.8994 33.457 20.5742 33.3428C19.6043 32.9064 18.5369 32.5113 17.5083 32.2601C16.8551 32.0789 16.2462 31.9476 15.593 31.7664C14.4784 31.3684 13.4281 30.691 12.2634 30.3372C11.4712 30.1004 10.6704 30.0047 9.82235 29.9061C9.06884 29.8133 8.31534 29.7205 7.54759 29.8629C6.77984 30.0052 6.04797 30.3387 5.62707 31.0214C5.41805 31.3393 5.29787 31.7569 5.36963 32.139C5.43569 32.6152 5.74381 33.0116 6.1049 33.3167C6.55769 33.6746 7.06059 33.9884 7.62216 34.1168C8.36712 34.3508 9.1736 34.3524 9.97723 34.401C10.778 34.4967 11.5759 34.6395 12.2093 35.15C12.8426 35.6605 13.1667 36.5772 12.7873 37.3569C12.408 38.1366 11.4426 38.4087 10.6475 38.2189C9.85246 38.0291 9.17186 37.5158 8.43829 37.0936C6.4711 35.8886 4.23906 35.1396 2.37495 33.7991C1.73877 33.3357 0.929449 33.3811 0.691387 32.6112C0.497748 31.8913 0.469857 30.0009 0.821846 28.8891C1.02063 27.9568 0.959112 28.1891 1.25528 27.2155C1.37261 26.8449 2.20986 24.7709 2.9144 24.1053" fill="#FACFCA"/>
</svg>
