<svg width="119" height="114" viewBox="0 0 119 114" fill="none" xmlns="http://www.w3.org/2000/svg">
<path d="M63.5277 0.122737C65.7395 0.122737 68.0896 -0.153422 70.3014 0.122737C73.0662 0.536975 75.6927 1.22738 78.3192 1.91777C82.6046 3.02241 86.6136 4.54127 90.4842 6.61246C94.0784 8.54558 97.5344 10.8929 100.576 13.6545C104.999 17.6588 108.732 22.2154 112.326 26.9101C114.814 30.224 116.058 33.8141 117.026 37.6803C117.994 41.5465 118.823 45.6889 118.685 49.8313C118.547 56.0449 117.994 62.2585 117.026 68.3339C116.473 72.2002 114.676 75.7902 113.294 79.5184C112.879 80.623 112.326 81.5896 111.911 82.6942C111.773 83.1085 111.635 83.5227 111.497 83.7988C108.041 89.322 104.308 94.431 98.9168 98.1591C97.5344 99.1257 96.2903 100.368 94.9079 101.473C93.3873 102.578 91.8666 103.82 90.2078 104.787C85.7841 107.272 81.4987 110.172 76.3839 111C74.1721 111.415 71.9603 111.967 69.7485 112.381C64.6336 113.21 59.5188 113.762 54.2657 113.072C52.4686 112.796 50.8098 113.072 49.0127 112.934C44.589 112.519 40.4419 110.862 36.2947 109.067C31.8711 107.134 27.4474 105.063 23.715 101.887C20.3973 99.1256 17.2178 96.0879 14.0383 93.1882C10.3058 89.7363 7.95577 85.3177 5.88219 80.7611C4.08509 76.6187 2.14975 72.4763 1.32032 68.0578C0.767366 65.2962 0.767366 62.3965 0.214411 59.6349C-0.338544 56.4591 0.35265 53.4214 0.35265 50.3836C0.35265 46.2412 1.73504 42.375 2.56447 38.3707C4.22333 31.0525 8.50873 25.1151 13.2088 19.4539C15.2824 16.9684 17.909 15.1734 20.5355 13.5164C24.4062 10.8929 28.4151 8.54557 32.8387 6.88862C35.88 5.6459 38.6448 3.98895 41.686 2.74624C45.5567 1.08928 49.7038 0.536975 53.851 0.122737C57.0305 -0.153422 60.21 0.122737 63.3895 0.122737C63.5277 -0.0153422 63.5277 -0.0153422 63.5277 0.122737Z" fill="white"/>
<mask id="mask0" mask-type="alpha" maskUnits="userSpaceOnUse" x="0" y="0" width="119" height="114">
<path d="M63.5277 0.273616C65.7395 0.273616 68.0896 -0.00254263 70.3014 0.273616C73.0662 0.687854 75.6927 1.37826 78.3192 2.06865C82.6046 3.17329 86.6136 4.69215 90.4842 6.76334C94.0784 8.69645 97.5344 11.0438 100.576 13.8054C104.999 17.8097 108.732 22.3663 112.326 27.061C114.814 30.3749 116.058 33.965 117.026 37.8312C117.994 41.6974 118.823 45.8398 118.685 49.9822C118.547 56.1958 117.994 62.4093 117.026 68.4848C116.473 72.351 114.676 75.9411 113.294 79.6693C112.879 80.7739 112.326 81.7405 111.911 82.8451C111.773 83.2593 111.635 83.6736 111.497 83.9497C108.041 89.4729 104.308 94.5818 98.9168 98.31C97.5344 99.2765 96.2903 100.519 94.9079 101.624C93.3873 102.729 91.8666 103.971 90.2078 104.938C85.7841 107.423 81.4987 110.323 76.3839 111.151C74.1721 111.566 71.9603 112.118 69.7485 112.532C64.6336 113.361 59.5188 113.913 54.2657 113.223C52.4686 112.946 50.8098 113.223 49.0127 113.084C44.589 112.67 40.4419 111.013 36.2947 109.218C31.8711 107.285 27.4474 105.214 23.715 102.038C20.3973 99.2765 17.2178 96.2388 14.0383 93.3391C10.3058 89.8871 7.95577 85.4686 5.88219 80.912C4.08509 76.7696 2.14975 72.6272 1.32032 68.2087C0.767366 65.4471 0.767366 62.5474 0.214411 59.7858C-0.338544 56.61 0.35265 53.5723 0.35265 50.5345C0.35265 46.3921 1.73504 42.5259 2.56447 38.5216C4.22333 31.2034 8.50873 25.266 13.2088 19.6047C15.2824 17.1193 17.909 15.3243 20.5355 13.6673C24.4062 11.0438 28.4151 8.69645 32.8387 7.0395C35.88 5.79678 38.6448 4.13983 41.686 2.89712C45.5567 1.24016 49.7038 0.687854 53.851 0.273616C57.0305 -0.00254263 60.21 0.273616 63.3895 0.273616C63.5277 0.135537 63.5277 0.135537 63.5277 0.273616Z" fill="white"/>
</mask>
<g mask="url(#mask0)">
<path d="M83.4377 31.8405C96.6299 32.0595 97.1225 26.7498 105.114 23.3012C107.851 22.1517 107.468 20.2358 107.687 19.6884C109.056 16.6777 108.016 14.8166 107.195 12.3533C106.1 8.84999 104.567 5.89406 102.159 3.15709C99.75 0.42012 96.5204 -1.00311 92.8529 -1.33154C91.9223 -9.87088 88.8569 -17.5891 81.0839 -21.7493C73.2562 -25.9095 64.9358 -25.3621 58.6407 -19.4503C55.6301 -23.7199 51.3604 -25.4716 46.1054 -26.5117C40.8504 -27.5517 35.3765 -26.5117 30.5047 -24.0484C26.6182 -22.0778 23.2791 -19.2313 21.1443 -15.3448C18.9547 -11.4036 18.9 -7.29813 20.4327 -3.19268C15.8893 -1.38628 12.2765 1.35069 9.43004 5.45614C6.91203 9.12368 5.43406 13.3386 6.30989 17.7178C6.96676 21.1116 9.32055 23.8486 11.2364 26.2571C12.9334 28.4467 14.8492 30.5815 17.0388 31.5121C22.2391 33.8111 25.9613 32.8806 31.49 31.3479C46.7623 31.1289 70.2455 31.6763 83.4377 31.8405Z" fill="#49A784"/>
<path d="M30.5046 30.1982C30.5593 30.0888 30.614 30.034 30.7235 30.034C33.7889 29.0487 36.6354 30.3625 39.5913 30.7456C44.1894 31.293 48.5138 30.034 53.1119 29.8698C61.1039 29.5414 68.9863 31.1835 76.9783 31.0193C79.8247 30.9646 82.6164 30.5814 85.4629 31.2383C85.7366 31.293 85.9008 31.4572 85.9008 31.7309C85.9556 35.3985 86.1198 39.1208 86.284 42.7336C86.284 42.9525 86.284 43.1167 86.1745 43.2809C86.065 43.4452 85.7366 43.5546 85.5176 43.5546C74.0771 44.4305 62.5271 44.5947 51.0866 44.4305C48.4043 44.3757 45.8316 44.321 43.1494 43.9378C38.9344 43.2809 34.8837 42.0219 30.5593 42.843C30.2309 42.8978 29.9024 42.6788 29.9024 42.3504C29.8477 38.5186 29.9572 34.7416 30.1214 30.9646C30.1214 30.8551 30.1761 30.7456 30.2309 30.6361C30.2856 30.5267 30.4498 30.3077 30.5046 30.1982Z" fill="#1B1F9B"/>
<path d="M28.0959 41.803C19.8303 39.6682 11.7289 41.2009 6.6381 48.6455C1.4926 56.09 3.13478 64.6841 7.67814 71.9644C4.94118 73.7708 3.18952 76.4531 2.7516 79.6827C2.31369 82.9123 2.75161 85.9777 3.51796 89.0979C5.32436 95.995 7.51393 102.618 13.9732 106.396C19.2282 109.461 25.4137 108.311 31.2708 108.421C36.9637 117.289 45.5031 123.419 56.3962 122.379C67.2893 121.339 73.9675 114.387 80.3721 106.341C83.9301 108.64 88.0356 108.804 92.1958 108.585C95.9728 108.366 99.6951 108.202 102.76 105.848C104.622 104.425 105.607 102.454 106.647 100.484C109.439 94.9002 112.23 89.4263 110.971 83.0218C109.931 77.8763 106.045 74.5372 102.815 70.7602C107.085 69.0632 109.439 65.2315 109.274 60.6334C109.11 56.0353 107.085 52.313 104.567 48.5907C101.282 43.7736 97.2318 39.7777 91.2104 39.9966C87.9261 40.1061 85.2986 42.0767 82.2879 42.7883C79.8247 43.3357 77.3614 43.5547 74.8981 43.6642C64.2239 43.9926 53.714 44.3758 43.0945 43.2262C38.6059 42.7336 34.3362 41.6935 29.7929 41.803C29.4097 41.6388 28.4244 41.3651 28.0959 41.803Z" fill="#49A784"/>
<path d="M40.5223 77.3837C42.0003 76.9458 47.0363 77.6026 49.9375 78.7522C50.8133 79.0806 51.6344 79.4638 52.5103 79.628C54.6998 80.1206 57.0536 79.5185 59.1885 78.6974C61.3233 77.9311 63.4581 77.0005 65.7024 76.8363C67.1804 76.7268 68.7131 77.0005 70.1363 77.4384C71.2311 77.7668 72.3259 78.2048 73.147 79.0259C73.9133 79.8469 74.2418 80.9965 74.406 82.0913C74.6797 83.9524 74.5702 85.8135 74.0776 87.6199C73.8586 88.441 73.5849 89.2621 73.0923 89.919C72.3806 90.8496 71.2859 91.4517 70.2458 91.9991C68.6584 92.8202 67.0162 93.696 65.2645 94.1887C63.5676 94.6813 61.7612 94.736 60.0095 95.0645C58.4221 95.3382 56.8894 95.7214 55.302 95.6666C53.8787 95.6119 52.5103 95.1192 51.087 94.7908C48.2406 94.0792 45.2299 93.915 42.3835 93.0939C39.537 92.2728 36.7453 90.5759 35.5958 87.8389C34.3368 84.883 35.4316 81.3249 37.5664 78.9711C38.4422 78.0405 38.1685 78.0405 40.5223 77.3837Z" fill="#1B1F9B"/>
<path d="M50.3749 81.7629C47.9116 80.2302 44.682 79.9565 41.945 80.8323C40.9597 81.106 40.0291 81.5987 39.427 82.4198C38.7701 83.3504 38.6059 84.5546 38.8796 85.6494C39.1533 86.7442 39.8649 87.6748 40.6313 88.4959C43.3135 91.1234 47.3095 91.8897 51.0865 92.2729C52.8382 92.4371 54.5351 92.6013 56.2867 92.4918C57.8194 92.3824 59.2974 92.1087 60.7754 91.835C62.3081 91.5613 63.8408 91.2328 65.2092 90.5212C66.0303 90.0833 66.7967 89.5359 67.6178 89.1527C68.9315 88.5506 70.6284 88.3316 71.4495 87.1274C71.9969 86.2515 71.9422 85.1568 71.778 84.1715C71.6138 83.4051 71.3948 82.584 70.8474 81.9819C69.8074 80.8324 68.0557 80.6134 66.5777 80.8871C51.8528 83.5146 50.3749 81.7629 50.3749 81.7629Z" fill="white"/>
<path d="M42.5474 69.6107C43.5875 69.8844 44.5728 70.377 45.5581 70.7055C46.8171 71.1434 48.2403 71.3624 49.4993 70.8697C50.0467 70.6507 50.5941 70.2676 51.032 69.8844C51.5247 69.5012 51.9626 69.118 52.2363 68.5706C52.7837 67.6401 52.6742 66.4905 52.5647 65.3958C52.4552 64.4652 52.291 63.4799 51.7436 62.7135C51.3604 62.1661 50.8131 61.7282 50.2657 61.345C48.733 60.305 47.036 59.5934 45.2296 59.1555C44.518 58.9913 43.8064 58.827 43.0948 58.7176C40.5768 58.3344 37.9493 58.4439 35.4313 58.827C33.7344 59.046 32.0375 59.4292 30.5595 60.1955C29.5742 60.7429 28.6984 61.4545 27.8225 62.2756C27.0014 63.042 26.1256 63.9725 25.9066 65.0673C25.7424 65.8884 25.9066 66.7095 26.0709 67.4759C26.2351 68.1875 26.454 68.8991 26.8372 69.5012C27.3846 70.2676 28.2057 70.815 29.0815 71.0887C29.9574 71.3624 30.9427 71.4718 31.8732 71.5266C32.8585 71.5813 34.0081 71.6361 34.7744 71.0339L35.1029 70.815C37.0735 69.7202 39.3725 69.0086 41.6168 69.3917C42 69.5012 42.2737 69.556 42.5474 69.6107Z" fill="white"/>
<path d="M75.3908 69.0633C76.4308 69.337 77.4162 69.8297 78.4015 70.1581C79.6605 70.596 81.0837 70.815 82.3427 70.3223C82.8901 70.1034 83.4375 69.7202 83.8754 69.337C84.3681 68.9538 84.806 68.5707 85.0797 68.0233C85.6271 67.0927 85.5176 65.9432 85.4081 64.8484C85.2986 63.9178 85.1344 62.9325 84.587 62.1662C84.2038 61.6188 83.6564 61.1809 83.1091 60.7977C81.5764 59.7576 79.8794 59.046 78.073 58.6081C77.3614 58.4439 76.6498 58.2797 75.9382 58.1702C73.4202 57.787 70.7927 57.8965 68.2747 58.2797C66.5778 58.4986 64.8808 58.8818 63.4029 59.6482C62.4176 60.1955 61.5417 60.9072 60.6659 61.7283C59.8448 62.4946 58.969 63.4252 58.75 64.52C58.5858 65.3411 58.75 66.1621 58.9142 66.9285C59.0785 67.6401 59.2974 68.3517 59.6806 68.9538C60.228 69.7202 61.0491 70.2676 61.9249 70.5413C62.8007 70.815 63.786 70.9245 64.7166 70.9792C65.7019 71.0339 66.8514 71.0887 67.6178 70.4866L67.9462 70.2676C69.9169 69.1728 72.2159 68.4612 74.4602 68.8444C74.8434 68.9539 75.1171 69.0086 75.3908 69.0633Z" fill="white"/>
<path d="M75.3908 69.0633C76.4308 69.337 77.4162 69.8297 78.4015 70.1581C79.6605 70.596 81.0837 70.815 82.3427 70.3223C82.8901 70.1034 83.4375 69.7202 83.8754 69.337C84.3681 68.9538 84.806 68.5707 85.0797 68.0233C85.6271 67.0927 85.5176 65.9432 85.4081 64.8484C85.2986 63.9178 85.1344 62.9325 84.587 62.1662C84.2038 61.6188 83.6564 61.1809 83.1091 60.7977C81.5764 59.7576 79.8794 59.046 78.073 58.6081C77.3614 58.4439 76.6498 58.2797 75.9382 58.1702C73.4202 57.787 70.7927 57.8965 68.2747 58.2797C66.5778 58.4986 64.8808 58.8818 63.4029 59.6482C62.4176 60.1955 61.5417 60.9072 60.6659 61.7283C59.8448 62.4946 58.969 63.4252 58.75 64.52C58.5858 65.3411 58.75 66.1621 58.9142 66.9285C59.0785 67.6401 59.2974 68.3517 59.6806 68.9538C60.228 69.7202 61.0491 70.2676 61.9249 70.5413C62.8007 70.815 63.786 70.9245 64.7166 70.9792C65.7019 71.0339 66.8514 71.0887 67.6178 70.4866L67.9462 70.2676C69.9169 69.1728 72.2159 68.4612 74.4602 68.8444C74.8434 68.9539 75.1171 69.0086 75.3908 69.0633Z" fill="white"/>
<path d="M45.1203 67.1473C46.3245 65.6694 45.9414 63.9724 45.8866 62.4945C45.7771 60.3596 42.3833 58.9912 40.3579 58.389C39.5368 58.1153 36.2525 58.389 35.1577 59.1554C34.0629 59.9217 33.406 61.9471 33.2418 62.2755C32.0923 64.7388 33.9534 67.9684 35.1577 69.6106C36.1977 70.9791 38.2778 71.636 40.1937 71.1981C42.1096 70.7601 44.0802 68.9537 45.1203 67.1473Z" fill="#1B1F9B"/>
<path d="M77.9637 66.6C79.1679 65.122 78.7847 63.4251 78.73 61.9471C78.6205 59.8123 75.2267 58.4438 73.2013 57.8417C72.3802 57.568 69.0959 57.8417 68.0011 58.608C66.9063 59.3744 66.2494 61.3997 66.0852 61.7282C64.9357 64.1914 66.7968 67.4211 68.0011 69.0632C69.0411 70.4317 71.1212 71.0886 73.0371 70.6507C74.953 70.2128 76.9236 68.4064 77.9637 66.6Z" fill="#1B1F9B"/>
</g>
</svg>
