<svg width="118" height="116" viewBox="0 0 118 116" fill="none" xmlns="http://www.w3.org/2000/svg">
<path d="M0.42627 47.9315C0.564508 40.7514 2.36161 33.9855 5.5411 27.6338C7.75292 23.3534 10.103 19.211 12.453 15.0686C14.2501 11.7547 17.1531 9.82158 20.3326 8.16463C21.9915 7.33615 23.5121 6.3696 25.171 5.54112C27.521 4.43648 29.7329 3.05569 32.0829 2.22721C36.783 0.570262 41.6214 -0.396294 46.598 0.156024C49.6392 0.432182 52.8187 0.570262 55.86 0.570262C58.763 0.570262 61.5277 1.12258 64.2925 1.81298C67.3338 2.50337 70.375 2.91761 73.4163 3.46993C77.4252 4.02225 81.2959 5.26496 85.1665 6.64575C88.7608 7.88847 91.9402 9.82158 95.1197 11.8928C97.7463 13.5497 99.9581 15.759 102.308 17.6921C106.179 21.006 108.529 25.2865 111.017 29.5669C113.505 33.7093 115.994 38.1278 116.823 43.0987C117.791 48.6219 118.344 54.1451 117.238 59.8063C116.823 61.8775 116.685 64.0868 116.408 66.296C115.717 70.8527 114.611 75.1331 112.953 79.5517C111.432 83.4179 109.497 87.0079 107.699 90.598C105.626 94.7404 102.723 98.3305 98.9904 101.092C97.4698 102.197 96.2256 103.439 94.9815 104.82C93.5991 106.477 91.6638 107.029 89.8667 107.858C86.8254 109.239 83.6459 110.758 80.4664 111.862C74.7987 113.795 69.1309 115.728 62.9101 114.762C60.1454 114.348 57.6571 113.243 54.8923 112.829C52.9569 112.553 51.0216 111.862 48.948 111.586C44.9391 110.896 41.3449 109.239 37.6125 107.582C36.2301 107.029 34.7094 106.615 33.3271 106.201C30.2858 105.372 27.7975 103.716 25.171 102.059C20.4709 98.8828 16.6002 94.7404 13.4207 90.1838C10.7942 86.5937 9.1353 82.3132 7.06172 78.3089C4.98814 74.1666 3.60576 70.0242 2.63809 65.7437C2.22337 63.8106 2.36161 61.7394 2.22337 59.8063C2.08513 58.7017 1.80866 57.7351 1.67042 56.6305C1.2557 53.7308 0.840985 50.8312 0.42627 47.9315Z" fill="white"/>
<mask id="mask0" mask-type="alpha" maskUnits="userSpaceOnUse" x="0" y="0" width="118" height="116">
<path d="M0.577637 47.9315C0.715875 40.7514 2.51298 33.9855 5.69247 27.6338C7.90428 23.3534 10.2543 19.211 12.6044 15.0686C14.4015 11.7547 17.3045 9.82158 20.484 8.16463C22.1429 7.33615 23.6635 6.3696 25.3224 5.54112C27.6724 4.43648 29.8842 3.05569 32.2343 2.22721C36.9344 0.570262 41.7727 -0.396294 46.7493 0.156024C49.7906 0.432182 52.9701 0.570262 56.0113 0.570262C58.9143 0.570262 61.6791 1.12258 64.4439 1.81298C67.4851 2.50337 70.5264 2.91761 73.5676 3.46993C77.5766 4.02225 81.4472 5.26496 85.3179 6.64575C88.9121 7.88847 92.0916 9.82158 95.2711 11.8928C97.8976 13.5497 100.109 15.759 102.46 17.6921C106.33 21.006 108.68 25.2865 111.169 29.5669C113.657 33.7093 116.145 38.1278 116.975 43.0987C117.942 48.6219 118.495 54.1451 117.389 59.8063C116.975 61.8775 116.836 64.0868 116.56 66.296C115.869 70.8527 114.763 75.1331 113.104 79.5517C111.583 83.4179 109.648 87.0079 107.851 90.598C105.777 94.7404 102.874 98.3305 99.1418 101.092C97.6212 102.197 96.377 103.439 95.1329 104.82C93.7505 106.477 91.8151 107.029 90.018 107.858C86.9768 109.239 83.7973 110.758 80.6178 111.862C74.95 113.795 69.2822 115.728 63.0615 114.762C60.2967 114.348 57.8084 113.243 55.0437 112.829C53.1083 112.553 51.173 111.862 49.0994 111.586C45.0905 110.896 41.4963 109.239 37.7638 107.582C36.3814 107.029 34.8608 106.615 33.4784 106.201C30.4372 105.372 27.9489 103.716 25.3224 102.059C20.6222 98.8828 16.7516 94.7404 13.5721 90.1838C10.9455 86.5937 9.28667 82.3132 7.21309 78.3089C5.13951 74.1666 3.75713 70.0242 2.78945 65.7437C2.37474 63.8106 2.51298 61.7394 2.37474 59.8063C2.2365 58.7017 1.96002 57.7351 1.82178 56.6305C1.40707 53.7308 0.992353 50.8312 0.577637 47.9315Z" fill="white"/>
</mask>
<g mask="url(#mask0)">
<path d="M87.5779 31.2894C100.09 31.4971 100.557 26.4611 108.137 23.1904C110.733 22.1001 110.369 20.283 110.577 19.7639C111.875 16.9084 110.889 15.1433 110.11 12.807C109.071 9.48435 107.618 6.68084 105.333 4.085C103.049 1.48916 99.9861 0.139324 96.5076 -0.172176C95.625 -8.2712 92.7177 -15.5915 85.3455 -19.5371C77.9214 -23.4828 70.0301 -22.9636 64.0596 -17.3566C61.2561 -21.4581 57.2066 -23.1194 52.2226 -24.1058C47.2386 -25.0922 42.0469 -24.1058 37.4263 -21.7696C33.6883 -19.9006 30.5733 -17.2009 28.4966 -13.4629C26.42 -9.72486 26.368 -5.83111 27.8217 -1.93735C23.5126 -0.224092 20.0861 2.37175 17.3864 6.26551C14.9983 9.74393 13.5965 13.7415 14.4272 17.8949C15.0502 21.1137 17.2826 23.7095 19.0997 25.9939C20.7091 28.0706 22.5262 30.0953 24.6029 30.9779C29.535 33.1584 33.0653 32.2758 38.3089 30.8221C52.7937 30.6145 75.066 31.1336 87.5779 31.2894Z" fill="#F4B0BE"/>
<path d="M37.3743 29.7323C37.4262 29.6285 37.4781 29.5765 37.5819 29.5765C40.4893 28.642 43.1889 29.888 45.9924 30.2515C50.3535 30.7706 54.4549 29.5765 58.8159 29.4208C66.3957 29.1093 73.8718 30.6668 81.4516 30.511C84.1513 30.4591 86.799 30.0957 89.4987 30.7187C89.7583 30.7706 89.914 30.9264 89.914 31.186C89.966 34.6644 90.1217 38.1947 90.2775 41.6212C90.2775 41.8289 90.2775 41.9847 90.1736 42.1404C90.0179 42.3481 89.7583 42.4 89.5506 42.4C78.7 43.2307 67.7456 43.3864 56.895 43.2307C54.351 43.1787 51.911 43.1268 49.367 42.7634C45.3694 42.1404 41.5276 40.9463 37.4262 41.7251C37.1147 41.777 36.8032 41.5693 36.8032 41.2578C36.7513 37.6236 36.8551 34.0414 37.0108 30.4591C37.0108 30.3553 37.0628 30.2515 37.1147 30.1476C37.1666 30.0438 37.3223 29.8361 37.3743 29.7323Z" fill="#1B1F9B"/>
<path d="M35.0899 40.7384C27.2505 38.7136 19.5668 40.1673 14.7385 47.228C9.85836 54.2887 11.4159 62.4396 15.725 69.3445C13.1291 71.0578 11.4678 73.6017 11.0524 76.6648C10.6371 79.7279 11.0524 82.6352 11.7793 85.5945C13.4925 92.136 15.5692 98.4179 21.6954 102C26.6794 104.908 32.546 103.817 38.1011 103.921C43.5004 112.332 51.5995 118.146 61.9309 117.16C72.2623 116.173 78.5962 109.58 84.6705 101.948C88.0451 104.129 91.9388 104.285 95.8845 104.077C99.4667 103.869 102.997 103.713 105.904 101.481C107.67 100.131 108.604 98.2622 109.591 96.3932C112.238 91.0977 114.886 85.906 113.692 79.8317C112.706 74.9515 109.019 71.7846 105.956 68.2024C110.006 66.5929 112.238 62.9588 112.083 58.5977C111.927 54.2367 110.006 50.7064 107.618 47.1761C104.503 42.6074 100.661 38.8174 94.95 39.0251C91.835 39.1289 89.343 40.998 86.4875 41.6729C84.1513 42.192 81.815 42.3997 79.4788 42.5035C69.355 42.815 59.387 43.1785 49.3151 42.0882C45.0579 41.621 41.0084 40.6345 36.6993 40.7384C36.3359 40.5826 35.4014 40.323 35.0899 40.7384Z" fill="#F4B0BE"/>
<path d="M46.8773 74.4846C48.279 74.0692 53.0553 74.6922 55.8069 75.7825C56.6376 76.094 57.4164 76.4574 58.247 76.6132C60.3237 77.0804 62.5561 76.5093 64.5809 75.7306C66.6056 75.0037 68.6304 74.1212 70.759 73.9654C72.1607 73.8616 73.6144 74.1211 74.9642 74.5365C76.0026 74.848 77.0409 75.2633 77.8197 76.0421C78.5465 76.8208 78.858 77.9111 79.0137 78.9494C79.2733 80.7146 79.1695 82.4798 78.7022 84.193C78.4946 84.9718 78.235 85.7505 77.7677 86.3735C77.0928 87.2561 76.0545 87.8272 75.0681 88.3464C73.5625 89.1251 72.005 89.9558 70.3436 90.423C68.7342 90.8903 67.021 90.9422 65.3596 91.2537C63.854 91.5133 62.4004 91.8767 60.8948 91.8248C59.545 91.7729 58.247 91.3056 56.8972 90.9941C54.1975 90.3192 51.3421 90.1634 48.6424 89.3847C45.9427 88.6059 43.295 86.9965 42.2047 84.4007C41.0107 81.5972 42.049 78.2226 44.0737 75.9902C44.9044 75.1076 44.6448 75.1076 46.8773 74.4846Z" fill="#1B1F9B"/>
<path d="M56.2215 78.638C53.8853 77.1844 50.8222 76.9248 48.2263 77.7555C47.2918 78.015 46.4092 78.4823 45.8382 79.261C45.2152 80.1436 45.0594 81.2858 45.319 82.3241C45.5786 83.3625 46.2535 84.2451 46.9803 85.0238C49.5243 87.5158 53.3142 88.2427 56.8964 88.6061C58.5578 88.7618 60.1672 88.9176 61.8285 88.8137C63.2822 88.7099 64.684 88.4503 66.0857 88.1907C67.5394 87.9311 68.9931 87.6197 70.291 86.9447C71.0697 86.5294 71.7966 86.0102 72.5753 85.6468C73.8213 85.0757 75.4307 84.8681 76.2095 83.7259C76.7287 82.8952 76.6767 81.8569 76.521 80.9224C76.3652 80.1955 76.1576 79.4168 75.6384 78.8457C74.652 77.7555 72.9906 77.5478 71.5889 77.8074C57.6233 80.2994 56.2215 78.638 56.2215 78.638Z" fill="white"/>
<path d="M48.7966 67.1129C49.783 67.3725 50.7175 67.8397 51.652 68.1512C52.8461 68.5665 54.1959 68.7742 55.39 68.307C55.9092 68.0993 56.4283 67.7359 56.8437 67.3725C57.3109 67.009 57.7262 66.6456 57.9858 66.1265C58.505 65.2439 58.4012 64.1536 58.2973 63.1153C58.1935 62.2327 58.0378 61.2982 57.5186 60.5714C57.1552 60.0522 56.636 59.6369 56.1168 59.2734C54.6632 58.287 53.0537 57.6121 51.3405 57.1968C50.6656 57.041 49.9906 56.8853 49.3157 56.7814C46.9276 56.418 44.4356 56.5218 42.0474 56.8853C40.438 57.0929 38.8285 57.4564 37.4268 58.1832C36.4923 58.7024 35.6616 59.3773 34.8309 60.156C34.0522 60.8829 33.2215 61.7654 33.0139 62.8038C32.8581 63.5825 33.0139 64.3613 33.1696 65.0881C33.3254 65.763 33.533 66.438 33.8964 67.009C34.4156 67.7359 35.1944 68.255 36.025 68.5146C36.8557 68.7742 37.7902 68.878 38.6728 68.93C39.6073 68.9819 40.6975 69.0338 41.4244 68.4627L41.7359 68.255C43.6049 67.2167 45.7854 66.5418 47.914 66.9052C48.2774 67.009 48.537 67.061 48.7966 67.1129Z" fill="white"/>
<path d="M79.9472 66.5932C80.9336 66.8528 81.8681 67.3201 82.8026 67.6316C83.9967 68.0469 85.3465 68.2546 86.5406 67.7873C87.0598 67.5796 87.579 67.2162 87.9943 66.8528C88.4615 66.4894 88.8769 66.126 89.1365 65.6068C89.6556 64.7242 89.5518 63.634 89.448 62.5956C89.3441 61.713 89.1884 60.7785 88.6692 60.0517C88.3058 59.5325 87.7866 59.1172 87.2675 58.7538C85.8138 57.7674 84.2044 57.0925 82.4911 56.6771C81.8162 56.5214 81.1413 56.3656 80.4664 56.2618C78.0782 55.8984 75.5862 56.0022 73.198 56.3656C71.5886 56.5733 69.9792 56.9367 68.5774 57.6635C67.6429 58.1827 66.8122 58.8576 65.9816 59.6364C65.2028 60.3632 64.3722 61.2458 64.1645 62.2841C64.0087 63.0629 64.1645 63.8416 64.3202 64.5685C64.476 65.2434 64.6837 65.9183 65.0471 66.4894C65.5662 67.2162 66.345 67.7354 67.1757 67.995C68.0063 68.2546 68.9408 68.3584 69.8234 68.4103C70.7579 68.4622 71.8482 68.5141 72.575 67.9431L72.8865 67.7354C74.7555 66.6971 76.936 66.0221 79.0646 66.3856C79.428 66.4894 79.6876 66.5413 79.9472 66.5932Z" fill="white"/>
<path d="M79.9472 66.5932C80.9336 66.8528 81.8681 67.3201 82.8026 67.6316C83.9967 68.0469 85.3465 68.2546 86.5406 67.7873C87.0598 67.5796 87.579 67.2162 87.9943 66.8528C88.4615 66.4894 88.8769 66.126 89.1365 65.6068C89.6556 64.7242 89.5518 63.634 89.448 62.5956C89.3441 61.713 89.1884 60.7785 88.6692 60.0517C88.3058 59.5325 87.7866 59.1172 87.2675 58.7538C85.8138 57.7674 84.2044 57.0925 82.4911 56.6771C81.8162 56.5214 81.1413 56.3656 80.4664 56.2618C78.0782 55.8984 75.5862 56.0022 73.198 56.3656C71.5886 56.5733 69.9792 56.9367 68.5774 57.6635C67.6429 58.1827 66.8122 58.8576 65.9816 59.6364C65.2028 60.3632 64.3722 61.2458 64.1645 62.2841C64.0087 63.0629 64.1645 63.8416 64.3202 64.5685C64.476 65.2434 64.6837 65.9183 65.0471 66.4894C65.5662 67.2162 66.345 67.7354 67.1757 67.995C68.0063 68.2546 68.9408 68.3584 69.8234 68.4103C70.7579 68.4622 71.8482 68.5141 72.575 67.9431L72.8865 67.7354C74.7555 66.6971 76.936 66.0221 79.0646 66.3856C79.428 66.4894 79.6876 66.5413 79.9472 66.5932Z" fill="white"/>
<path d="M51.2365 64.776C52.3787 63.3742 52.0152 61.7648 51.9633 60.363C51.8595 58.3383 48.6406 57.0403 46.7197 56.4693C45.941 56.2097 42.826 56.4693 41.7876 57.1961C40.7493 57.9229 40.1263 59.8439 39.9705 60.1554C38.8803 62.4916 40.6455 65.5547 41.7876 67.1122C42.774 68.4101 44.7469 69.0331 46.564 68.6178C48.3811 68.2025 50.2501 66.4892 51.2365 64.776Z" fill="#1B1F9B"/>
<path d="M82.3871 64.2567C83.5293 62.8549 83.1659 61.2455 83.114 59.8437C83.0101 57.819 79.7913 56.5211 77.8704 55.95C77.0916 55.6904 73.9766 55.95 72.9383 56.6768C71.8999 57.4037 71.2769 59.3246 71.1212 59.6361C70.0309 61.9723 71.7961 65.0354 72.9383 66.5929C73.9247 67.8908 75.8975 68.5138 77.7146 68.0985C79.5317 67.6832 81.4007 65.9699 82.3871 64.2567Z" fill="#1B1F9B"/>
</g>
</svg>
