<svg width="115" height="115" viewBox="0 0 115 115" fill="none" xmlns="http://www.w3.org/2000/svg">
<path d="M46.0709 0C51.4623 0.552318 56.9918 0.828443 62.3831 1.51884C68.6039 2.34732 74.5481 4.00427 80.2159 6.35162C81.8748 7.04202 83.5336 7.3182 85.0543 8.14668C89.7544 10.3559 93.625 13.6699 97.3575 17.1218C101.505 20.9881 104.961 25.5447 108.278 30.2394C110.214 33.1391 110.905 36.591 111.873 39.9049C112.702 43.0808 112.84 46.3947 113.117 49.5705C113.255 53.1606 113.946 56.7506 113.946 60.3407C113.946 63.3784 113.531 66.2781 113.255 69.3158C113.255 69.8682 113.117 70.2824 112.978 70.8347C112.564 74.0106 112.149 77.0483 110.49 79.948C109.108 82.5715 108.14 85.4712 106.896 88.2327C105.652 90.7182 103.855 92.7894 102.058 94.9986C99.7075 97.7602 97.4957 100.522 94.5927 102.731C93.9015 103.283 93.0721 103.836 92.3809 104.25C91.1367 105.078 89.6161 105.631 88.5102 106.597C86.7131 108.116 84.6395 108.945 82.5659 109.773C80.4924 110.602 78.4188 111.568 76.3452 112.535C73.7187 113.777 71.0921 114.882 68.1891 114.744C61.2772 114.468 54.3653 113.777 47.4533 113.087C44.965 112.811 42.4767 111.568 39.9884 111.154C35.1501 110.187 31.0029 107.564 26.8558 105.216C23.1233 103.145 19.8056 100.798 16.6261 97.8983C11.926 93.4798 7.08765 89.1993 3.63169 83.6761C2.66402 82.0191 2.11106 79.948 1.41987 78.1529C1.28163 77.8768 1.41987 77.6006 1.28163 77.4625C-0.515472 70.2824 -0.100756 62.9642 0.590437 55.646C1.00515 51.6417 1.55811 47.7755 2.52578 44.0473C3.76993 39.0765 5.70527 34.2437 7.36413 29.2728C10.1289 21.1261 15.6584 14.6364 21.6027 8.5609C24.091 5.93739 27.2705 4.14237 30.8647 2.6235C35.7031 0.690389 40.8179 0.276159 46.0709 0Z" fill="white"/>
<mask id="mask0" mask-type="alpha" maskUnits="userSpaceOnUse" x="0" y="0" width="115" height="115">
<path d="M46.675 0.166016C52.0663 0.718333 57.5958 0.994458 62.9871 1.68486C69.2079 2.51333 75.1521 4.17028 80.8199 6.51763C82.4788 7.20803 84.1376 7.48422 85.6583 8.31269C90.3584 10.522 94.229 13.8359 97.9615 17.2879C102.109 21.1541 105.565 25.7107 108.882 30.4054C110.818 33.3051 111.509 36.7571 112.477 40.071C113.306 43.2468 113.444 46.5607 113.721 49.7365C113.859 53.3266 114.55 56.9166 114.55 60.5067C114.55 63.5444 114.135 66.4441 113.859 69.4819C113.859 70.0342 113.721 70.4484 113.582 71.0007C113.168 74.1766 112.753 77.2143 111.094 80.114C109.712 82.7375 108.744 85.6372 107.5 88.3988C106.256 90.8842 104.459 92.9554 102.662 95.1646C100.312 97.9262 98.0997 100.688 95.1967 102.897C94.5055 103.449 93.6761 104.002 92.9849 104.416C91.7407 105.244 90.2201 105.797 89.1142 106.763C87.3171 108.282 85.2435 109.111 83.17 109.939C81.0964 110.768 79.0228 111.734 76.9492 112.701C74.3227 113.943 71.6962 115.048 68.7931 114.91C61.8812 114.634 54.9693 113.943 48.0573 113.253C45.569 112.977 43.0807 111.734 40.5925 111.32C35.7541 110.353 31.6069 107.73 27.4598 105.383C23.7273 103.311 20.4096 100.964 17.2301 98.0643C12.53 93.6458 7.69166 89.3653 4.23569 83.8421C3.26802 82.1852 2.71507 80.114 2.02387 78.3189C1.88563 78.0428 2.02387 77.7666 1.88563 77.6285C0.0885319 70.4484 0.503248 63.1302 1.19444 55.812C1.60916 51.8077 2.16211 47.9415 3.12978 44.2133C4.37393 39.2425 6.30927 34.4097 7.96813 29.4388C10.7329 21.2921 16.2625 14.8024 22.2067 8.72691C24.695 6.10341 27.8745 4.30839 31.4687 2.78952C36.3071 0.856404 41.4219 0.442174 46.675 0.166016Z" fill="white"/>
</mask>
<g mask="url(#mask0)">
<path d="M84.1128 47.4229C96.1671 47.623 96.6173 42.7713 103.92 39.6202C106.421 38.5698 106.071 36.8192 106.271 36.319C107.521 33.568 106.571 31.8674 105.821 29.6166C104.82 26.4155 103.42 23.7145 101.219 21.2136C99.0181 18.7127 96.0671 17.4123 92.7159 17.1122C91.8656 9.30942 89.0646 2.25692 81.9621 -1.54443C74.8096 -5.34578 67.2069 -4.8456 61.4548 0.556315C58.7038 -3.34507 54.8025 -4.94563 50.0008 -5.89597C45.1991 -6.84631 40.1973 -5.89597 35.7457 -3.64517C32.1944 -1.84454 29.1434 0.756386 27.1927 4.30764C25.192 7.90892 25.1419 11.6602 26.5424 15.4116C22.391 17.0622 19.0898 19.563 16.4889 23.3144C14.1881 26.6656 12.8376 30.5169 13.6379 34.5183C14.2381 37.6194 16.3888 40.1203 18.1395 42.3211C19.69 44.3218 21.4406 46.2725 23.4414 47.1228C28.193 49.2236 31.5942 48.3733 36.646 46.9728C50.601 46.7727 72.0586 47.2729 84.1128 47.4229Z" fill="#F9DB4E"/>
<path d="M35.7467 45.9225C35.7967 45.8225 35.8467 45.7725 35.9468 45.7725C38.7477 44.8721 41.3486 46.0726 44.0496 46.4227C48.2511 46.9229 52.2025 45.7725 56.404 45.6224C63.7066 45.3223 70.9091 46.8228 78.2117 46.6728C80.8126 46.6228 83.3635 46.2726 85.9645 46.8728C86.2146 46.9229 86.3646 47.0729 86.3646 47.323C86.4146 50.6742 86.5647 54.0754 86.7147 57.3766C86.7147 57.5766 86.7147 57.7267 86.6147 57.8767C86.4646 58.0768 86.2145 58.1268 86.0145 58.1268C75.5608 58.9271 65.007 59.0772 54.5533 58.9271C52.1024 58.8771 49.7516 58.8271 47.3007 58.477C43.4494 57.8767 39.7481 56.7263 35.7967 57.4766C35.4966 57.5266 35.1965 57.3265 35.1965 57.0264C35.1465 53.5252 35.2465 50.074 35.3965 46.6228C35.3965 46.5227 35.4466 46.4227 35.4966 46.3226C35.5466 46.2226 35.6966 46.0225 35.7467 45.9225Z" fill="#1B1F9B"/>
<path d="M33.5457 56.5262C25.993 54.5755 18.5904 55.976 13.9388 62.7785C9.23708 69.5809 10.7376 77.4336 14.8891 84.086C12.3882 85.7366 10.7876 88.1875 10.3875 91.1385C9.98733 94.0895 10.3875 96.8905 11.0877 99.7415C12.7383 106.044 14.739 112.096 20.6411 115.547C25.4428 118.348 31.0948 117.298 36.4467 117.398C41.6486 125.501 49.4513 131.103 59.4048 130.152C69.3584 129.202 75.4605 122.85 81.3126 115.497C84.5638 117.598 88.3151 117.748 92.1165 117.548C95.5677 117.348 98.9689 117.198 101.77 115.047C103.47 113.747 104.371 111.946 105.321 110.145C107.872 105.043 110.423 100.042 109.273 94.1896C108.322 89.4879 104.771 86.4368 101.82 82.9856C105.721 81.4351 107.872 77.9338 107.722 73.7323C107.572 69.5308 105.721 66.1296 103.42 62.7284C100.419 58.3269 96.7181 54.6756 91.2161 54.8756C88.2151 54.9757 85.8142 56.7763 83.0632 57.4266C80.8124 57.9267 78.5616 58.1268 76.3108 58.2268C66.5574 58.5269 56.954 58.8771 47.2505 57.8267C43.1491 57.3765 39.2477 56.4262 35.0962 56.5262C34.7461 56.3762 33.8458 56.1261 33.5457 56.5262Z" fill="#F9DB4E"/>
<path d="M44.899 89.0376C46.2495 88.6375 50.8511 89.2377 53.5021 90.2881C54.3023 90.5882 55.0526 90.9383 55.8529 91.0883C57.8536 91.5385 60.0044 90.9883 61.9551 90.238C63.9058 89.4878 65.8564 88.6875 67.9072 88.5374C69.2576 88.4374 70.6581 88.6875 71.9586 89.0876C72.959 89.3877 73.9593 89.7879 74.7096 90.5381C75.4098 91.2884 75.7099 92.3388 75.86 93.3391C76.1101 95.0397 76.01 96.7403 75.5599 98.3909C75.3598 99.1412 75.1097 99.8915 74.6595 100.492C74.0093 101.342 73.009 101.892 72.0586 102.392C70.6081 103.143 69.1076 103.943 67.507 104.393C65.9565 104.843 64.3059 104.893 62.7053 105.193C61.2548 105.443 59.8543 105.794 58.4038 105.744C57.1033 105.694 55.8529 105.243 54.5524 104.943C51.9515 104.293 49.2005 104.143 46.5996 103.393C43.9987 102.642 41.4478 101.092 40.3974 98.591C39.247 95.89 40.2474 92.6389 42.1981 90.4881C42.9983 89.6378 42.7482 89.6378 44.899 89.0376Z" fill="#1B1F9B"/>
<path d="M53.9027 93.0392C51.6519 91.6387 48.7008 91.3886 46.2 92.1889C45.2996 92.4389 44.4493 92.8891 43.8991 93.6394C43.2989 94.4897 43.1489 95.5901 43.3989 96.5904C43.649 97.5908 44.2993 98.4411 44.9995 99.1913C47.4504 101.592 51.1017 102.292 54.5529 102.643C56.1535 102.793 57.704 102.943 59.3046 102.843C60.7051 102.743 62.0556 102.493 63.406 102.242C64.8065 101.992 66.207 101.692 67.4575 101.042C68.2078 100.642 68.908 100.142 69.6583 99.7916C70.8587 99.2414 72.4092 99.0413 73.1595 97.9409C73.6597 97.1406 73.6097 96.1403 73.4596 95.2399C73.3096 94.5397 73.1095 93.7894 72.6093 93.2392C71.659 92.1889 70.0584 91.9888 68.7079 92.2389C55.2532 94.6397 53.9027 93.0392 53.9027 93.0392Z" fill="white"/>
<path d="M46.7497 81.9346C47.7001 82.1847 48.6004 82.6348 49.5007 82.9349C50.6511 83.3351 51.9516 83.5351 53.102 83.085C53.6022 82.8849 54.1023 82.5348 54.5025 82.1847C54.9526 81.8345 55.3528 81.4844 55.6029 80.9842C56.103 80.1339 56.003 79.0836 55.903 78.0832C55.8029 77.2329 55.6529 76.3326 55.1527 75.6323C54.8026 75.1322 54.3024 74.732 53.8022 74.3819C52.4017 73.4316 50.8512 72.7813 49.2006 72.3812C48.5504 72.2311 47.9001 72.0811 47.2499 71.981C44.9491 71.6309 42.5482 71.731 40.2474 72.0811C38.6969 72.2812 37.1463 72.6313 35.7958 73.3315C34.8955 73.8317 34.0952 74.4819 33.2949 75.2322C32.5447 75.9324 31.7444 76.7828 31.5443 77.7831C31.3943 78.5334 31.5444 79.2836 31.6944 79.9839C31.8445 80.6341 32.0445 81.2843 32.3946 81.8345C32.8948 82.5348 33.6451 83.035 34.4454 83.2851C35.2457 83.5351 36.146 83.6352 36.9963 83.6852C37.8966 83.7352 38.947 83.7852 39.6472 83.235L39.9473 83.035C41.748 82.0346 43.8487 81.3844 45.8994 81.7345C46.2495 81.8345 46.4996 81.8846 46.7497 81.9346Z" fill="white"/>
<path d="M76.76 81.4351C77.7103 81.6851 78.6106 82.1353 79.511 82.4354C80.6614 82.8356 81.9618 83.0356 83.1122 82.5855C83.6124 82.3854 84.1126 82.0353 84.5127 81.6851C84.9629 81.335 85.363 80.9849 85.6131 80.4847C86.1133 79.6344 86.0133 78.5841 85.9132 77.5837C85.8132 76.7334 85.6631 75.8331 85.163 75.1328C84.8128 74.6327 84.3126 74.2325 83.8125 73.8824C82.412 72.9321 80.8614 72.2818 79.2109 71.8817C78.5606 71.7316 77.9104 71.5816 77.2602 71.4815C74.9593 71.1314 72.5585 71.2314 70.2577 71.5816C68.7071 71.7816 67.1566 72.1318 65.8061 72.832C64.9058 73.3322 64.1055 73.9824 63.3052 74.7327C62.5549 75.4329 61.7547 76.2832 61.5546 77.2836C61.4045 78.0339 61.5546 78.7841 61.7047 79.4844C61.8547 80.1346 62.0548 80.7848 62.4049 81.335C62.9051 82.0353 63.6553 82.5355 64.4556 82.7855C65.2559 83.0356 66.1562 83.1357 67.0065 83.1857C67.9068 83.2357 68.9572 83.2857 69.6575 82.7355L69.9576 82.5355C71.7582 81.5351 73.8589 80.8849 75.9097 81.235C76.2598 81.335 76.5099 81.385 76.76 81.4351Z" fill="white"/>
<path d="M76.76 81.4351C77.7103 81.6851 78.6106 82.1353 79.511 82.4354C80.6614 82.8356 81.9618 83.0356 83.1122 82.5855C83.6124 82.3854 84.1126 82.0353 84.5127 81.6851C84.9629 81.335 85.363 80.9849 85.6131 80.4847C86.1133 79.6344 86.0133 78.5841 85.9132 77.5837C85.8132 76.7334 85.6631 75.8331 85.163 75.1328C84.8128 74.6327 84.3126 74.2325 83.8125 73.8824C82.412 72.9321 80.8614 72.2818 79.2109 71.8817C78.5606 71.7316 77.9104 71.5816 77.2602 71.4815C74.9593 71.1314 72.5585 71.2314 70.2577 71.5816C68.7071 71.7816 67.1566 72.1318 65.8061 72.832C64.9058 73.3322 64.1055 73.9824 63.3052 74.7327C62.5549 75.4329 61.7547 76.2832 61.5546 77.2836C61.4045 78.0339 61.5546 78.7841 61.7047 79.4844C61.8547 80.1346 62.0548 80.7848 62.4049 81.335C62.9051 82.0353 63.6553 82.5355 64.4556 82.7855C65.2559 83.0356 66.1562 83.1357 67.0065 83.1857C67.9068 83.2357 68.9572 83.2857 69.6575 82.7355L69.9576 82.5355C71.7582 81.5351 73.8589 80.8849 75.9097 81.235C76.2598 81.335 76.5099 81.385 76.76 81.4351Z" fill="white"/>
<path d="M49.1011 79.6845C50.2015 78.334 49.8513 76.7834 49.8013 75.4329C49.7013 73.4823 46.6002 72.2318 44.7495 71.6816C43.9993 71.4315 40.9982 71.6816 39.9978 72.3819C38.9975 73.0821 38.3973 74.9328 38.2472 75.2329C37.1968 77.4837 38.8974 80.4347 39.9978 81.9352C40.9482 83.1857 42.8488 83.7859 44.5995 83.3858C46.3501 82.9856 48.1507 81.335 49.1011 79.6845Z" fill="#1B1F9B"/>
<path d="M79.1113 79.1842C80.2117 77.8337 79.8616 76.2832 79.8115 74.9327C79.7115 72.982 76.6104 71.7316 74.7598 71.1814C74.0095 70.9313 71.0084 71.1814 70.0081 71.8816C69.0077 72.5819 68.4075 74.4325 68.2575 74.7326C67.2071 76.9834 68.9077 79.9345 70.0081 81.435C70.9584 82.6854 72.8591 83.2857 74.6097 82.8855C76.3603 82.4854 78.161 80.8348 79.1113 79.1842Z" fill="#1B1F9B"/>
</g>
</svg>
