<svg width="107" height="105" viewBox="0 0 107 105" fill="none" xmlns="http://www.w3.org/2000/svg">
<path d="M4.58354 40.2415C5.18939 34.2228 7.16266 28.6652 10.2707 23.5498C12.3072 20.0978 14.6831 16.79 16.8264 13.4633C18.5643 10.8039 21.1385 9.37926 23.9265 8.20538C25.3786 7.62316 26.7239 6.91557 28.176 6.33336C30.2285 5.56651 32.1835 4.55837 34.2172 4.02338C38.2845 2.9534 42.4211 2.47249 46.5704 3.27622C49.1103 3.71587 51.7759 4.04903 54.3346 4.25683C56.777 4.45517 59.0655 5.10778 61.3445 5.87632C63.8561 6.66374 66.3866 7.21932 68.9076 7.89082C72.2334 8.74436 75.4052 10.0522 78.5676 11.4759C81.5068 12.7648 84.05 14.605 86.5838 16.5611C88.6806 18.1317 90.3909 20.1377 92.2362 21.9212C95.2668 24.9679 96.9522 28.7222 98.7538 32.4859C100.565 36.1337 102.357 40.0134 102.716 44.2434C103.154 48.9466 103.242 53.6214 101.926 58.2988C101.436 60.0094 101.169 61.8548 100.785 63.6907C99.8933 67.4691 98.671 70.9872 96.9741 74.5835C95.4311 77.7256 93.5581 80.6074 91.8013 83.4987C89.7743 86.8348 87.0871 89.6506 83.7586 91.7141C82.4039 92.5376 81.2725 93.4959 80.1316 94.5702C78.8556 95.8669 77.1896 96.1983 75.6212 96.7711C72.9683 97.7226 70.1898 98.7805 67.4394 99.4907C62.5391 100.726 57.6388 101.962 52.471 100.726C50.1732 100.189 48.155 99.0915 45.8572 98.5548C44.2477 98.1907 42.6665 97.4789 40.9408 97.1054C37.615 96.2518 34.7041 94.6151 31.6768 92.969C30.5514 92.4108 29.3003 91.9592 28.1655 91.5169C25.6633 90.6136 23.6828 89.0524 21.5859 87.4819C17.8481 84.4944 14.874 80.7522 12.5097 76.7094C10.5446 73.5158 9.44084 69.8088 7.96928 66.3052C6.60462 62.927 5.6077 59.3453 5.20171 55.695C4.9846 54.0436 5.24212 52.3142 5.25762 50.6818C5.21663 49.7449 5.04992 48.9146 5.00893 47.9777C4.76966 45.1577 4.73475 42.7043 4.58354 40.2415Z" fill="white"/>
<g clip-path="url(#clip0)">
<path d="M78.3156 35.3919C79.5491 35.7278 80.8511 36.1309 81.9475 36.7355C83.0439 37.3401 84.1403 38.2134 84.7571 39.2883C85.5794 40.6991 85.6479 42.3114 85.7164 43.9237C85.7164 44.7299 85.785 45.536 85.7164 46.3422C85.7164 47.014 85.5794 47.753 85.3738 48.4248C85.1682 49.0294 84.8256 49.4997 84.4144 50.0371C83.2495 51.515 81.5363 52.5899 79.7546 53.4633C79.1379 53.732 78.4526 54.0007 77.7674 54.1351C76.1913 54.3366 74.6837 53.5976 73.2446 52.8586C74.1355 52.5227 75.1634 52.7243 76.1227 52.6571C77.973 52.5227 79.5491 51.0448 80.2343 49.3653C80.9881 47.753 81.0566 45.8719 81.1252 44.1253C81.1937 41.7068 78.7267 39.557 78.8638 37.0714" fill="#E56464"/>
<path d="M78.1792 35.3919C77.1513 35.2575 76.0548 35.1903 75.0269 35.2575C74.4102 35.2575 73.7249 35.3919 73.1767 35.5934C72.7656 35.795 72.4229 36.0637 72.0118 36.2652C71.3265 36.8027 70.6412 37.3401 70.1616 38.0119C69.956 38.3478 69.7504 38.7509 69.6134 39.154C69.3392 39.7586 69.0651 40.3632 68.791 40.9678C68.5855 41.5052 68.3113 42.0427 68.1058 42.5801C67.7631 43.7222 67.6946 44.9986 67.7631 46.2078C67.8317 47.1484 67.9002 48.1561 68.3799 49.0294C68.9281 50.1043 70.0245 50.9104 71.0524 51.5822C72.2174 52.3884 73.3823 53.1274 74.7528 53.4633C75.5066 53.5976 76.2604 53.5976 77.0142 53.5976C77.4254 53.5976 77.9051 53.5304 78.3162 53.3961C79.07 53.1274 79.6182 52.5899 80.1664 51.9853C81.7425 50.1043 82.3593 47.5514 82.5649 45.133C82.7704 43.2519 82.7019 41.3709 82.0852 39.6242C81.4684 37.8775 80.235 36.2652 78.5218 35.4591" fill="#FBC2C3"/>
<path d="M71.4633 42.1099C72.7653 42.1099 72.7653 40.0945 71.4633 40.0945C70.1613 40.0945 70.1613 42.1099 71.4633 42.1099Z" fill="#E56464"/>
<path d="M75.7119 45.0658C77.0139 45.0658 77.0139 43.0504 75.7119 43.0504C74.4099 43.0504 74.4099 45.0658 75.7119 45.0658Z" fill="#E56464"/>
<path d="M79.481 42.2442C80.783 42.2442 80.783 40.2288 79.481 40.2288C78.1105 40.2288 78.1105 42.2442 79.481 42.2442Z" fill="#E56464"/>
<path d="M78.9327 50.5745C80.2347 50.5745 80.2347 48.5591 78.9327 48.5591C77.5622 48.5591 77.5622 50.5745 78.9327 50.5745Z" fill="#E56464"/>
<path d="M73.1074 50.1715C74.4094 50.1715 74.4094 48.1561 73.1074 48.1561C71.8054 48.1561 71.8054 50.1715 73.1074 50.1715Z" fill="#E56464"/>
<path d="M53.6465 19C54.9485 19 56.2505 19 57.5525 19.2015C58.8545 19.4031 60.088 19.9405 60.9788 20.8139C62.1438 21.8887 62.7605 23.4339 63.3087 24.979C63.5828 25.718 63.8569 26.457 64.0625 27.2631C64.2681 27.9349 64.4051 28.6739 64.3366 29.3457C64.3366 29.9503 64.131 30.5549 63.9254 31.1595C63.2402 32.9062 61.9382 34.4514 60.4991 35.795C59.9509 36.2652 59.4027 36.7355 58.786 37.0042C57.3469 37.676 55.6338 37.4073 54.1262 37.1386C54.88 36.5339 55.9079 36.4668 56.7987 36.1309C58.5119 35.3919 59.5398 33.578 59.7453 31.8313C59.9509 30.0847 59.4712 28.2708 58.9915 26.5913C58.3748 24.24 55.2911 22.8964 54.6744 20.5451" fill="#E56464"/>
<path d="M53.5091 19.0672C52.4812 19.2687 51.4533 19.5374 50.4939 19.8733C49.8772 20.0749 49.329 20.3436 48.8493 20.7467C48.5067 21.0154 48.2325 21.4185 47.9584 21.7544C47.4788 22.4262 46.9991 23.1651 46.725 23.9713C46.5879 24.3744 46.5879 24.7775 46.5194 25.1805C46.4509 25.8523 46.3823 26.5241 46.3138 27.1959C46.2453 27.8006 46.1768 28.338 46.1768 28.9426C46.1768 30.1519 46.5194 31.3611 46.9305 32.5031C47.2732 33.4437 47.6843 34.317 48.3696 34.9888C49.2604 35.8621 50.4939 36.2652 51.7274 36.6683C53.0294 37.0714 54.3999 37.4745 55.7705 37.3401C56.5242 37.2729 57.278 37.0714 57.9633 36.8027C58.3745 36.6683 58.7856 36.4668 59.1282 36.198C59.745 35.7278 60.1561 35.056 60.4302 34.317C61.3896 32.0329 61.184 29.4801 60.6358 27.0616C60.2247 25.2477 59.6079 23.4339 58.5115 21.9559C57.4151 20.478 55.7705 19.2687 53.8517 19" fill="#FBC2C3"/>
<path d="M48.9185 27.4647C50.2205 27.4647 50.2205 25.4493 48.9185 25.4493C47.548 25.4493 47.548 27.4647 48.9185 27.4647Z" fill="#E56464"/>
<path d="M53.852 29.0098C55.154 29.0098 55.154 26.9944 53.852 26.9944C52.55 26.9944 52.55 29.0098 53.852 29.0098Z" fill="#E56464"/>
<path d="M56.5248 25.2477C57.8268 25.2477 57.8268 23.2323 56.5248 23.2323C55.2228 23.2323 55.2228 25.2477 56.5248 25.2477Z" fill="#E56464"/>
<path d="M58.5806 33.3765C59.8826 33.3765 59.8826 31.3611 58.5806 31.3611C57.2101 31.3611 57.2101 33.3765 58.5806 33.3765Z" fill="#E56464"/>
<path d="M52.8925 34.6529C54.1945 34.6529 54.1945 32.6375 52.8925 32.6375C51.5905 32.6375 51.5905 34.6529 52.8925 34.6529Z" fill="#E56464"/>
<path d="M33.0885 35.1232C34.1849 35.7278 35.3498 36.3996 36.3092 37.2729C37.2686 38.1463 38.0909 39.2211 38.4335 40.3632C38.8447 41.9083 38.5706 43.5206 38.2279 45.0658C38.0909 45.8719 37.8853 46.6109 37.6797 47.4171C37.4741 48.0889 37.2 48.7607 36.8574 49.3653C36.5148 49.9027 36.0351 50.3058 35.5554 50.7089C34.0478 51.8509 32.1291 52.5227 30.2103 52.9258C29.5251 53.0602 28.8398 53.1945 28.086 53.0602C26.5099 52.8586 25.2079 51.7838 24.043 50.7761C25.0023 50.6417 25.8932 51.112 26.8525 51.2463C28.7028 51.515 30.553 50.5073 31.6494 49.0294C32.7458 47.6186 33.294 45.8719 33.7737 44.1253C34.459 41.774 32.6088 39.0868 33.294 36.7355" fill="#E56464"/>
<path d="M32.9518 35.1231C31.9924 34.7201 30.9646 34.4513 29.9367 34.2498C29.3199 34.1154 28.6347 34.0483 28.0179 34.1826C27.6068 34.2498 27.1271 34.4513 26.7159 34.5857C25.8936 34.9216 25.1398 35.3247 24.5231 35.8621C24.1804 36.1308 23.9749 36.4667 23.7008 36.8026C23.2896 37.3401 22.8784 37.8775 22.4673 38.415C22.1247 38.8852 21.7135 39.3555 21.4394 39.8257C20.8226 40.9006 20.48 42.0427 20.2059 43.2519C20.0003 44.1924 19.8633 45.2001 20.1374 46.0735C20.4115 47.2827 21.3023 48.2904 22.1247 49.1637C23.0155 50.1714 23.9749 51.2463 25.2083 51.8509C25.8936 52.1868 26.6474 52.3884 27.4012 52.5227C27.8123 52.5899 28.292 52.6571 28.7032 52.5899C29.457 52.5227 30.2108 52.1196 30.8275 51.6494C32.8148 50.1714 34.0482 47.8873 34.8706 45.536C35.4873 43.7893 35.8985 41.9083 35.7614 40.0945C35.6243 38.2134 34.802 36.3996 33.363 35.2575" fill="#FBC2C3"/>
<path d="M25.1392 40.0945C26.4412 40.0945 26.4412 38.0791 25.1392 38.0791C23.7687 38.0791 23.7687 40.0945 25.1392 40.0945Z" fill="#E56464"/>
<path d="M28.4975 43.9909C29.7995 43.9909 29.7995 41.9755 28.4975 41.9755C27.1955 41.9755 27.1955 43.9909 28.4975 43.9909Z" fill="#E56464"/>
<path d="M32.8139 42.0427C34.1159 42.0427 34.1159 40.0273 32.8139 40.0273C31.5119 40.0273 31.5119 42.0427 32.8139 42.0427Z" fill="#E56464"/>
<path d="M30.2789 50.0371C31.5809 50.0371 31.5809 48.0217 30.2789 48.0217C28.9083 48.0217 28.9083 50.0371 30.2789 50.0371Z" fill="#E56464"/>
<path d="M24.7289 48.2904C26.0309 48.2904 26.0309 46.275 24.7289 46.275C23.4269 46.275 23.4269 48.2904 24.7289 48.2904Z" fill="#E56464"/>
<path d="M55.8391 46.9468C57.0725 47.3499 58.306 47.8201 59.4024 48.4247C60.4989 49.0965 61.5268 49.9699 62.075 51.0448C62.8288 52.4555 62.8288 54.135 62.8288 55.6802C62.8288 56.4863 62.8288 57.2925 62.7602 58.0986C62.6917 58.7704 62.5547 59.5094 62.2805 60.1812C62.075 60.7187 61.6638 61.2561 61.2527 61.7264C60.0192 63.1371 58.2375 64.212 56.4558 64.951C55.8391 65.2197 55.1538 65.4884 54.4 65.4884C52.8239 65.6228 51.3163 64.8166 49.9458 64.0105C50.8366 63.6746 51.8645 64.0105 52.8239 63.9433C54.6741 63.8761 56.3188 62.4653 57.0725 60.853C57.8949 59.2407 58.0319 57.4268 58.169 55.613C58.3745 53.1945 55.9761 50.9104 56.1817 48.4919" fill="#E56464"/>
<path d="M55.7018 46.8796C54.6739 46.6781 53.6461 46.6109 52.5496 46.6109C51.9329 46.6109 51.2476 46.6781 50.6994 46.8796C50.2883 47.014 49.8771 47.2827 49.5345 47.5514C48.8492 48.0217 48.1639 48.5591 47.6157 49.2309C47.3416 49.5668 47.2046 49.9699 46.999 50.3058C46.7249 50.9104 46.3823 51.515 46.1082 52.1196C45.834 52.6571 45.5599 53.1945 45.3544 53.732C44.9432 54.874 44.8062 56.0833 44.8062 57.3597C44.8062 58.3002 44.8747 59.3079 45.2858 60.1812C45.834 61.3233 46.8619 62.1294 47.8898 62.8684C48.9863 63.6746 50.1512 64.5479 51.4532 64.8838C52.207 65.0854 52.9608 65.0854 53.7146 65.0854C54.1257 65.0854 54.6054 65.0182 55.0166 64.951C55.7704 64.7495 56.3871 64.212 56.9353 63.6746C58.58 61.8607 59.3337 59.3751 59.6764 56.9566C59.9505 55.1427 60.019 53.1945 59.4708 51.4478C58.9226 49.634 57.8262 48.0217 56.113 47.1483" fill="#FBC2C3"/>
<path d="M48.7812 53.3289C50.0832 53.3289 50.0832 51.3135 48.7812 51.3135C47.4792 51.3135 47.4792 53.3289 48.7812 53.3289Z" fill="#E56464"/>
<path d="M52.9615 56.4864C54.2635 56.4864 54.2635 54.4709 52.9615 54.4709C51.591 54.4709 51.591 56.4864 52.9615 56.4864Z" fill="#E56464"/>
<path d="M56.7984 53.7992C58.1004 53.7992 58.1004 51.7838 56.7984 51.7838C55.4279 51.7838 55.4279 53.7992 56.7984 53.7992Z" fill="#E56464"/>
<path d="M55.8393 62.1294C57.1413 62.1294 57.1413 60.114 55.8393 60.114C54.5373 60.114 54.5373 62.1294 55.8393 62.1294Z" fill="#E56464"/>
<path d="M50.0834 61.4576C51.3854 61.4576 51.3854 59.4422 50.0834 59.4422C48.7814 59.4422 48.7814 61.4576 50.0834 61.4576Z" fill="#E56464"/>
<path d="M34.1848 64.6823C35.4868 64.7495 36.7888 64.951 38.0223 65.2869C39.2558 65.69 40.4207 66.2946 41.243 67.2351C42.3395 68.4443 42.7506 70.0567 43.0933 71.6018C43.2988 72.408 43.4359 73.1469 43.5729 73.9531C43.71 74.6249 43.7785 75.3639 43.6415 76.0357C43.5729 76.6403 43.2988 77.2449 43.0247 77.7823C42.1339 79.4618 40.7634 80.8726 39.1873 82.0147C38.639 82.4177 38.0223 82.8208 37.337 83.0224C35.8295 83.4926 34.1848 83.0895 32.6772 82.6865C33.4996 82.149 34.5275 82.2162 35.4183 81.9475C37.2 81.41 38.4335 79.6634 38.7761 77.9167C39.1873 76.17 38.8446 74.3562 38.5705 72.6095C38.1594 70.191 35.2812 68.5787 34.8701 66.1602" fill="#E56464"/>
<path d="M34.048 64.6823C33.0201 64.7495 31.9922 64.8838 30.9643 65.1525C30.3476 65.2869 29.7308 65.4884 29.1826 65.8915C28.84 66.1602 28.4974 66.4961 28.2233 66.832C27.675 67.4366 27.1268 68.1084 26.7842 68.9146C26.6472 69.3177 26.5101 69.7208 26.4416 70.1238C26.3045 70.7956 26.1675 71.4674 26.0304 72.0721C25.8934 72.6095 25.7563 73.2141 25.7563 73.8187C25.6193 75.028 25.8248 76.2372 26.1675 77.4464C26.373 78.387 26.7157 79.3275 27.3324 80.0665C28.1547 81.007 29.3197 81.5444 30.4846 82.0147C31.7866 82.5521 33.0886 83.0895 34.4592 83.0895C35.213 83.0895 35.9667 82.9552 36.7205 82.7536C37.1317 82.6193 37.5428 82.4849 37.954 82.2834C38.6393 81.8803 39.119 81.2757 39.4616 80.6039C40.6265 78.4541 40.6951 75.8341 40.421 73.4157C40.2154 71.6018 39.8042 69.7208 38.8448 68.1084C37.8855 66.4961 36.3779 65.1525 34.5277 64.7495" fill="#FBC2C3"/>
<path d="M28.6342 72.6095C29.9362 72.6095 29.9362 70.5941 28.6342 70.5941C27.3322 70.5941 27.3322 72.6095 28.6342 72.6095Z" fill="#E56464"/>
<path d="M33.4316 74.6921C34.7336 74.6921 34.7336 72.6767 33.4316 72.6767C32.1296 72.6767 32.1296 74.6921 33.4316 74.6921Z" fill="#E56464"/>
<path d="M36.5152 71.1987C37.8172 71.1987 37.8172 69.1833 36.5152 69.1833C35.1447 69.1833 35.1447 71.1987 36.5152 71.1987Z" fill="#E56464"/>
<path d="M37.6801 79.4618C38.9821 79.4618 38.9821 77.4464 37.6801 77.4464C36.3781 77.4464 36.3096 79.4618 37.6801 79.4618Z" fill="#E56464"/>
<path d="M31.9234 80.2008C33.2254 80.2008 33.2254 78.1854 31.9234 78.1854C30.5529 78.1854 30.5529 80.2008 31.9234 80.2008Z" fill="#E56464"/>
<path d="M78.5211 68.1084C79.6176 68.8474 80.6455 69.5864 81.5363 70.4597C82.4271 71.4003 83.1124 72.4751 83.3865 73.6844C83.7291 75.2295 83.2495 76.8418 82.8383 78.387C82.6327 79.1259 82.3586 79.9321 82.0845 80.6711C81.8104 81.3429 81.5363 82.0147 81.1251 82.5521C80.714 83.0224 80.2343 83.4254 79.7546 83.7613C78.1785 84.8362 76.1912 85.3737 74.2725 85.6424C73.5872 85.7096 72.8335 85.7767 72.1482 85.6424C70.5721 85.3737 69.3386 84.1644 68.2422 83.0895C69.2016 83.0224 70.0924 83.5598 71.0518 83.7613C72.902 84.1644 74.8207 83.2239 75.9857 81.8803C77.1506 80.5367 77.8359 78.79 78.4526 77.1777C79.2749 74.8936 77.6303 72.0721 78.4526 69.7879" fill="#E56464"/>
<path d="M78.3845 68.0413C77.4251 67.571 76.4657 67.2351 75.4378 66.9664C74.8211 66.832 74.1358 66.6977 73.5191 66.7649C73.0394 66.832 72.6283 66.9664 72.2171 67.1008C71.3948 67.3695 70.5725 67.7054 69.9557 68.2428C69.6131 68.5115 69.339 68.8474 69.0649 69.1161C68.5852 69.5864 68.174 70.1239 67.6944 70.5941C67.2832 70.9972 66.872 71.4674 66.5979 71.9377C65.9127 72.9454 65.433 74.0875 65.0904 75.2967C64.8163 76.2372 64.6107 77.1777 64.7477 78.1182C64.9533 79.3275 65.7756 80.4024 66.5294 81.3429C67.3517 82.4178 68.2426 83.5598 69.476 84.2316C70.1613 84.6347 70.8466 84.8362 71.6004 85.0378C72.0115 85.1721 72.4227 85.2393 72.9024 85.2393C73.6562 85.2393 74.4099 84.9034 75.0952 84.5003C77.2195 83.1567 78.5901 80.9398 79.5494 78.7229C80.3032 77.0434 80.8514 75.1623 80.8514 73.3485C80.8514 71.4674 80.1662 69.5864 78.7956 68.31" fill="#FBC2C3"/>
<path d="M70.2299 72.4751C71.5319 72.4751 71.5319 70.4597 70.2299 70.4597C68.9279 70.4597 68.9279 72.4751 70.2299 72.4751Z" fill="#E56464"/>
<path d="M73.3819 76.6403C74.6839 76.6403 74.6839 74.6249 73.3819 74.6249C72.0114 74.6249 72.0114 76.6403 73.3819 76.6403Z" fill="#E56464"/>
<path d="M77.7675 75.028C79.0695 75.028 79.0695 73.0126 77.7675 73.0126C76.4655 73.0126 76.4655 75.028 77.7675 75.028Z" fill="#E56464"/>
<path d="M74.6842 82.8208C75.9862 82.8208 75.9862 80.8054 74.6842 80.8054C73.3136 80.8054 73.3136 82.8208 74.6842 82.8208Z" fill="#E56464"/>
<path d="M69.2709 80.6711C70.5729 80.6711 70.5729 78.6557 69.2709 78.6557C67.9689 78.6557 67.9689 80.6711 69.2709 80.6711Z" fill="#E56464"/>
</g>
<defs>
<clipPath id="clip0">
<rect width="65.7168" height="66.7767" fill="white" transform="translate(20 19)"/>
</clipPath>
</defs>
</svg>
