<svg width="107" height="103" viewBox="0 0 107 103" fill="none" xmlns="http://www.w3.org/2000/svg">
<path d="M60.5878 4.6308C62.4265 4.78012 64.3988 4.70843 66.2188 5.08809C68.4891 5.62025 70.6257 6.37342 72.7624 7.1266C76.25 8.33727 79.4798 9.87479 82.5572 11.8637C85.4234 13.6035 88.1374 15.7948 90.3636 18.2942C93.7697 21.9328 96.5638 25.9854 99.2337 30.1438C101.078 33.0759 101.869 36.1544 102.411 39.4445C102.954 42.7346 103.363 46.2457 102.967 49.6915C102.431 54.8649 101.551 60.0102 100.335 65.0124C99.6134 68.1999 97.8763 71.073 96.4746 74.0893C96.055 74.9827 95.5298 75.7516 95.1103 76.6449C94.9673 76.9811 94.8243 77.3173 94.6907 77.5383C91.4436 81.9118 87.9948 85.9212 83.2605 88.6668C82.0458 89.3797 80.9274 90.3322 79.7034 91.1603C78.3645 91.979 77.0162 92.9129 75.5717 93.6071C71.726 95.3815 67.9671 97.5108 63.6591 97.8565C61.7923 98.0527 59.9162 98.3641 58.0495 98.5603C53.7414 98.906 49.4521 99.0214 45.132 98.0909C43.6568 97.7392 42.259 97.8576 40.7745 97.6211C37.1252 96.977 33.7899 95.3149 30.4639 93.5377C26.9175 91.6267 23.3805 89.6005 20.4928 86.6996C17.9218 84.1722 15.4845 81.4238 13.0378 78.7905C10.1689 75.6593 8.51457 71.8152 7.09946 67.8745C5.88612 64.2981 4.55787 60.7123 4.16766 56.9708C3.89505 54.6301 4.09147 52.2115 3.81886 49.8707C3.57431 47.1845 4.35466 44.6974 4.56043 42.1636C4.84102 38.7085 6.25208 35.577 7.21283 32.293C9.08755 26.301 13.0522 21.6379 17.3428 17.2332C19.235 15.3001 21.54 13.9802 23.8357 12.7755C27.2311 10.8485 30.7227 9.16128 34.5123 8.07786C37.1246 7.24664 39.5352 6.05124 42.1476 5.22001C45.6111 3.87826 49.2016 3.82205 52.6772 3.75651C55.339 3.74082 57.9634 4.18581 60.6065 4.40046C60.6065 4.40046 60.5972 4.51563 60.5878 4.6308Z" fill="white"/>
<g clip-path="url(#clip0)">
<path d="M25.1704 63.4943C25.1917 66.1804 25.7025 68.9099 26.9158 71.2928C28.1503 73.6757 30.1298 75.7119 32.5775 76.7301C33.6843 77.185 34.9401 77.4233 36.0682 77.0334C37.1963 76.6434 38.0264 75.6903 38.8991 74.8671C41.73 72.2026 45.391 70.6646 48.9456 69.1915C53.4367 67.3285 57.9278 65.4656 62.4189 63.5809C64.1217 62.8661 65.8457 62.1512 67.4421 61.2197C69.6983 59.8983 71.6991 58.187 73.6998 56.454C74.8918 55.4358 76.0837 54.396 76.9777 53.1179C78.3399 51.19 78.9572 48.8071 79.3403 46.4675C79.8724 43.3265 80.0427 40.1204 79.8937 36.9577C75.7432 40.467 74.0404 46.0559 71.0605 50.6267C70.1453 52.0348 69.0597 53.3995 67.5911 54.2011C66.3778 54.8726 64.973 55.0892 63.5895 55.2192C60.4181 55.5441 57.2041 55.4575 54.0114 55.5225C43.9436 55.7391 33.5779 57.6671 25.2981 63.4943" fill="#E6652D"/>
<path d="M73.4645 25.1084C71.7404 24.6318 70.0589 25.8882 68.6328 26.993C67.1429 28.1195 65.5891 29.1593 63.9714 30.0691C53.6696 35.918 40.92 37.2394 31.9591 45.0596C29.6177 47.0958 27.5957 49.587 26.4889 52.5115C25.7226 54.5478 25.4459 56.7573 25.1905 58.9236C25.0415 60.2667 24.8925 61.6097 24.9989 62.9745C25.2756 66.8954 27.7234 70.578 31.1928 72.311C32.704 73.0692 34.5345 73.4591 36.0457 72.7226C38.1529 71.7045 38.8553 69.0183 40.3666 67.2203C41.4947 65.8773 43.091 65.0108 44.6448 64.2309C53.5632 59.8118 63.1839 56.9306 71.7617 51.8616C73.805 50.6485 75.8058 49.2838 77.168 47.3341C78.3813 45.6011 79.0198 43.4999 79.4455 41.3986C80.0628 38.3009 80.2543 35.0298 79.3391 32.0187C78.4238 29.0076 76.2954 26.2132 73.3368 25.2167" fill="#EF7744"/>
<path d="M25.2558 60.3749C27.0438 62.2595 28.4911 64.3608 30.1301 66.3754C31.8328 68.4767 33.9188 70.2747 35.8131 72.1593C36.1111 72.4409 36.5581 71.986 36.2601 71.7044C34.3445 69.8198 32.2585 68.0218 30.577 65.9205C28.9381 63.9059 27.4907 61.8046 25.7028 59.92C25.4261 59.6167 24.9578 60.0933 25.2558 60.3749Z" fill="#7F3214"/>
<path d="M28.2138 50.3018C30.8744 52.3381 33.0455 54.9159 35.2804 57.4288C37.643 60.0716 40.0056 62.7361 42.347 65.3789C42.6237 65.6822 43.0707 65.2273 42.7939 64.924C40.3462 62.1729 37.8984 59.4217 35.4294 56.6489C33.2583 54.2011 31.1299 51.7099 28.5118 49.7386C28.2138 49.4786 27.8946 50.0419 28.2138 50.3018Z" fill="#7F3214"/>
<path d="M34.2802 43.7164C37.4516 47.0524 40.8146 50.2802 43.7519 53.8328C44.9865 55.3275 46.3274 56.5406 47.8386 57.7321C48.5623 58.3169 49.3073 58.9235 49.9245 59.6384C50.329 60.1149 50.6269 60.9165 51.2442 61.1547C51.3506 61.1981 51.4783 61.1547 51.5635 61.0681C51.7125 60.8948 51.7338 60.7865 51.6912 60.5482C51.6699 60.4399 51.5635 60.3316 51.4783 60.3316C51.4571 60.3316 51.4145 60.3316 51.3932 60.3099C50.9888 60.2449 50.8185 60.8731 51.2229 60.9381C51.7125 61.0031 50.7759 59.66 50.7547 59.6167C50.5418 59.3351 50.3077 59.0751 50.0523 58.8152C49.435 58.1653 48.7326 57.6237 48.0515 57.0605C46.519 55.8474 45.2419 54.5693 43.9861 53.0746C41.0913 49.6519 37.8348 46.5109 34.7485 43.2615C34.4505 42.9582 34.0035 43.4131 34.2802 43.7164Z" fill="#7F3214"/>
<path d="M43.9438 38.3224C45.6253 39.9688 47.3068 41.6368 48.967 43.2831C49.861 44.1713 50.7337 45.1028 51.4574 46.1426C52.0108 46.9441 52.5003 47.7889 53.1814 48.4822C54.6927 50.0419 56.3103 51.4499 57.7577 53.0746C58.4601 53.8545 59.1412 54.656 59.8649 55.3925C60.3119 55.8474 60.9504 56.7789 61.6741 56.7572C61.8231 56.7572 61.9295 56.6489 61.9721 56.5189C62.0359 56.324 62.0146 56.2157 61.9082 56.064C61.8231 55.9557 61.6954 55.8691 61.5464 55.9124C61.5251 55.9124 61.4825 55.9341 61.4612 55.9341C61.0781 56.0857 61.2484 56.7139 61.6315 56.5623C61.6528 56.5623 61.6954 56.5406 61.7167 56.5406C61.5889 56.4973 61.4825 56.4323 61.3548 56.389C61.3548 56.3673 61.3548 56.3673 61.3548 56.3456C61.4612 56.259 61.5677 56.194 61.6528 56.1074C61.291 56.129 60.6737 55.3058 60.4183 55.0676C60.0777 54.721 59.7372 54.3527 59.3966 53.9844C58.6942 53.2046 58.0131 52.4031 57.3107 51.6449C55.9059 50.0852 54.0541 48.8288 52.8196 47.1174C51.6915 45.536 50.606 44.063 49.2225 42.6766C47.6048 41.0519 45.9659 39.4489 44.3269 37.8459C44.0928 37.5642 43.6458 38.0192 43.9438 38.3224Z" fill="#7F3214"/>
<path d="M53.7563 35.2247C54.6929 35.5713 55.4804 36.6544 56.1615 37.3259C56.8639 38.0191 57.5876 38.734 58.29 39.4272C59.7587 40.8786 61.2486 42.33 62.7173 43.7814C65.4843 46.4892 68.23 49.197 70.9971 51.9048C71.0822 51.9915 71.2099 52.0348 71.3163 51.9915C71.6782 51.8615 71.8059 51.4932 71.5079 51.2116C71.2099 50.93 70.7629 51.3849 71.0609 51.6665C71.2951 51.2983 71.2312 51.0383 70.8694 50.865C70.6778 50.6701 70.4862 50.4751 70.2734 50.2801C69.8903 49.8902 69.4858 49.5219 69.1027 49.132C68.4216 48.4605 67.7405 47.7889 67.0594 47.1174C65.5694 45.6444 64.0582 44.1713 62.5683 42.6983C61.057 41.2252 59.5245 39.7305 57.992 38.2141C57.2258 37.4559 56.4595 36.7194 55.6933 35.9612C55.1399 35.4196 54.6503 34.8564 53.9053 34.5748C53.5435 34.4448 53.3732 35.073 53.7563 35.2247Z" fill="#7F3214"/>
<path d="M64.4619 29.9607C66.7181 32.2786 68.9743 34.5965 71.2092 36.8927C72.316 38.0192 73.4228 39.1673 74.5296 40.2937C75.1043 40.8786 75.679 41.4635 76.2537 42.0701C76.6794 42.5033 77.8713 43.3698 77.9352 43.998C77.9778 44.4096 78.6163 44.4096 78.5737 43.998C78.5099 43.4348 78.2545 43.1965 77.8501 42.7849C77.2754 42.1784 76.7007 41.6151 76.126 41.0086C74.8915 39.7305 73.6357 38.4524 72.4011 37.1743C69.9108 34.6181 67.4205 32.0403 64.9089 29.4841C64.6322 29.2025 64.1639 29.6574 64.4619 29.9607Z" fill="#7F3214"/>
<path d="M26.362 55.1109C39.1755 47.4207 52.4785 40.5753 66.1434 34.6182C70.1449 32.8852 74.1891 31.2171 78.2545 29.6358C78.6376 29.4841 78.4673 28.8559 78.0842 29.0076C64.1 34.4665 50.4778 40.8353 37.3024 48.0706C33.5137 50.1502 29.7463 52.3164 26.0215 54.5477C25.6809 54.7643 26.0002 55.3059 26.362 55.1109Z" fill="#7F3214"/>
<path d="M25.9364 65.054C27.3199 63.7109 28.8524 62.5628 30.5765 61.6746C32.3431 60.7648 34.2587 60.2882 36.1105 59.6167C39.6225 58.3386 42.7727 56.1724 46.1782 54.6343C49.7541 53.0096 53.3512 51.4499 56.8419 49.6519C60.2688 47.8973 63.6318 46.0343 67.0374 44.258C70.9964 42.2 74.9979 40.2504 79.1697 38.6907C79.5529 38.5391 79.3826 37.9109 78.9995 38.0625C71.6562 40.8136 64.845 44.7562 57.9062 48.3739C54.4155 50.1935 50.8822 51.8399 47.2851 53.4212C45.412 54.2444 43.5602 55.0892 41.7723 56.0641C39.9631 57.0389 38.2177 58.122 36.3021 58.8585C34.3439 59.6167 32.3005 60.0933 30.4062 61.0464C28.5757 61.9563 26.9368 63.1694 25.4894 64.5991C25.1914 64.8807 25.6384 65.3573 25.9364 65.054Z" fill="#7F3214"/>
<path d="M29.7041 70.4696C42.0918 63.3427 55.2246 57.6021 68.1232 51.5366C69.9537 50.6701 71.8055 49.8036 73.6359 48.9587C74.5299 48.5472 75.4026 48.1356 76.2966 47.7023C76.8925 47.4207 77.6588 47.2907 77.8716 46.6192C77.9142 46.4892 77.8503 46.3159 77.7226 46.2509C77.6801 46.2293 77.6588 46.2076 77.6162 46.1859C77.5098 46.121 77.3821 46.121 77.2969 46.1859C77.2544 46.2076 77.2118 46.2293 77.1905 46.2509C77.0415 46.3592 76.999 46.5325 77.0841 46.7058C77.1054 46.7275 77.1054 46.7492 77.1267 46.7708C77.2969 47.1391 77.8503 46.8142 77.6801 46.4459C77.6588 46.4242 77.6588 46.4026 77.6375 46.3809C77.5949 46.5325 77.5524 46.6842 77.5311 46.8358C77.4885 46.8358 77.4672 46.8358 77.4246 46.8142C77.3821 46.6842 77.3182 46.5759 77.2757 46.4459C77.1267 46.8791 75.6367 47.3124 75.2323 47.5074C74.4022 47.8973 73.5934 48.2872 72.7633 48.6555C71.1243 49.4353 69.4641 50.1935 67.8252 50.9734C64.6537 52.4681 61.4823 53.9628 58.3109 55.4575C52.0744 58.4036 45.7954 61.2631 39.6228 64.3608C36.1534 66.0938 32.7691 67.9784 29.4061 69.9064C29.0229 70.123 29.3422 70.6862 29.7041 70.4696Z" fill="#7F3214"/>
</g>
<defs>
<clipPath id="clip0">
<rect width="55" height="52.25" fill="white" transform="translate(25 25)"/>
</clipPath>
</defs>
</svg>
