<svg width="103" height="104" viewBox="0 0 103 104" fill="none" xmlns="http://www.w3.org/2000/svg">
<path d="M46.1784 3.11911C50.6113 3.94268 55.1776 4.54529 59.6012 5.48399C64.7032 6.59368 69.5198 8.37554 74.0604 10.7144C75.3892 11.4018 76.746 11.7438 77.9507 12.537C81.6983 14.6956 84.6834 17.7194 87.5445 20.8491C90.7214 24.352 93.2785 28.3841 95.7116 32.522C97.1199 35.0702 97.4593 37.995 98.0373 40.8234C98.51 43.5273 98.4002 46.2998 98.4144 48.9664C98.2859 51.9692 98.616 55.0092 98.3729 58.0026C98.1672 60.5355 97.6269 62.9254 97.192 65.4397C97.1546 65.9002 97.0119 66.2363 96.8599 66.6875C96.301 69.3077 95.7514 71.8127 94.1796 74.1187C92.8557 76.2132 91.857 78.5658 90.6383 80.7847C89.4384 82.7733 87.8081 84.3793 86.1684 86.1004C84.0327 88.2448 82.0118 90.3985 79.4551 92.0451C78.8445 92.4591 78.1194 92.8638 77.5182 93.1627C76.4305 93.7697 75.1322 94.1278 74.1498 94.8593C72.5568 96.0047 70.7814 96.5559 69.0059 97.107C67.2305 97.6582 65.4457 98.3245 63.6608 98.9908C61.3988 99.8501 59.1462 100.594 56.7484 100.284C51.0359 99.588 45.3515 98.5469 39.667 97.5058C37.6225 97.108 35.6434 95.9043 33.6082 95.3913C29.6618 94.2596 26.4008 91.7928 23.121 89.5563C20.1664 87.578 17.5744 85.3973 15.1344 82.7654C11.5363 78.7647 7.81436 74.8698 5.32275 70.0317C4.63259 68.585 4.31434 66.8208 3.86277 65.2775C3.76684 65.0379 3.90017 64.817 3.79489 64.6925C2.56173 58.566 3.40115 52.4919 4.46982 46.4364C5.08484 43.1255 5.80513 39.939 6.85995 36.8956C8.22816 32.8346 10.1601 28.9353 11.8722 24.9022C14.7164 18.2955 19.7408 13.2567 25.081 8.59109C27.3219 6.57112 30.0798 5.2885 33.1629 4.26406C37.6495 3.00594 41.804 2.99565 46.1784 3.11911Z" fill="white"/>
<path d="M61.5697 37.6837C63.4777 35.7997 65.4528 33.9913 67.5624 32.3337C67.9414 31.9996 68.3161 31.7367 68.8251 31.6247C69.3342 31.5127 69.8933 31.7608 70.3851 31.9334C71.3645 32.3497 72.2724 32.7617 73.256 33.1069C73.6049 33.2709 74.0253 33.4391 74.4585 33.3939C74.8918 33.3488 75.2665 33.0858 75.5697 32.8185C76.3277 32.1503 77.0315 31.1932 77.2348 30.2058C77.4381 29.2184 77.2253 27.9915 76.482 27.2324C75.3312 26.0916 73.5223 26.3391 71.9864 26.8174C71.7676 26.8756 71.4731 27.0006 71.2629 26.9165C70.5522 26.802 70.3938 25.8641 70.3653 25.1483C70.43 24.0811 70.7091 23.0268 70.5592 21.9466C70.4093 20.8664 69.902 19.7645 68.8382 19.5573C67.9174 19.3587 66.9449 20.014 66.5314 20.9173C66.0464 21.8162 65.9861 22.8123 65.9973 23.8127C66.0085 24.8131 66.0197 25.8135 65.6777 26.7211C65.3314 27.6999 64.6363 28.5147 63.9412 29.3295C62.2477 31.2265 60.4241 32.9013 58.3947 34.4209" fill="#F5DFB0"/>
<path d="M62.1566 36.291C60.8128 34.7815 60.8559 34.07 59.1659 33.5392C55.5714 32.4647 51.6116 33.8674 48.4082 35.8157C47.0653 36.6627 45.8524 37.7319 44.6439 38.7298C41.6162 41.3315 38.5927 43.862 35.7036 46.5435C32.5157 49.4211 29.3863 52.5164 27.2948 56.2459C25.2034 59.9754 24.1413 64.4813 25.4686 68.632C26.1344 70.6717 27.3093 72.5995 28.8675 74.122C31.971 77.3805 36.4476 79.294 40.9646 79.3532C45.4817 79.4125 49.9677 77.6132 53.1772 74.3799C54.0912 73.5069 54.8707 72.4829 55.5159 71.308C57.0595 68.3309 57.0561 64.8316 57.1156 61.479C57.175 58.1263 57.5377 54.5064 59.7032 51.924C60.7102 50.6996 62.1332 49.7146 63.0729 48.4147C64.3245 46.7052 64.8155 44.5213 64.5787 42.5075C64.3418 40.4937 63.0016 36.5564 62.1566 36.291Z" fill="#F99E47"/>
<path d="M35.5559 46.6059C37.7585 44.597 39.9524 42.7304 44.1172 39.1264C44.193 39.0596 44.7994 38.525 44.8709 38.5293C44.9424 38.5337 45.0096 38.6092 45.0768 38.6846C48.1278 40.4403 50.854 42.8191 53.1297 45.5276C53.6 46.0559 54.0574 46.7977 53.6612 47.4164C53.4251 47.7592 53.0548 47.951 52.6887 48.0716C48.0769 49.5777 43.0525 48.4166 38.3141 47.2728C37.3261 46.9987 36.5052 47.5203 35.5559 46.6059Z" fill="#C97D37"/>
<path d="M28.8039 53.8379C29.4715 54.6638 30.661 55.1643 31.6447 55.5095C35.1548 56.7931 38.6778 57.8633 42.2052 58.8624C43.4748 59.2249 44.7488 59.5163 46.1115 59.5274C46.7549 59.5663 47.407 59.463 48.1262 59.4351C50.9404 59.177 53.7329 59.2747 56.5083 59.6569C56.6513 59.6656 56.8657 59.6786 56.9286 59.8252C57.063 59.9762 57.1974 60.1271 57.1845 60.3406C57.1164 63.8355 57.1801 66.3387 56.4574 68.7943C56.0155 68.9817 55.6081 68.6 55.1162 68.4274C53.6493 67.7673 52.0351 67.1697 50.4795 66.7899C49.4915 66.5159 48.5706 66.3173 47.5827 66.0433C45.8969 65.4413 44.3086 64.4169 42.5471 63.8818C41.3489 63.5236 40.1378 63.3788 38.8552 63.2298C37.7156 63.0894 36.576 62.949 35.4149 63.1643C34.2538 63.3797 33.1469 63.8839 32.5103 64.9165C32.1942 65.3972 32.0124 66.0289 32.121 66.6068C32.2209 67.3269 32.6869 67.9264 33.233 68.3879C33.9178 68.9292 34.6784 69.4037 35.5277 69.598C36.6544 69.9518 37.8741 69.9543 39.0895 70.0278C40.3006 70.1726 41.5073 70.3885 42.4652 71.1605C43.423 71.9326 43.9131 73.3191 43.3394 74.4983C42.7658 75.6775 41.3057 76.089 40.1032 75.802C38.9008 75.5149 37.8714 74.7385 36.762 74.1001C33.7868 72.2775 30.4111 71.1449 27.5918 69.1175C26.6297 68.4166 25.4057 68.4853 25.0456 67.321C24.7528 66.2321 24.7106 63.3732 25.2429 61.6916C25.5436 60.2816 25.4505 60.633 25.8985 59.1605C26.0759 58.6 27.3422 55.4632 28.4077 54.4566" fill="#C97D37"/>
</svg>
