<svg width="107" height="103" viewBox="0 0 107 103" fill="none" xmlns="http://www.w3.org/2000/svg">
<path d="M60.5878 4.6308C62.4265 4.78012 64.3988 4.70843 66.2188 5.08809C68.4891 5.62025 70.6257 6.37342 72.7624 7.1266C76.25 8.33727 79.4798 9.87479 82.5572 11.8637C85.4234 13.6035 88.1374 15.7948 90.3636 18.2942C93.7697 21.9328 96.5638 25.9854 99.2337 30.1438C101.078 33.0759 101.869 36.1544 102.411 39.4445C102.954 42.7346 103.363 46.2457 102.967 49.6915C102.431 54.8649 101.551 60.0102 100.335 65.0124C99.6134 68.1999 97.8763 71.073 96.4746 74.0893C96.055 74.9827 95.5298 75.7516 95.1103 76.6449C94.9673 76.9811 94.8243 77.3173 94.6907 77.5383C91.4436 81.9118 87.9948 85.9212 83.2605 88.6668C82.0458 89.3797 80.9274 90.3322 79.7034 91.1603C78.3645 91.979 77.0162 92.9129 75.5717 93.6071C71.726 95.3815 67.9671 97.5108 63.6591 97.8565C61.7923 98.0527 59.9162 98.3641 58.0495 98.5603C53.7414 98.906 49.4521 99.0214 45.132 98.0909C43.6568 97.7392 42.259 97.8576 40.7745 97.6211C37.1252 96.977 33.7899 95.3149 30.4639 93.5377C26.9175 91.6267 23.3805 89.6005 20.4928 86.6996C17.9218 84.1722 15.4845 81.4238 13.0378 78.7905C10.1689 75.6593 8.51457 71.8152 7.09946 67.8745C5.88612 64.2981 4.55787 60.7123 4.16766 56.9708C3.89505 54.6301 4.09147 52.2115 3.81886 49.8707C3.57431 47.1845 4.35466 44.6974 4.56043 42.1636C4.84102 38.7085 6.25208 35.577 7.21283 32.293C9.08755 26.301 13.0522 21.6379 17.3428 17.2332C19.235 15.3001 21.54 13.9802 23.8357 12.7755C27.2311 10.8485 30.7227 9.16128 34.5123 8.07786C37.1246 7.24664 39.5352 6.05124 42.1476 5.22001C45.6111 3.87826 49.2016 3.82205 52.6772 3.75651C55.339 3.74082 57.9634 4.18581 60.6065 4.40046C60.6065 4.40046 60.5972 4.51563 60.5878 4.6308Z" fill="white"/>
<path d="M31.6229 35.5355C30.3844 35.8455 28.975 37.5411 28.7762 38.7526C28.5773 39.9642 28.691 41.3389 28.951 42.511C30.7253 50.6518 34.4535 58.2583 39.8034 64.5989C41.0372 66.0402 42.3351 67.4353 43.7153 68.6741C46.706 71.4711 50.1818 73.7242 53.8582 75.4444C55.4389 76.1501 57.2582 76.781 58.7894 76.0658C60.0821 75.4253 60.804 74.1281 61.4157 72.8133C61.7807 71.9675 62.1639 71.0116 62.0881 70.0951C61.9546 68.152 59.9592 66.8711 58.3225 65.8173C49.7802 60.3211 43.3412 51.6581 40.6538 41.8448C40.0054 39.593 39.4113 37.0108 37.4801 35.6837C35.669 34.6584 33.4386 34.8094 31.6229 35.5355Z" fill="#F0835E"/>
<path d="M30.7444 36.7505C29.3088 38.9506 29.1694 41.8673 29.8276 44.4032C30.4859 46.9392 31.7495 49.2331 33.1232 51.5447C34.4509 53.7924 35.6684 56.0224 36.9961 58.27C38.0934 60.1982 39.1908 62.1263 40.4345 63.8519C43.4747 68.0698 47.5412 71.5481 51.8083 74.4933C53.3809 75.5934 55.1459 76.5547 57.0456 76.3508C57.3302 76.3399 57.6328 76.2189 57.7791 76.0163C57.9255 75.8137 58.0258 75.5472 58.0159 75.263C58.185 73.1989 57.262 71.2422 55.8719 69.7193C54.4818 68.1963 52.799 67.0786 51.1162 65.9609C46.739 62.9979 42.5442 59.6121 39.953 55.0706C36.8731 49.7158 36.0942 43.0911 32.5654 38.06C32.1327 37.595 31.3776 36.6826 30.7444 36.7505Z" fill="#CD4C1A"/>
<path d="M47.4824 24.0055C46.2439 24.3155 44.8346 26.0111 44.5716 27.2689C44.3086 28.5266 44.5505 29.8089 44.7465 31.0272C46.5207 39.1681 50.2489 46.7746 55.5988 53.1151C56.8326 54.5565 58.1305 55.9516 59.5107 57.1903C62.5014 59.9873 65.9772 62.2405 69.6536 63.9606C71.2343 64.6663 73.0536 65.2972 74.5848 64.582C75.8775 63.9416 76.5994 62.6444 77.2111 61.3295C77.5762 60.4837 77.9593 59.5278 77.8835 58.6113C77.75 56.6682 75.7546 55.3873 74.1179 54.3335C65.5756 48.8374 59.1366 40.1743 56.4492 30.361C55.8008 28.1092 55.2067 25.527 53.2755 24.1999C51.5746 23.1923 49.3443 23.3433 47.4824 24.0055Z" fill="#F0835E"/>
<path d="M46.6052 25.2212C45.1696 27.4213 45.0302 30.3379 45.6885 32.8739C46.3468 35.4098 47.6564 37.7676 48.9841 40.0153C50.3117 42.263 51.5292 44.493 52.8569 46.7407C53.9543 48.6688 55.0516 50.597 56.2954 52.3225C59.3356 56.5405 63.402 60.0187 67.6691 62.964C69.1956 64.0001 70.9426 65.0716 72.7962 64.8037C73.0808 64.7929 73.3834 64.6718 73.5298 64.4692C73.6761 64.2666 73.7764 64.0001 73.7665 63.7159C73.9356 61.6518 73.0126 59.6951 71.6225 58.1722C70.2325 56.6493 68.5497 55.5316 66.8669 54.4138C62.4896 51.4509 58.2948 48.0651 55.7036 43.5235C52.6238 38.1688 51.8448 31.5441 48.316 26.5129C47.9936 26.0656 47.2204 25.2633 46.6052 25.2212Z" fill="#CD4C1A"/>
</svg>
