<svg width="91" height="75" viewBox="0 0 91 75" fill="none" xmlns="http://www.w3.org/2000/svg">
<g clip-path="url(#clip0)">
<path d="M9.59131 39.3452C8.00542 41.6863 7.09919 44.405 6.79712 47.1991C6.7216 47.8788 6.7216 48.634 6.94816 49.3137C7.55231 51.1261 9.74235 51.9568 11.6303 52.1834C17.0677 52.9386 22.656 51.8813 28.0934 52.7875C29.6038 53.0141 31.1141 53.3917 32.549 53.6938C37.6087 54.5245 42.6685 53.6182 47.8038 53.2406C60.1133 52.4099 72.8004 54.8265 84.7324 51.6547C85.1855 51.5037 85.6386 51.4282 85.9407 51.0506C86.3183 50.673 86.3938 50.2199 86.5448 49.7668C86.8469 48.4074 86.998 46.9726 86.998 45.5377C86.998 44.8581 86.9224 44.2539 86.6959 43.6498C86.3938 42.8946 85.7141 42.366 85.0345 41.9128C79.8237 38.1369 72.8004 38.0614 66.3814 38.2124C60.4909 38.2879 54.676 38.439 48.7855 38.5145C42.3664 38.5145 36.0228 38.59 29.6793 39.2697C23.0336 39.9494 16.3125 41.2332 9.81787 39.6473" fill="#D25C5C"/>
<path d="M41.0067 49.9934C38.3635 49.7668 35.9469 49.8423 33.2282 49.6913C26.2805 49.1627 19.2573 48.634 12.3096 48.332C10.195 48.2564 8.00499 48.1809 5.96599 48.7096C3.92699 49.2382 1.88798 50.371 0.830721 52.1834C-0.22654 53.9959 -0.22654 56.5635 1.20831 58.1494C2.26558 59.2067 3.77595 59.6598 5.2108 59.9618C11.4033 61.1701 17.7469 60.566 24.015 60.6415C28.244 60.717 32.5486 61.0946 36.7776 61.3967C52.7876 62.3784 68.873 61.5477 84.8075 60.1129C85.7137 60.0374 86.6199 59.9618 87.3751 59.5087C89.5652 58.3004 89.4896 55.0531 88.5834 52.712C88.2813 51.9569 87.9793 51.2772 87.3751 50.7486C86.3934 49.8423 84.9585 49.8423 83.5992 49.8423C79.2191 49.8423 74.9145 49.8423 70.5345 49.8423C60.717 49.6913 50.8996 49.6913 41.0067 49.9934Z" fill="#DB9C4F"/>
<path d="M4.1536 59.9618C4.00256 62.0763 3.776 64.1909 4.22912 66.3054C4.68223 68.4199 5.81501 70.3834 7.70297 71.3651C8.68472 71.8938 9.74198 72.1203 10.7992 72.2714C19.2573 73.7817 27.8665 74.2348 36.4001 74.6124C39.3453 74.7635 42.215 74.9145 45.1602 74.9145C53.3918 74.9145 61.6233 73.7817 69.7793 72.649C74.537 71.9693 79.2947 71.3651 83.9013 70.3079C84.8075 70.0813 85.7138 69.8548 86.3179 69.2506C86.9221 68.6465 87.2241 67.7402 87.3752 66.9095C87.8283 64.946 88.0548 62.8315 88.0548 60.7925C88.0548 60.4149 88.0548 60.0373 87.8283 59.7353C87.2997 58.9046 86.0914 59.2822 85.1851 59.5842C81.7868 60.717 78.0864 59.9618 74.6125 59.5087C63.0582 58.0739 51.3528 59.8108 39.7229 60.2639C29.9055 60.717 20.0125 60.2639 10.1951 59.7353C7.92953 59.6597 6.26812 59.5842 4.07808 59.4332" fill="#EFD2B7"/>
<path d="M11.0255 27.9419C7.7782 28.9237 4.30434 29.981 2.03878 32.4731C-0.226784 34.9652 -0.906452 39.3453 1.66118 41.5353C2.34085 42.1395 3.17156 42.5171 4.00226 42.8191C6.34334 43.8009 8.91098 44.5561 11.4031 44.4805C15.6321 44.3295 19.3326 41.8374 22.8064 39.4208C27.262 41.5353 32.0197 42.7436 36.9284 43.5743C40.1757 44.1029 43.574 44.4805 46.8213 43.7254C50.0687 42.9702 53.1649 41.0822 54.5998 38.0615C55.1284 40.0249 57.0919 41.1577 59.0554 41.8374C64.1151 43.4988 70.0811 42.4415 74.2346 39.0432C75.4429 42.0639 79.3699 43.0457 82.6172 43.0457C85.1848 43.0457 88.1301 42.6681 89.7915 40.7046C91.3774 38.7411 91.2263 35.7204 89.867 33.6058C88.5077 31.4913 86.0911 30.132 83.6745 29.5278C81.1824 28.8482 78.6902 28.8482 76.1226 28.6971C69.5525 28.3951 62.9823 27.5644 56.3367 27.5644C52.3342 27.5644 48.3317 27.9419 44.3292 28.093C34.2852 28.5461 24.2413 28.244 14.2728 27.1112C13.5176 27.0357 12.6869 26.9602 11.9317 27.1112C11.6296 27.1868 11.3276 27.2623 11.101 27.0357C10.95 26.8092 11.4786 26.5071 11.4031 26.8092" fill="#49A784"/>
<path d="M10.1951 28.093C11.7055 32.7751 14.0466 37.3062 17.5205 40.8556C19.5595 42.8946 21.9005 44.556 24.2416 46.1419C27.2624 48.1054 30.2831 49.9934 33.3794 51.8058C33.8325 49.0871 34.7387 46.3685 36.0981 43.9519C39.6474 37.6083 45.84 33.2282 50.2956 27.4888C47.5769 26.9602 44.7827 27.4888 42.064 27.4888C40.1761 27.4888 38.3636 27.2622 36.4756 27.0357C27.7155 26.0539 18.8043 26.205 10.1196 27.3378" fill="#F9DB4E"/>
<path d="M4.53088 29.9809C3.62466 20.088 10.1948 11.1768 18.8794 6.34357C23.4106 3.77594 28.4703 2.4166 33.6056 1.43486C45.5375 -0.830703 58.0736 -0.679666 69.4769 3.47386C72.3466 4.53112 75.1408 5.81494 77.633 7.62739C82.3906 11.0257 85.789 16.2365 87.0728 21.9004C87.6014 24.166 87.7525 26.5826 87.979 28.9237C87.979 29.3012 88.0545 29.6033 87.9035 29.9809C87.7525 30.434 87.3749 30.6606 86.9973 30.9627C83.3724 33.1527 78.7657 32.171 74.5367 31.4913C59.6595 29.2257 44.4803 33.0017 29.452 31.6423C25.5251 31.2647 21.5981 30.5851 17.5956 30.3585C13.5176 30.132 9.36408 30.3585 5.28607 31.1137C4.984 31.1892 4.68192 30.9627 4.68192 30.6606C4.53088 30.434 4.53088 30.2075 4.53088 29.9809Z" fill="#EFD2B7"/>
<path d="M40.1759 9.59093C40.5535 9.13782 41.0066 8.6847 41.3842 8.23159C41.6863 7.854 41.9883 7.47641 42.4414 7.24985C43.7253 6.57018 42.5925 4.6067 41.3087 5.28636C40.78 5.58844 40.3269 6.04155 39.9493 6.49466C39.4962 7.02329 39.0431 7.47641 38.59 8.00504C38.2124 8.45815 38.1369 9.13782 38.59 9.59093C38.9676 9.96852 39.7228 10.044 40.1759 9.59093Z" fill="#D6B592"/>
<path d="M42.4414 18.6531C43.2721 17.8224 44.1783 16.9161 45.009 16.0854C46.0663 15.0282 44.4049 13.4423 43.4231 14.4995C42.5924 15.3303 41.6862 16.2365 40.8555 17.0672C39.7982 18.0489 41.3841 19.6348 42.4414 18.6531Z" fill="#D6B592"/>
<path d="M54.2979 15.4813C54.2979 16.2365 54.3734 16.9917 54.3734 17.7469C54.3734 18.4266 54.2978 19.1818 54.5244 19.8614C54.5999 20.239 54.902 20.5411 55.2796 20.6166H55.3551C55.7327 20.6921 56.1858 20.6166 56.4879 20.3145L56.5634 20.239C57.5452 19.1818 55.9593 17.5203 54.9775 18.6531L54.902 18.7286C55.2796 18.6531 55.6572 18.5021 56.0348 18.4266H55.9593C56.1858 18.6531 56.4879 18.9552 56.7144 19.1818C56.5634 18.6531 56.6389 17.8979 56.6389 17.3693C56.6389 16.6896 56.5634 16.0855 56.5634 15.4058C56.5634 14.0465 54.2979 14.0465 54.2979 15.4813Z" fill="#D6B592"/>
<path d="M64.3422 14.4241C64.4177 14.4241 64.4177 14.4241 64.4932 14.3486C64.2667 14.3486 64.1156 14.3486 63.8891 14.3486C63.9646 14.3486 63.9646 14.4241 64.0401 14.4241C63.8891 14.3486 63.738 14.1975 63.5115 14.122C64.2667 14.8772 65.1729 18.6531 66.9098 17.3693C67.3629 16.9917 67.665 16.3876 67.2874 15.7834C66.9853 15.3303 66.2301 15.0282 65.7015 15.4058C65.7015 15.4058 65.626 15.4058 65.626 15.4813C65.9281 15.4058 66.2301 15.4058 66.5322 15.3303H66.4567C66.6077 15.4058 66.7588 15.5569 66.9853 15.6324C66.7588 15.4058 66.6077 14.8772 66.4567 14.5751C66.2301 14.1975 66.0036 13.8199 65.777 13.4423C65.3239 12.6871 64.7198 11.932 63.738 12.234C62.3787 12.6871 62.9073 14.8772 64.3422 14.4241Z" fill="#D6B592"/>
<path d="M75.2919 13.1403L75.3675 13.2158C75.2919 13.0648 75.1409 12.9137 75.0654 12.6872C75.0654 12.7627 75.0654 12.7627 75.0654 12.8382C75.0654 12.6117 75.0654 12.4606 75.0654 12.2341C74.8388 13.5179 71.9691 16.0855 74.3102 16.9917C74.9143 17.2183 75.5185 16.7652 75.6695 16.2366C75.8206 15.6324 75.443 15.1038 74.9143 14.8772H74.8388C75.0654 15.1038 75.3675 15.4059 75.594 15.6324V15.5569C75.594 15.7834 75.594 15.9345 75.594 16.161C75.9716 14.8772 78.3127 12.9137 76.8023 11.5544C75.8206 10.5727 74.2347 12.1585 75.2919 13.1403Z" fill="#D6B592"/>
<path d="M65.4744 27.1112C67.2113 26.8091 68.4951 25.5253 70.1566 24.8457C70.7607 24.6191 70.8362 23.7884 70.5341 23.2598C70.2321 22.6556 69.5524 22.5801 68.9483 22.8822C67.5134 23.4863 66.3806 24.6191 64.8702 24.9212C63.4354 25.2233 64.0395 27.4133 65.4744 27.1112Z" fill="#D6B592"/>
<path d="M38.741 26.8092C39.8738 26.5071 40.931 25.9785 41.9128 25.3743C43.1211 24.5436 41.9883 22.5801 40.78 23.4109C39.9493 23.9395 39.1186 24.3926 38.1368 24.6192C36.702 24.9967 37.3061 27.1868 38.741 26.8092Z" fill="#D6B592"/>
<path d="M26.8092 16.01C27.2623 17.5204 27.942 19.3328 29.5279 19.8614C30.8872 20.3145 31.4914 18.1245 30.132 17.6714C29.8299 17.5959 29.6789 17.0672 29.5279 16.8407C29.3013 16.3876 29.1503 15.9345 28.9992 15.4058C28.6216 13.971 26.4316 14.5751 26.8092 16.01Z" fill="#D6B592"/>
<path d="M17.3693 12.083C17.8224 13.5934 18.502 15.4059 20.0879 15.9345C21.4473 16.3876 22.0514 14.1976 20.6921 13.7444C20.39 13.6689 20.239 13.1403 20.0879 12.9137C19.8614 12.4606 19.7103 12.0075 19.5593 11.4789C19.1817 10.044 16.9917 10.6482 17.3693 12.083Z" fill="#D6B592"/>
<path d="M17.0674 24.015C18.2757 24.8457 19.5595 25.5253 20.9189 25.9784C22.2782 26.4315 22.8824 24.2415 21.523 23.7884C20.3147 23.4108 19.1819 22.8067 18.2002 22.0515C17.6716 21.6739 16.9164 21.9759 16.6143 22.4291C16.3122 23.0332 16.5388 23.6374 17.0674 24.015Z" fill="#D6B592"/>
</g>
<defs>
<clipPath id="clip0">
<rect width="91" height="74.99" fill="white"/>
</clipPath>
</defs>
</svg>
