<svg width="282" height="61" viewBox="0 0 282 61" fill="none" xmlns="http://www.w3.org/2000/svg">
<path d="M258.734 54.3924C184.194 54.3924 109.653 54.3924 35.1126 54.3924C31.1894 54.3924 27.2662 54.6181 23.343 54.3924C7.45416 53.4896 -0.392205 32.2743 6.66952 16.4757C13.5351 1.5799 32.3664 5.4167 44.5282 5.4167C90.2333 5.4167 136.135 5.4167 181.84 5.4167C203.221 5.4167 224.798 5.4167 246.18 5.4167C250.103 5.4167 254.222 5.19101 258.146 5.4167C283.058 6.99656 283.45 52.8125 258.734 54.3924C255.988 54.6181 255.988 59.5834 258.734 59.3577C288.942 57.1007 289.139 1.80559 258.734 0.225731C246.572 -0.451353 234.41 0.225731 222.248 0.225731C169.874 0.225731 117.696 0.225731 65.3211 0.225731C51.3938 0.225731 37.2703 -0.451353 23.343 0.225731C12.3581 0.902814 2.9425 8.35073 0.784749 21.2153C-1.76532 35.4341 1.76554 51.6841 14.5159 57.5521C24.9123 62.5174 40.2127 59.5834 51.1976 59.5834C76.306 59.5834 101.218 59.5834 126.327 59.5834C170.462 59.5834 214.598 59.5834 258.93 59.5834C261.48 59.5834 261.48 54.3924 258.734 54.3924Z" fill="#1B1F9B"/>
</svg>
