<svg width="249" height="278" viewBox="0 0 249 278" fill="none" xmlns="http://www.w3.org/2000/svg">
<path d="M2.42757 11.2308C4.59706 26.4825 2.75892 197.876 1.96708 268.224C1.95647 269.503 1.94491 270.899 2.45703 272.066C3.68613 274.867 7.2322 275.129 10.0507 275.036C43.8764 273.456 77.6905 273.271 111.505 273.086C122.254 273.059 132.9 272.915 143.649 272.887C153.459 272.852 163.269 272.817 172.97 273.363C181.21 273.896 189.446 274.895 197.587 274.846C212.094 274.734 226.837 271.367 240.892 275.321C242.454 275.8 244.12 276.279 245.39 274.08C245.814 273.269 246.032 272.224 246.039 271.294C245.808 185.936 245.679 100.696 245.448 15.3384C245.481 11.2685 245 6.38044 241.781 4.49314C240.326 3.66707 238.657 3.65323 237.09 3.75653C215.069 3.92286 192.957 2.4604 170.928 3.55697C140.444 4.81604 29.8624 0.061897 5.74443 1.37373C4.07382 1.47617 2.70471 2.97657 2.48058 4.83533C2.25549 6.81036 2.03232 8.55284 2.42757 11.2308Z" fill="white"/>
</svg>
