<svg width="36" height="66" viewBox="0 0 36 66" fill="none" xmlns="http://www.w3.org/2000/svg">
<path d="M0.0490698 17.4331C0.0490698 12.5193 2.42126 7.77491 5.97955 4.38606C6.82676 3.70829 7.67397 3.03052 8.52119 2.52219C10.5545 1.3361 12.9267 0.997214 15.2989 0.488887C17.8405 -0.0194399 20.5516 -0.358324 22.9238 0.658329C24.2793 1.16666 25.6349 2.18331 26.6515 3.19996C27.3293 3.87773 28.1765 4.5555 28.8543 5.23327C29.532 6.08048 30.0404 7.09714 30.5487 8.28323C32.0737 11.6721 33.4292 15.0609 33.4292 18.7887C33.4292 20.6525 33.0903 22.3469 32.582 24.2108C32.2431 25.7358 31.9042 27.2608 31.2265 28.6163C30.8876 29.2941 30.5487 29.9718 30.0404 30.6496C29.3626 31.4968 28.3459 32.1746 27.4987 32.6829C23.6015 34.8857 18.5183 35.5634 14.2822 34.0385C12.9267 33.5301 11.7406 32.8524 10.385 32.344C9.3684 31.8357 8.35174 31.3274 7.50453 30.6496C6.65732 29.9718 5.97955 29.2941 5.30178 28.4469C3.09903 25.5663 -0.459257 23.533 0.0490698 17.4331Z" fill="#F9DB4E"/>
<g clip-path="url(#clip0)">
<path d="M12.2989 48.7956C12.0002 41.3867 12.1993 33.9779 12.8964 26.6188C12.996 25.326 13.1454 23.9834 13.7927 22.8398C14.44 21.6961 15.6848 20.8011 16.9794 21C18.1246 21.1492 19.0209 22.1436 19.469 23.2376C19.9172 24.3315 19.9172 25.5249 19.9172 26.6685C19.9172 30.547 19.8674 34.4751 19.7678 38.3536C20.3155 37.1602 21.7097 36.3646 23.0541 36.5138C24.3985 36.663 25.5437 37.7569 25.8425 39.0497C26.44 37.9558 27.9338 37.5083 29.1288 37.9061C30.3238 38.3039 31.1703 39.3978 31.5686 40.5912C32.4649 40.0939 33.5603 39.5967 34.4566 40.0442C35.3529 40.4917 35.6018 41.6354 35.7014 42.6298C36.1495 46.3591 36.0997 50.1878 36.0499 53.9669C36.0002 56.0552 36.0002 58.1934 35.2533 60.1326C33.9587 63.5635 30.4234 66.0497 26.7387 66C25.3943 66 24.0997 65.7017 22.8051 65.3039C16.5313 63.4641 10.9545 59.4862 7.17028 54.2652C6.22422 52.9724 5.37775 51.5304 4.03335 50.5856C2.68895 49.6409 0.796838 49.1934 0.149535 47.6519C-0.597353 45.9613 0.996008 43.9227 2.78854 43.5746C4.58107 43.2265 6.47319 44.1713 7.86738 45.4144C9.26157 46.6575 10.8051 47.6519 12.2989 48.7956Z" fill="#1B1F9B"/>
</g>
<defs>
<clipPath id="clip0">
<rect width="36" height="45" fill="white" transform="translate(0 21)"/>
</clipPath>
</defs>
</svg>
