<svg width="375" height="220" viewBox="0 0 375 220" fill="none" xmlns="http://www.w3.org/2000/svg">
<g clip-path="url(#clip0)">
<path d="M3.17586 6.87853C15.2171 5.42333 26.1999 11.9056 35.9917 18.1233C46.9744 25.0024 57.1632 33.0722 68.5428 39.2898C80.3195 45.7721 94.0809 47.7565 104.534 56.7523C115.782 66.5418 120.942 81.3584 123.456 95.5135C124.78 102.525 125.441 110.066 124.383 117.209C123.192 124.485 119.09 134.539 110.753 136.127C103.211 137.582 98.0506 129.512 95.1395 123.824C90.7729 115.489 88.9204 106.626 97.9183 100.937C111.944 92.074 128.088 102.393 142.114 105.965C156.537 109.669 171.886 108.743 186.177 104.774C201.394 100.541 215.552 93.1323 228.652 84.4011C240.693 76.4636 253.793 68.1293 263.982 57.9429C272.054 49.8731 277.082 39.4221 275.229 27.7805C273.509 17.0649 266.496 7.2754 256.572 2.77751C234.077 -7.14432 210.127 11.9056 204.173 33.2044C196.366 61.5147 210.789 93.3969 227.594 115.754C236.988 128.322 248.5 138.244 260.542 148.298C267.29 153.854 274.039 159.807 279.067 166.951C283.566 173.433 286.477 180.709 289.917 187.72C296.666 201.479 306.722 211.665 321.41 216.56C337.553 221.851 355.681 219.735 372.089 218.015C376.323 217.486 376.323 210.871 372.089 211.4C356.475 213.12 339.406 215.237 324.189 210.607C307.913 205.58 299.841 193.409 292.961 178.725C286.874 165.892 279.331 155.706 268.481 146.446C257.498 137.053 246.251 128.322 236.856 117.077C218.066 94.4552 198.086 55.0325 214.097 26.0607C220.581 14.4191 234.21 4.89417 247.971 7.14311C261.336 9.25977 270.598 23.4149 268.613 36.7763C266.099 52.3866 248.897 62.1762 237.121 70.6428C223.756 80.1678 209.73 89.4281 194.249 95.2489C179.032 101.07 162.094 103.848 146.083 100.276C132.322 97.2333 118.957 88.6344 104.402 91.5448C94.6102 93.5292 84.5538 100.805 84.4214 111.785C84.2891 121.972 92.3608 136.391 101.623 141.154C111.68 146.313 122.001 139.302 126.764 130.438C132.851 119.326 131.925 105.832 129.808 93.7937C127.294 79.7709 122.133 65.4835 112.077 54.9002C101.226 43.5231 86.6709 41.2742 73.3064 34.3951C60.4712 27.6482 49.0915 18.3878 36.7856 10.8473C26.7291 4.62958 15.2171 -1.19122 3.04354 0.26398C-1.05844 0.660853 -1.05844 7.2754 3.17586 6.87853Z" fill="#1B1F9B"/>
</g>
<defs>
<clipPath id="clip0">
<rect width="375" height="220" fill="white"/>
</clipPath>
</defs>
</svg>
