<svg width="22" height="3" viewBox="0 0 22 3" fill="none" xmlns="http://www.w3.org/2000/svg">
<g clip-path="url(#clip0)">
<path d="M0 1.15789C0.814815 0.631577 1.83333 0.578945 2.78395 0.578945C5.4321 0.631577 8.08025 0.368419 10.6605 0.157892C13.3086 -0.0526338 16.0926 -2.2673e-06 18.7407 0.0526293C20.0309 0.0526293 21.2531 0.526314 21.8642 1.52631C22.2037 2.05263 21.9321 2.52631 21.1852 2.68421C20.8457 2.73684 20.5062 2.73684 20.1667 2.73684C17.6543 2.73684 15.2099 2.73684 12.6975 2.78947C11.7469 2.78947 10.8642 2.94737 9.91358 3C7.12963 3.10526 4.41358 2.8421 1.62963 2.57895C0.475309 2.47368 0.203704 2.15789 0 1.15789Z" fill="#1B1F9B"/>
</g>
<defs>
<clipPath id="clip0">
<rect width="22" height="3" fill="white"/>
</clipPath>
</defs>
</svg>
