<svg width="46" height="47" viewBox="0 0 46 47" fill="none" xmlns="http://www.w3.org/2000/svg">
<path d="M45.8585 24.6652C45.8095 25.2557 45.7606 26.043 45.6627 26.8303C45.5648 27.6668 45.418 28.5525 45.2222 29.389C45.1733 29.5858 45.1244 29.7826 45.0265 29.9794C44.6839 31.0619 44.3413 32.1937 43.9497 33.2762C43.3624 34.9 42.6283 36.4254 41.6984 37.8523C41.0132 38.9348 40.1812 39.9682 39.447 41.0507C38.7619 42.0348 37.8809 42.7729 36.951 43.4617C35.9232 44.1998 34.8954 44.9379 33.6719 45.4792C32.742 45.922 31.7631 46.2173 30.7843 46.5125C30.2459 46.6601 29.6097 46.7093 29.0223 46.7585C28.1903 46.8569 27.3094 46.9553 26.4284 46.9553C25.0091 46.9553 23.5898 47.0045 22.1704 46.8569C21.1426 46.7585 20.1638 46.6109 19.185 46.4141C18.4998 46.2665 17.8146 45.9712 17.1783 45.676C15.9548 45.1839 14.7312 44.6427 13.5566 44.1014C13.1161 43.9046 12.6756 43.5602 12.2841 43.2649C11.4521 42.576 10.669 41.838 9.83698 41.1491C8.80919 40.3126 8.02612 39.2301 7.24304 38.1475C6.80256 37.5571 6.41102 36.9174 6.06843 36.2777C5.57901 35.392 5.08958 34.4571 4.69804 33.5222C4.50228 33.1286 4.45333 32.6857 4.35545 32.2429C4.15968 31.4556 3.91497 30.6683 3.7192 29.8318C3.52343 29.0445 3.3766 28.208 3.57237 27.3715C3.62132 27.1255 3.52343 26.8795 3.47449 26.6334C3.42555 26.1906 3.3766 25.6985 3.42555 25.2557C3.47449 24.5668 3.62131 23.9271 3.76814 23.2383C3.76814 23.1398 3.81708 23.0414 3.81708 22.8938C3.81708 21.4669 4.25756 20.1383 4.6491 18.859C5.04064 17.6288 5.53006 16.3987 6.2642 15.3162C6.65574 14.6765 6.94939 14.0368 7.38987 13.3971C8.02612 12.413 8.80919 11.5765 9.59227 10.74C9.98381 10.3464 10.4243 10.002 10.8158 9.60832C11.4521 8.96864 12.2352 8.42738 13.0182 7.93533C13.8992 7.39407 14.7312 6.8036 15.5632 6.21313C16.7378 5.42584 18.0103 4.83538 19.4297 4.58935C20.1638 4.49094 20.849 4.24491 21.5831 4.09729C21.8278 4.04809 22.0725 3.99888 22.2683 3.94968C22.6599 3.90047 23.0514 3.85127 23.394 3.75285C23.6876 3.70365 23.9813 3.75285 24.2749 3.85127C24.5197 3.94968 24.8133 3.99888 25.058 4.04809C25.7922 4.1465 26.5752 4.1957 27.3094 4.29412C27.4562 4.29412 27.5541 4.34332 27.7009 4.39253C28.3372 4.68776 29.0713 4.83538 29.7565 5.0322C30.197 5.13061 30.5885 5.47505 31.0779 5.52426C31.9099 5.57346 32.6441 5.9671 33.3782 6.31154C33.8676 6.55757 34.3571 6.8528 34.8465 7.14804C35.7764 7.73851 36.6573 8.32897 37.5383 8.91944C38.4682 9.55911 39.1534 10.3956 39.9365 11.1829C40.1812 11.4289 40.4748 11.675 40.7195 11.921C40.8174 12.0194 40.9643 12.1178 41.0621 12.2162C41.6005 12.9543 42.1389 13.6924 42.7262 14.4305C43.5093 15.4146 43.9987 16.5463 44.586 17.6288C44.7328 17.8749 44.7328 18.1701 44.8307 18.4161C45.0265 18.9574 45.2712 19.4494 45.418 19.9907C45.5648 20.4827 45.6138 21.024 45.6627 21.5161C45.7117 22.5002 45.7606 23.4843 45.8585 24.6652Z" fill="#F9DB62"/>
<path d="M22.6603 45.0363C21.6814 45.0363 20.7026 45.0363 19.7237 44.9379C18.5002 44.8395 17.5213 44.6919 16.5914 44.4951C15.9062 44.3475 15.221 44.0522 14.5848 43.8062L14.389 43.7078C13.2144 43.2157 11.9419 42.6745 10.7184 42.1332C10.2289 41.9364 9.78845 41.5919 9.25009 41.1491C8.85855 40.8047 8.46701 40.4602 8.07547 40.1158C7.63499 39.7221 7.24345 39.3777 6.80297 39.0333C5.62836 38.0491 4.79634 36.8682 4.06221 35.8349C3.52384 35.0968 3.1323 34.4571 2.78971 33.8667C2.30029 32.981 1.81086 32.0461 1.37038 31.062C1.17461 30.6683 1.12567 30.3239 1.02779 29.9794C1.02779 29.7826 0.978845 29.6842 0.978845 29.5858L0.832018 28.9461C0.685192 28.3557 0.489423 27.7652 0.342596 27.1255C0.146827 26.2398 -0.0489423 25.3049 0.195769 24.2716C0.195769 24.2224 0.195769 24.1732 0.195769 24.1732C0.146827 24.0256 0.146827 23.8779 0.146827 23.7795C0.146827 23.6811 0.146827 23.5827 0.0978845 23.4351C0 23.0907 0 22.6478 0 22.2542C0.0489423 21.7621 0.146827 21.2208 0.244711 20.778C0.293654 20.5812 0.293654 20.3843 0.342596 20.1875L0.391538 19.9907C0.391538 18.5637 0.783076 17.2352 1.17461 16.0051L1.2725 15.7098C1.71298 14.2337 2.30029 13.0035 2.98548 11.921C3.18125 11.675 3.32807 11.3797 3.4749 11.0353C3.67067 10.6909 3.86644 10.3464 4.11115 10.002C4.84528 8.91945 5.6773 7.98455 6.46038 7.19726C6.70509 6.95123 6.90086 6.75441 7.14557 6.55758C7.34134 6.40997 7.48817 6.26235 7.68393 6.06553C8.41807 5.32745 9.20114 4.78618 10.0332 4.29413C10.8652 3.75287 11.7461 3.1624 12.5782 2.57193C13.9485 1.63703 15.3679 1.04656 16.8361 0.800534C17.2766 0.751328 17.7171 0.603712 18.1576 0.505301C18.4023 0.456095 18.647 0.357684 18.8917 0.308478C19.0875 0.259273 19.3322 0.210067 19.528 0.210067H19.6748C19.8216 0.210067 19.9195 0.160862 20.0663 0.160862C20.311 0.111656 20.5068 0.111656 20.7026 0.0624504C21.2899 -0.0851663 21.8282 0.0624504 22.1219 0.160862C22.2687 0.210067 22.4645 0.259273 22.7092 0.308478C23.1497 0.357684 23.5902 0.406889 23.9817 0.456095C24.3243 0.259273 24.618 0.308478 24.9606 0.357684C25.2053 0.406889 25.45 0.456095 25.6457 0.554506C26.0862 0.751328 26.6246 0.898945 27.163 1.04656L27.5056 1.14497C27.7992 1.19418 27.995 1.34179 28.2397 1.44021C28.3865 1.53862 28.5823 1.58782 28.6802 1.58782C29.6101 1.63703 30.3931 2.03067 31.1273 2.32591L31.323 2.42432C31.9104 2.67035 32.3998 3.01478 32.8892 3.31002C33.7702 3.90048 34.7001 4.49095 35.63 5.13062C36.413 5.67189 37.0493 6.36076 37.6855 7.00044C37.8324 7.14805 38.0281 7.34487 38.175 7.49249C38.3218 7.64011 38.5176 7.78772 38.6644 7.93534C38.7623 8.03375 38.8602 8.08296 38.958 8.18137L39.007 8.23057C39.1049 8.32899 39.2517 8.4274 39.3496 8.57501C39.5453 8.82104 39.7411 9.11627 39.9369 9.3623C40.2795 9.85436 40.6221 10.2972 40.9647 10.7401C41.6009 11.5273 42.0903 12.413 42.4819 13.2495C42.6287 13.5448 42.7755 13.7908 42.9224 14.086C43.0692 14.3321 43.1181 14.5781 43.1671 14.7749C43.1671 14.8241 43.216 14.9225 43.216 14.9717C43.265 15.1194 43.3628 15.3162 43.4118 15.4638C43.5586 15.8082 43.7054 16.2019 43.8033 16.5955C43.9501 17.2352 44.048 17.8749 44.097 18.3177C44.1459 19.0066 44.1949 19.6955 44.2438 20.4828L44.2927 21.5653V21.6637C44.2927 21.8113 44.2438 22.0081 44.2438 22.205C44.1949 22.697 44.1459 23.2875 44.097 23.8779C43.9991 24.6652 43.8523 25.4033 43.7544 26.1414L43.7054 26.4858C43.6565 26.7319 43.6076 26.8795 43.5586 27.0763L43.5097 27.2239C43.4118 27.5684 43.3139 27.9128 43.1671 28.2572C42.9224 28.9953 42.6777 29.7826 42.384 30.5699C41.7477 32.2921 40.9647 33.9159 40.0348 35.3428C39.5943 36.0317 39.1049 36.6714 38.6644 37.3111C38.3707 37.7539 38.0281 38.1476 37.7345 38.5904C36.9514 39.7713 35.8747 40.6078 35.0427 41.2475C34.0149 41.9856 32.8892 42.7729 31.6167 43.3633C30.5889 43.8062 29.5611 44.1506 28.5823 44.4459C27.995 44.5935 27.4566 44.6919 26.9182 44.7411L26.4288 44.8395C25.6457 44.9379 24.8627 44.9871 24.0796 44.9871H23.5902C23.2476 45.0363 22.9539 45.0363 22.6603 45.0363ZM21.2409 1.78465H21.192C20.8983 1.88306 20.6047 1.88306 20.311 1.93226C20.2132 1.93226 20.0663 1.98147 19.9684 1.98147H19.8216C19.6748 2.03067 19.479 2.03067 19.3322 2.07988C19.0875 2.12908 18.8428 2.17829 18.647 2.2767C18.1576 2.42432 17.6682 2.52273 17.1787 2.62114C15.9552 2.81796 14.8295 3.31002 13.7038 4.09731C12.8718 4.68777 11.9909 5.22903 11.1099 5.8195C10.3758 6.31156 9.69057 6.75441 9.10326 7.34487C8.90749 7.5417 8.71172 7.68931 8.51595 7.88614C8.32018 8.08296 8.12442 8.27978 7.92865 8.4766C7.24345 9.16548 6.46038 10.0512 5.82413 10.9861C5.62836 11.2813 5.48153 11.5766 5.28576 11.921C5.09 12.2654 4.94317 12.5607 4.69846 12.9051C4.11115 13.84 3.62173 14.9225 3.23019 16.2511L3.1323 16.5463C2.74077 17.7272 2.39817 18.859 2.39817 19.9907C2.39817 20.1875 2.34923 20.3351 2.34923 20.4336V20.4828C2.30029 20.6796 2.30029 20.8764 2.25134 21.1224C2.10452 21.5653 2.00663 22.0081 1.95769 22.451C1.95769 22.697 1.95769 22.9922 2.00663 23.2875C2.00663 23.3859 2.00663 23.5335 2.05557 23.6319C2.05557 23.6811 2.05557 23.7303 2.10452 23.7795C2.15346 24.0256 2.2024 24.3208 2.15346 24.6652C2.00663 25.3049 2.15346 25.9446 2.30029 26.6827C2.44711 27.2731 2.59394 27.8636 2.74077 28.4049L2.93654 29.0445C2.88759 29.1921 2.93654 29.3398 2.93654 29.4874C2.98548 29.7334 3.03442 30.0286 3.1323 30.1763C3.57278 31.1112 4.01327 31.9969 4.50269 32.8826C4.79634 33.4238 5.13894 33.9651 5.62836 34.654C6.31355 35.5889 7.04769 36.6714 8.02653 37.4587C8.46701 37.8523 8.90749 38.246 9.34797 38.5904C9.73951 38.9348 10.0821 39.2793 10.4736 39.5745C10.8652 39.919 11.2078 40.1158 11.5504 40.3126C12.7739 40.8539 13.9975 41.3951 15.1232 41.8872L15.3189 41.9856C15.9062 42.2316 16.4446 42.4284 16.983 42.5761C17.815 42.7729 18.6959 42.8713 19.8706 43.0189C21.0941 43.1173 22.2687 43.1173 23.5412 43.1173H24.0306C24.7648 43.1173 25.45 43.0189 26.1841 42.9697L26.7714 42.9205C27.2608 42.8713 27.7013 42.8221 28.0439 42.7237C28.9249 42.4284 29.9037 42.1332 30.8336 41.7396C31.9593 41.2475 32.9871 40.5094 33.917 39.8205C34.6511 39.2793 35.5321 38.5904 36.1683 37.6555C36.462 37.2127 36.8046 36.7698 37.0982 36.327C37.5387 35.6873 37.9792 35.0968 38.3707 34.4571C39.2028 33.1286 39.9369 31.6524 40.5242 30.0778C40.7689 29.3398 41.0136 28.5525 41.2583 27.8144C41.3562 27.47 41.4541 27.1255 41.6009 26.7811C41.6009 26.7319 41.6499 26.6335 41.6499 26.5843C41.6988 26.4858 41.6988 26.3874 41.7477 26.3382L41.7967 25.9938C41.9435 25.2557 42.0414 24.5176 42.1393 23.8287C42.1882 23.2875 42.2372 22.7462 42.2861 22.2542C42.2861 22.1065 42.3351 21.9097 42.3351 21.7621L42.2861 20.8272C42.2372 20.0891 42.1882 19.4002 42.1393 18.7114C42.0903 18.1701 42.0414 17.7272 41.9435 17.3828C41.8456 17.0876 41.7477 16.7923 41.6009 16.4971C41.503 16.3003 41.4541 16.1035 41.3562 15.9066C41.3073 15.759 41.2583 15.6114 41.2583 15.513C41.2583 15.4146 41.2094 15.3162 41.2094 15.267C41.0626 14.9717 40.9157 14.6765 40.72 14.3813C40.3284 13.594 39.9369 12.8559 39.3985 12.2162C39.007 11.7242 38.6644 11.2321 38.3218 10.7893C38.126 10.5432 37.9302 10.248 37.7345 10.002C37.7345 10.002 37.6855 9.95277 37.6366 9.95277C37.5877 9.90356 37.5387 9.85436 37.4898 9.85436C37.3919 9.75595 37.3429 9.70674 37.2451 9.60833C37.0493 9.41151 36.8535 9.26389 36.6578 9.06707C36.5109 8.87025 36.3152 8.72263 36.1683 8.52581C35.581 7.93534 35.0427 7.34487 34.4064 6.90202C33.5255 6.26235 32.5955 5.67189 31.7146 5.13062C31.2252 4.83539 30.8336 4.54016 30.3442 4.34333L30.0995 4.24492C29.5122 3.94969 28.9249 3.70366 28.3376 3.65446C27.8481 3.60525 27.5056 3.45763 27.2119 3.31002C27.0651 3.26081 26.9182 3.1624 26.8693 3.1624L26.5267 3.06399C26.0862 2.76876 25.45 2.62114 24.8137 2.32591H24.7648C24.4711 2.2767 24.1285 2.2767 23.8349 2.2275C23.3944 2.17829 22.9539 2.12908 22.5134 2.07988C22.1219 2.03067 21.7793 1.98147 21.4857 1.83385C21.3878 1.78465 21.2899 1.78465 21.2409 1.78465Z" fill="#17219C"/>
<path d="M14.0083 21.3605C14.7031 20.9803 15.2987 20.926 15.9439 20.926C17.6313 21.0346 19.3684 21.0346 21.0558 21.0889C21.6018 20.4373 21.4033 19.677 21.4033 18.971C21.4529 18.0478 21.4033 17.1789 21.4033 16.2557C21.4529 15.3325 21.8003 14.5179 22.247 13.7577C22.9418 14.3007 23.5374 14.7352 24.0833 15.1696C24.4307 15.4411 24.4307 15.8213 24.4803 16.2557C24.53 17.5591 24.5796 18.8624 24.6292 20.1657C24.6292 20.4373 24.6789 20.7088 24.7285 21.0889C26.8626 20.8717 28.8975 21.0346 30.8827 21.3061C31.4783 21.7949 31.7264 22.3923 31.9249 23.0439C32.3716 24.4016 31.9746 24.9989 30.6842 24.9446C29.1952 24.8903 27.6567 24.8903 26.1678 24.836C25.7707 24.836 25.3241 24.836 24.927 24.8903C24.5796 25.542 24.7285 26.248 24.6789 26.8996C24.6789 29.0176 24.6789 31.1355 24.6292 33.1991C24.6292 33.362 24.6292 33.5249 24.5796 33.6878C24.4307 34.2852 23.7855 34.611 23.3388 34.2309C22.644 33.6335 21.9492 33.0362 21.4033 32.2759C21.1551 31.9501 21.0558 31.3527 21.0558 30.864C21.0062 29.5606 21.1055 28.2573 21.0558 26.9539C21.0558 26.248 21.2544 25.4877 20.8573 24.6731C19.1202 24.5645 17.3832 24.2387 15.6461 24.3473C14.2068 24.4559 13.5616 23.3155 13.8098 22.0121C13.8594 21.8492 13.909 21.632 14.0083 21.3605Z" fill="#17219C"/>
</svg>
