<svg width="44" height="21" viewBox="0 0 44 21" fill="none" xmlns="http://www.w3.org/2000/svg">
<path d="M2.67105 10.5557C1.10686 9.691 0.389933 7.76218 0.161821 5.96638C-0.00111627 4.83569 -0.0337037 3.705 0.0314712 2.5743C0.0314712 2.44128 0.0640586 2.275 0.129234 2.17524C0.324758 1.90919 0.68322 1.94245 0.976507 2.00896C3.19245 2.47454 5.53875 3.27267 6.80966 5.2015C7.7547 6.66474 7.88505 8.52706 7.91763 10.2896C7.98281 12.684 7.85246 15.3112 6.25567 17.0405C4.78924 18.537 2.57329 18.9361 0.487695 19.1023C-0.196641 16.2091 0.0966459 12.5842 2.67105 10.5557Z" fill="#D3D2D2"/>
<path d="M4.82165 10.7551C9.12319 5.63378 15.38 2.60752 21.7671 0.844969C22.8751 0.545668 23.9831 0.246368 25.1236 0.113345C28.8386 -0.352233 32.6513 0.645435 35.8775 2.57426C39.1036 4.50309 41.7758 7.32981 43.8288 10.5224C41.3522 14.0142 38.126 17.0405 34.2807 18.936C30.4354 20.8316 25.9709 21.53 21.8323 20.499C20.6917 20.1997 19.5512 19.8007 18.4758 19.3351C13.4899 17.2732 8.82991 14.3467 4.78906 10.7219" fill="#939494"/>
<path d="M15.3799 10.3893C16.7811 8.82629 18.4757 7.29653 20.5613 7.23002C22.5165 7.16351 24.3088 8.39397 25.6123 9.89047C25.7101 10.0235 25.8405 10.1565 25.873 10.3228C25.9056 10.5556 25.7753 10.7884 25.6449 10.9879C24.374 12.9167 22.0603 14.0807 19.7792 13.9144C19.4207 13.8811 19.0623 13.8479 18.7364 13.6816C18.3779 13.5153 18.0846 13.216 17.8239 12.9167C17.2048 12.2516 16.553 11.5533 15.9339 10.8881C15.8361 10.8549 15.5754 10.6554 15.3799 10.3893Z" fill="#D3D2D2"/>
<path d="M34.7369 6.76447C34.7044 6.76447 34.7044 6.76447 34.6718 6.76447C34.2807 6.76447 33.8897 6.93074 33.629 7.19679C33.3683 7.46283 33.1727 7.89516 33.2053 8.26097C33.2379 8.66003 33.3357 9.0591 33.629 9.32515C33.9223 9.59119 34.2807 9.75747 34.6718 9.75747C34.7044 9.75747 34.7044 9.75747 34.7369 9.75747C35.128 9.75747 35.519 9.59119 35.7797 9.32515C36.0404 9.0591 36.236 8.62678 36.2034 8.26097C36.1708 7.8619 36.073 7.46283 35.7797 7.19679C35.4865 6.93074 35.128 6.76447 34.7369 6.76447Z" fill="#D3D2D2"/>
</svg>
