<svg width="36" height="42" viewBox="0 0 36 42" fill="none" xmlns="http://www.w3.org/2000/svg">
<path d="M24.841 13.0149C26.1026 11.7693 27.4085 10.5735 28.8034 9.47755C29.054 9.25664 29.3017 9.08278 29.6383 9.00872C29.9749 8.93467 30.3446 9.0987 30.6698 9.21282C31.3173 9.4881 31.9176 9.76053 32.5681 9.98877C32.7987 10.0972 33.0767 10.2084 33.3631 10.1786C33.6496 10.1487 33.8974 9.97482 34.0979 9.79809C34.5991 9.35627 35.0644 8.72342 35.1988 8.07053C35.3332 7.41764 35.1926 6.60645 34.701 6.10453C33.9401 5.35022 32.7441 5.51389 31.7286 5.83014C31.5839 5.8686 31.3891 5.95124 31.2502 5.89561C30.7803 5.81995 30.6755 5.19979 30.6567 4.72649C30.6994 4.02084 30.884 3.32377 30.7849 2.60953C30.6858 1.89528 30.3503 1.16673 29.6469 1.02972C29.0381 0.898423 28.3951 1.33165 28.1217 1.92891C27.801 2.52331 27.7612 3.18192 27.7686 3.84339C27.776 4.50487 27.7834 5.16634 27.5572 5.76646C27.3283 6.41363 26.8687 6.95239 26.409 7.49116C25.2893 8.74542 24.0836 9.85283 22.7417 10.8576" fill="#F5DFB0"/>
<path d="M25.2288 12.0941C24.3403 11.096 24.3688 10.6256 23.2514 10.2746C20.8747 9.56416 18.2565 10.4916 16.1383 11.7799C15.2504 12.3399 14.4485 13.0468 13.6494 13.7067C11.6474 15.4269 9.64831 17.1001 7.73804 18.8731C5.63014 20.7758 3.56097 22.8224 2.17809 25.2884C0.795215 27.7543 0.0929395 30.7337 0.970583 33.4781C1.41083 34.8268 2.18768 36.1015 3.21797 37.1082C5.27002 39.2627 8.22993 40.5279 11.2166 40.567C14.2033 40.6062 17.1695 39.4165 19.2917 37.2786C19.8959 36.7014 20.4114 36.0244 20.838 35.2475C21.8586 33.279 21.8564 30.9653 21.8957 28.7485C21.935 26.5317 22.1748 24.1382 23.6067 22.4307C24.2725 21.6211 25.2134 20.9698 25.8347 20.1104C26.6623 18.9801 26.987 17.536 26.8303 16.2045C26.6737 14.8729 25.7875 12.2696 25.2288 12.0941Z" fill="#F99E47"/>
<path d="M7.64048 18.9144C9.09682 17.5861 10.5475 16.3518 13.3012 13.9689C13.3513 13.9247 13.7523 13.5712 13.7996 13.5741C13.8469 13.577 13.8913 13.6269 13.9357 13.6768C15.953 14.8377 17.7556 16.4105 19.2603 18.2014C19.5713 18.5507 19.8737 19.0412 19.6117 19.4503C19.4557 19.6769 19.2108 19.8037 18.9687 19.8835C15.9194 20.8793 12.5972 20.1116 9.46416 19.3553C8.81089 19.1741 8.26811 19.519 7.64048 18.9144Z" fill="#C97D37"/>
<path d="M3.17602 23.6962C3.61742 24.2423 4.40395 24.5732 5.05437 24.8015C7.37526 25.6502 9.70469 26.3578 12.037 27.0184C12.8765 27.2581 13.7188 27.4507 14.6199 27.4581C15.0453 27.4838 15.4764 27.4155 15.952 27.3971C17.8127 27.2264 19.6592 27.291 21.4943 27.5438C21.5888 27.5495 21.7306 27.5581 21.7722 27.655C21.861 27.7548 21.9499 27.8546 21.9413 27.9958C21.8963 30.3066 21.9385 31.9618 21.4606 33.5854C21.1684 33.7093 20.899 33.457 20.5738 33.3428C19.6039 32.9064 18.5366 32.5113 17.508 32.2601C16.8547 32.0789 16.2459 31.9476 15.5926 31.7664C14.478 31.3684 13.4278 30.691 12.263 30.3372C11.4708 30.1004 10.67 30.0047 9.82198 29.9061C9.06848 29.8133 8.31497 29.7205 7.54722 29.8629C6.77948 30.0052 6.04761 30.3387 5.62671 31.0214C5.41768 31.3393 5.2975 31.7569 5.36926 32.139C5.43533 32.6152 5.74345 33.0116 6.10454 33.3167C6.55732 33.6746 7.06023 33.9884 7.6218 34.1168C8.36676 34.3508 9.17323 34.3524 9.97686 34.401C10.7776 34.4967 11.5756 34.6395 12.2089 35.15C12.8422 35.6605 13.1663 36.5772 12.787 37.3569C12.4076 38.1366 11.4423 38.4087 10.6472 38.2189C9.8521 38.0291 9.1715 37.5158 8.43793 37.0936C6.47073 35.8886 4.23869 35.1396 2.37458 33.7991C1.73841 33.3357 0.929083 33.3811 0.69102 32.6112C0.497382 31.8913 0.469491 30.0009 0.82148 28.8891C1.02026 27.9568 0.958746 28.1891 1.25492 27.2155C1.37225 26.8449 2.2095 24.7709 2.91403 24.1053" fill="#C97D37"/>
</svg>
