<svg width="32" height="33" viewBox="0 0 32 33" fill="none" xmlns="http://www.w3.org/2000/svg">
<path d="M16.2832 32.3622C15.5798 32.3622 14.8764 32.3622 14.1731 32.2914C13.2938 32.2207 12.5905 32.1147 11.9223 31.9732C11.4299 31.8672 10.9375 31.655 10.4803 31.4782L10.3397 31.4075C9.4956 31.0539 8.58121 30.665 7.70198 30.276C7.3503 30.1346 7.03378 29.8871 6.64692 29.5689C6.36557 29.3214 6.08422 29.0739 5.80286 28.8264C5.48635 28.5435 5.20499 28.296 4.88847 28.0485C4.04442 27.3413 3.44655 26.4927 2.91902 25.7502C2.53216 25.2198 2.25081 24.7602 2.00463 24.3359C1.65294 23.6994 1.30125 23.0276 0.984729 22.3205C0.844053 22.0376 0.808884 21.7901 0.738546 21.5426C0.738546 21.4012 0.703378 21.3304 0.703378 21.2597L0.597871 20.8001C0.492364 20.3758 0.351689 19.9515 0.246182 19.4918C0.105507 18.8554 -0.0351689 18.1836 0.140676 17.4411C0.140676 17.4057 0.140676 17.3703 0.140676 17.3703C0.105507 17.2643 0.105507 17.1582 0.105507 17.0875C0.105507 17.0168 0.105507 16.946 0.0703378 16.84C0 16.5925 0 16.2742 0 15.9914C0.0351689 15.6378 0.105507 15.2489 0.175844 14.9306C0.211013 14.7892 0.211013 14.6478 0.246182 14.5063L0.281351 14.3649C0.281351 13.3395 0.562702 12.3848 0.844053 11.5009L0.914391 11.2887C1.23091 10.228 1.65294 9.34405 2.1453 8.56617C2.28598 8.38938 2.39148 8.17723 2.49699 7.92973C2.63767 7.68222 2.77834 7.43472 2.95419 7.18721C3.48172 6.40933 4.07959 5.73753 4.64229 5.1718C4.81814 4.99501 4.95881 4.85357 5.13466 4.71214C5.27533 4.60607 5.38084 4.49999 5.52151 4.35856C6.04905 3.82819 6.61175 3.43925 7.20962 3.08567C7.80749 2.69673 8.44053 2.27243 9.0384 1.84814C10.0231 1.17633 11.043 0.752037 12.0981 0.575247C12.4146 0.539889 12.7311 0.433814 13.0477 0.363098C13.2235 0.32774 13.3993 0.257024 13.5752 0.221666C13.7159 0.186308 13.8917 0.15095 14.0324 0.15095H14.1379C14.2434 0.15095 14.3137 0.115592 14.4192 0.115592C14.5951 0.0802336 14.7358 0.0802336 14.8764 0.0448755C15.2985 -0.0611987 15.6853 0.0448755 15.8963 0.115592C16.0018 0.15095 16.1425 0.186308 16.3184 0.221666C16.6349 0.257024 16.9514 0.292382 17.2328 0.32774C17.4789 0.186308 17.6899 0.221666 17.9361 0.257024C18.112 0.292382 18.2878 0.32774 18.4285 0.398456C18.745 0.539889 19.1319 0.645963 19.5187 0.752037L19.7649 0.822753C19.9759 0.858112 20.1166 0.964186 20.2924 1.0349C20.3979 1.10562 20.5386 1.14098 20.609 1.14098C21.2772 1.17633 21.8399 1.4592 22.3674 1.67135L22.5081 1.74206C22.9301 1.91885 23.2818 2.16636 23.6335 2.37851C24.2665 2.80281 24.9347 3.2271 25.6029 3.68676C26.1656 4.0757 26.6228 4.57071 27.08 5.03037C27.1855 5.13644 27.3262 5.27787 27.4317 5.38395C27.5372 5.49002 27.6779 5.59609 27.7834 5.70217C27.8538 5.77289 27.9241 5.80824 27.9944 5.87896L28.0296 5.91432C28.0999 5.98503 28.2054 6.05575 28.2758 6.16182C28.4165 6.33861 28.5571 6.55076 28.6978 6.72755C28.944 7.08113 29.1902 7.39936 29.4363 7.71758C29.8935 8.28331 30.2452 8.91975 30.5266 9.52084C30.6321 9.73299 30.7376 9.90978 30.8431 10.1219C30.9486 10.2987 30.9838 10.4755 31.019 10.6169C31.019 10.6523 31.0541 10.723 31.0541 10.7584C31.0893 10.8644 31.1596 11.0059 31.1948 11.112C31.3003 11.3595 31.4058 11.6423 31.4761 11.9252C31.5817 12.3848 31.652 12.8445 31.6872 13.1627C31.7223 13.6577 31.7575 14.1528 31.7927 14.7185L31.8278 15.4964V15.5671C31.8278 15.6732 31.7927 15.8146 31.7927 15.956C31.7575 16.3096 31.7223 16.7339 31.6872 17.1582C31.6168 17.7239 31.5113 18.2543 31.441 18.7847L31.4058 19.0322C31.3706 19.209 31.3355 19.315 31.3003 19.4565L31.2651 19.5625C31.1948 19.81 31.1245 20.0576 31.019 20.3051C30.8431 20.8354 30.6673 21.4012 30.4562 21.9669C29.9991 23.2044 29.4364 24.3712 28.7681 25.3966C28.4516 25.8916 28.0999 26.3513 27.7834 26.8109C27.5724 27.1292 27.3262 27.412 27.1152 27.7303C26.5525 28.5788 25.7788 29.1799 25.1809 29.6396C24.4424 30.17 23.6335 30.7357 22.7191 31.16C21.9805 31.4782 21.242 31.7257 20.5386 31.9379C20.1166 32.0439 19.7297 32.1147 19.3429 32.15L18.9912 32.2207C18.4285 32.2914 17.8658 32.3268 17.3031 32.3268H16.9514C16.7052 32.3622 16.4942 32.3622 16.2832 32.3622ZM15.2633 1.28241H15.2281C15.0171 1.35312 14.8061 1.35312 14.5951 1.38848C14.5247 1.38848 14.4192 1.42384 14.3489 1.42384H14.2434C14.1379 1.4592 13.9972 1.4592 13.8917 1.49456C13.7159 1.52992 13.54 1.56527 13.3993 1.63599C13.0477 1.74206 12.696 1.81278 12.3443 1.8835C11.4651 2.02493 10.6562 2.37851 9.84729 2.94424C9.24941 3.36854 8.61638 3.75747 7.98334 4.18177C7.4558 4.53535 6.96344 4.85357 6.54141 5.27787C6.40074 5.4193 6.26006 5.52538 6.11938 5.66681C5.97871 5.80824 5.83803 5.94968 5.69736 6.09111C5.20499 6.58612 4.64229 7.22257 4.1851 7.89437C4.04442 8.10652 3.93891 8.31867 3.79824 8.56617C3.65756 8.81368 3.55206 9.02583 3.37621 9.27334C2.95419 9.94514 2.6025 10.723 2.32115 11.6777L2.25081 11.8898C1.96946 12.7384 1.72328 13.5517 1.72328 14.3649C1.72328 14.5063 1.68811 14.6124 1.68811 14.6831V14.7185C1.65294 14.8599 1.65294 15.0013 1.61777 15.1781C1.51226 15.4964 1.44192 15.8146 1.40676 16.1328C1.40676 16.3096 1.40676 16.5217 1.44192 16.7339C1.44192 16.8046 1.44192 16.9107 1.47709 16.9814C1.47709 17.0168 1.47709 17.0521 1.51226 17.0875C1.54743 17.2643 1.5826 17.4764 1.54743 17.7239C1.44192 18.1836 1.54743 18.6432 1.65294 19.1736C1.75844 19.5979 1.86395 20.0222 1.96946 20.4111L2.11013 20.8708C2.07496 20.9769 2.11013 21.0829 2.11013 21.189C2.1453 21.3658 2.18047 21.5779 2.25081 21.684C2.56733 22.3558 2.88385 22.9923 3.23554 23.6287C3.44655 24.0177 3.69273 24.4066 4.04442 24.9016C4.53679 25.5734 5.06432 26.3513 5.7677 26.917C6.08422 27.1999 6.40074 27.4827 6.71726 27.7303C6.99861 27.9778 7.24479 28.2253 7.52614 28.4374C7.80749 28.6849 8.05367 28.8264 8.29986 28.9678C9.17908 29.3567 10.0583 29.7457 10.8672 30.0992L11.0079 30.17C11.4299 30.3468 11.8167 30.4882 12.2036 30.5943C12.8015 30.7357 13.4345 30.8064 14.2786 30.9125C15.1578 30.9832 16.0018 30.9832 16.9162 30.9832H17.2679C17.7955 30.9832 18.2878 30.9125 18.8153 30.8771L19.2374 30.8418C19.5891 30.8064 19.9056 30.771 20.1518 30.7003C20.7848 30.4882 21.4882 30.276 22.1564 29.9932C22.9653 29.6396 23.7038 29.1092 24.372 28.6142C24.8996 28.2253 25.5326 27.7303 25.9898 27.0585C26.2008 26.7402 26.447 26.422 26.658 26.1038C26.9745 25.6441 27.2911 25.2198 27.5724 24.7602C28.1703 23.8055 28.6978 22.7448 29.1198 21.6133C29.2957 21.0829 29.4715 20.5172 29.6474 19.9868C29.7177 19.7393 29.788 19.4918 29.8935 19.2443C29.8935 19.209 29.9287 19.1382 29.9287 19.1029C29.9639 19.0322 29.9639 18.9615 29.9991 18.9261L30.0342 18.6786C30.1397 18.1482 30.2101 17.6178 30.2804 17.1228C30.3156 16.7339 30.3507 16.345 30.3859 15.9914C30.3859 15.8853 30.4211 15.7439 30.4211 15.6378L30.3859 14.966C30.3507 14.4356 30.3156 13.9406 30.2804 13.4456C30.2452 13.0567 30.2101 12.7384 30.1397 12.4909C30.0694 12.2788 29.9991 12.0666 29.8935 11.8545C29.8232 11.713 29.788 11.5716 29.7177 11.4302C29.6825 11.3241 29.6474 11.218 29.6474 11.1473C29.6474 11.0766 29.6122 11.0059 29.6122 10.9705C29.5067 10.7584 29.4012 10.5462 29.2605 10.3341C28.9792 9.76835 28.6978 9.23798 28.3109 8.77832C28.0296 8.42474 27.7834 8.07116 27.5372 7.75294C27.3966 7.57615 27.2559 7.364 27.1152 7.18721C27.1152 7.18721 27.08 7.15185 27.0449 7.15185C27.0097 7.11649 26.9745 7.08113 26.9394 7.08113C26.869 7.01042 26.8339 6.97506 26.7635 6.90434C26.6228 6.76291 26.4822 6.65684 26.3415 6.5154C26.236 6.37397 26.0953 6.2679 25.9898 6.12647C25.5678 5.70217 25.1809 5.27787 24.7237 4.95965C24.0907 4.49999 23.4225 4.0757 22.7894 3.68676C22.4377 3.47461 22.1564 3.26246 21.8047 3.12103L21.6289 3.05031C21.2068 2.83816 20.7848 2.66137 20.3628 2.62602C20.0111 2.59066 19.7649 2.48458 19.5539 2.37851C19.4484 2.34315 19.3429 2.27244 19.3077 2.27244L19.0615 2.20172C18.745 1.98957 18.2878 1.8835 17.8306 1.67135H17.7955C17.5844 1.63599 17.3383 1.63599 17.1272 1.60063C16.8107 1.56527 16.4942 1.52992 16.1777 1.49456C15.8963 1.4592 15.6502 1.42384 15.4391 1.31777C15.3688 1.28241 15.2985 1.28241 15.2633 1.28241Z" fill="#E47C59"/>
<path d="M16.9873 20.7599C16.7307 22.0108 16.6826 23.3098 16.875 24.5607C15.977 23.8871 15.0629 23.1975 14.1648 22.524C13.7318 22.2032 13.3148 21.8825 12.8818 21.5617C10.7649 19.9741 8.64804 18.3864 6.46701 16.895C10.2036 14.6819 13.6356 12.0037 17.0514 9.34153C16.8269 10.6085 16.6986 11.8914 16.6505 13.1744C19.473 13.3668 22.3116 13.4149 25.1501 13.3027C24.7973 15.1469 24.7492 17.0714 25.0219 18.9317C25.102 19.4769 25.1983 20.0382 25.0219 20.5674C22.4078 20.5835 19.6334 20.7439 16.9873 20.7599Z" fill="#E47C59"/>
</svg>
