<svg width="69" height="71" viewBox="0 0 69 71" fill="none" xmlns="http://www.w3.org/2000/svg">
<path d="M69 37.1118C68.9263 38.0002 68.8527 39.1848 68.7054 40.3694C68.5581 41.628 68.3372 42.9606 68.0427 44.2192C67.969 44.5154 67.8954 44.8115 67.7481 45.1076C67.2326 46.7364 66.7172 48.4393 66.128 50.068C65.2444 52.5112 64.1398 54.8063 62.7406 56.9534C61.7097 58.5821 60.4578 60.1369 59.3532 61.7657C58.3223 63.2464 56.9967 64.3569 55.5976 65.3934C54.0512 66.504 52.5047 67.6145 50.6637 68.4289C49.2646 69.0952 47.7918 69.5394 46.319 69.9836C45.509 70.2057 44.5517 70.2798 43.668 70.3538C42.4161 70.5019 41.0906 70.65 39.7651 70.65C37.6296 70.65 35.494 70.724 33.3585 70.5019C31.812 70.3538 30.3392 70.1317 28.8664 69.8356C27.8355 69.6135 26.8045 69.1692 25.8472 68.725C24.0062 67.9847 22.1653 67.1703 20.3979 66.3559C19.7352 66.0597 19.0724 65.5415 18.4833 65.0973C17.2314 64.0608 16.0532 62.9502 14.8013 61.9137C13.2549 60.6551 12.0766 59.0264 10.8984 57.3976C10.2357 56.5091 9.64654 55.5467 9.13106 54.5842C8.39466 53.2516 7.65827 51.8449 7.06915 50.4382C6.7746 49.8459 6.70096 49.1796 6.55368 48.5133C6.25912 47.3287 5.89092 46.1441 5.59636 44.8855C5.3018 43.701 5.08089 42.4424 5.37544 41.1838C5.44908 40.8136 5.3018 40.4434 5.22817 40.0732C5.15453 39.4069 5.08089 38.6665 5.15453 38.0002C5.22817 36.9637 5.44908 36.0013 5.67 34.9648C5.67 34.8167 5.74364 34.6686 5.74364 34.4465C5.74364 32.2995 6.4064 30.3005 6.99551 28.3756C7.58463 26.5247 8.32103 24.6738 9.42562 23.045C10.0147 22.0826 10.4566 21.1201 11.1193 20.1576C12.0766 18.6769 13.2549 17.4183 14.4331 16.1597C15.0222 15.5674 15.685 15.0492 16.2741 14.4569C17.2314 13.4944 18.4096 12.68 19.5879 11.9397C20.9134 11.1253 22.1653 10.2368 23.4171 9.34841C25.1845 8.16384 27.0991 7.27541 29.2346 6.90524C30.3392 6.75716 31.3702 6.38699 32.4748 6.16488C32.843 6.09084 33.2112 6.01681 33.5057 5.94277C34.0949 5.86874 34.684 5.7947 35.1994 5.64663C35.6413 5.57259 36.0831 5.64663 36.525 5.7947C36.8932 5.94277 37.335 6.01681 37.7032 6.09084C38.8078 6.23891 39.986 6.31295 41.0906 6.46102C41.3115 6.46102 41.4588 6.53506 41.6797 6.60909C42.637 7.05331 43.7416 7.27541 44.7726 7.57156C45.4353 7.71963 46.0245 8.23788 46.7608 8.31191C48.0127 8.38595 49.1173 8.97823 50.2219 9.49648C50.9583 9.86666 51.6947 10.3109 52.4311 10.7551C53.8302 11.6435 55.1558 12.5319 56.4813 13.4204C57.8804 14.3828 58.9114 15.6414 60.0896 16.826C60.4578 17.1962 60.8996 17.5664 61.2678 17.9366C61.4151 18.0846 61.636 18.2327 61.7833 18.3808C62.5933 19.4913 63.4034 20.6018 64.2871 21.7124C65.4653 23.1931 66.2017 24.8959 67.0854 26.5247C67.3063 26.8949 67.3063 27.3391 67.4536 27.7093C67.7481 28.5237 68.1163 29.264 68.3372 30.0784C68.5581 30.8188 68.6318 31.6332 68.7054 32.3735C68.7791 33.8542 68.8527 35.3349 69 37.1118Z" fill="#F9DB62"/>
<path d="M34.0951 67.7626C32.6223 67.7626 31.1495 67.7626 29.6767 67.6145C27.8357 67.4664 26.3629 67.2443 24.9638 66.9482C23.9328 66.7261 22.9019 66.2819 21.9446 65.9117L21.65 65.7636C19.8827 65.0233 17.968 64.2089 16.1271 63.3945C15.3907 63.0983 14.7279 62.5801 13.9179 61.9138C13.3287 61.3955 12.7396 60.8773 12.1505 60.359C11.4878 59.7667 10.8986 59.2485 10.2359 58.7302C8.46854 57.2495 7.21667 55.4727 6.11208 53.9179C5.30204 52.8074 4.71293 51.8449 4.19745 50.9565C3.46106 49.6238 2.72466 48.2172 2.06191 46.7364C1.76735 46.1442 1.69371 45.6259 1.54643 45.1077C1.54643 44.8115 1.47279 44.6634 1.47279 44.5154L1.25187 43.5529C1.03095 42.6645 0.736395 41.7761 0.515477 40.8136C0.220919 39.4809 -0.0736395 38.0743 0.294558 36.5195C0.294558 36.4455 0.294558 36.3715 0.294558 36.3715C0.220919 36.1493 0.220919 35.9272 0.220919 35.7792C0.220919 35.6311 0.220919 35.483 0.147279 35.2609C0 34.7427 0 34.0763 0 33.4841C0.0736395 32.7437 0.220918 31.9293 0.368198 31.263C0.441837 30.9668 0.441837 30.6707 0.515477 30.3746L0.589116 30.0784C0.589116 27.9314 1.17823 25.9324 1.76735 24.0815L1.91463 23.6373C2.57738 21.4162 3.46106 19.5653 4.49201 17.9366C4.78657 17.5664 5.00749 17.1222 5.2284 16.6039C5.52296 16.0857 5.81752 15.5674 6.18572 15.0492C7.29031 13.4204 8.54218 12.0137 9.72041 10.8291C10.0886 10.459 10.3832 10.1628 10.7514 9.86667C11.0459 9.64457 11.2668 9.42246 11.5614 9.12632C12.666 8.01578 13.8442 7.20139 15.0961 6.46103C16.348 5.64664 17.6735 4.75821 18.9254 3.86978C20.9873 2.46311 23.1228 1.57468 25.332 1.2045C25.9947 1.13046 26.6575 0.908357 27.3203 0.760285C27.6884 0.68625 28.0566 0.538178 28.4248 0.464143C28.7194 0.390107 29.0876 0.316071 29.3822 0.316071H29.6031C29.824 0.316071 29.9713 0.242035 30.1922 0.242035C30.5604 0.168 30.8549 0.168 31.1495 0.0939641C32.0332 -0.128143 32.8432 0.0939641 33.2851 0.242035C33.506 0.316071 33.8005 0.390107 34.1687 0.464143C34.8315 0.538178 35.4942 0.612214 36.0834 0.68625C36.5988 0.390107 37.0407 0.464143 37.5561 0.538178C37.9243 0.612214 38.2925 0.68625 38.5871 0.834321C39.2499 1.13046 40.0599 1.35257 40.8699 1.57468L41.3854 1.72275C41.8272 1.79678 42.1218 2.01889 42.49 2.16696C42.7109 2.31503 43.0055 2.38907 43.1527 2.38907C44.5519 2.46311 45.7301 3.05539 46.8347 3.49961L47.1293 3.64768C48.013 4.01786 48.7493 4.53611 49.4857 4.98032C50.8112 5.86875 52.2104 6.75718 53.6096 7.71964C54.7878 8.53403 55.7451 9.57053 56.7024 10.533C56.9233 10.7551 57.2179 11.0512 57.4388 11.2734C57.6597 11.4955 57.9543 11.7176 58.1752 11.9397C58.3225 12.0877 58.4698 12.1618 58.617 12.3099L58.6907 12.3839C58.838 12.532 59.0589 12.68 59.2062 12.9021C59.5007 13.2723 59.7953 13.7165 60.0898 14.0867C60.6053 14.8271 61.1208 15.4934 61.6363 16.1597C62.5936 17.3443 63.33 18.6769 63.9191 19.9355C64.14 20.3797 64.3609 20.7499 64.5818 21.1941C64.8027 21.5643 64.8764 21.9345 64.95 22.2306C64.95 22.3047 65.0237 22.4527 65.0237 22.5268C65.0973 22.7489 65.2446 23.045 65.3182 23.2671C65.5392 23.7854 65.7601 24.3777 65.9074 24.97C66.1283 25.9324 66.2756 26.8949 66.3492 27.5612C66.4228 28.5977 66.4965 29.6342 66.5701 30.8188L66.6437 32.4476V32.5956C66.6437 32.8177 66.5701 33.1139 66.5701 33.41C66.4965 34.1504 66.4228 35.0388 66.3492 35.9272C66.2019 37.1118 65.981 38.2223 65.8337 39.3329L65.7601 39.8511C65.6864 40.2213 65.6128 40.4434 65.5392 40.7396L65.4655 40.9617C65.3182 41.4799 65.171 41.9982 64.95 42.5164C64.5818 43.6269 64.2136 44.8115 63.7718 45.9961C62.8145 48.5873 61.6363 51.0305 60.2371 53.1775C59.5744 54.214 58.838 55.1765 58.1752 56.139C57.7334 56.8053 57.2179 57.3976 56.7761 58.0639C55.5978 59.8408 53.9778 61.0994 52.7259 62.0618C51.1795 63.1724 49.4857 64.3569 47.5711 65.2454C46.0247 65.9117 44.4783 66.4299 43.0055 66.8741C42.1218 67.0963 41.3118 67.2443 40.5017 67.3184L39.7653 67.4664C38.5871 67.6145 37.4089 67.6885 36.2306 67.6885H35.4942C34.9788 67.7626 34.5369 67.7626 34.0951 67.7626ZM31.9595 2.68521H31.8859C31.4441 2.83328 31.0022 2.83328 30.5604 2.90732C30.4131 2.90732 30.1922 2.98136 30.0449 2.98136H29.824C29.6031 3.05539 29.3085 3.05539 29.0876 3.12943C28.7194 3.20346 28.3512 3.2775 28.0566 3.42557C27.3203 3.64768 26.5839 3.79575 25.8475 3.94382C24.0065 4.23996 22.3128 4.98032 20.6191 6.16489C19.3672 7.05332 18.0417 7.86771 16.7162 8.75614C15.6116 9.4965 14.5806 10.1628 13.6969 11.0512C13.4024 11.3474 13.1078 11.5695 12.8133 11.8656C12.5187 12.1618 12.2242 12.4579 11.9296 12.7541C10.8986 13.7906 9.72041 15.1232 8.7631 16.5299C8.46854 16.9741 8.24762 17.4183 7.95307 17.9366C7.65851 18.4548 7.43759 18.899 7.06939 19.4173C6.18572 20.824 5.44932 22.4527 4.86021 24.4517L4.71293 24.8959C4.12381 26.6728 3.60834 28.3756 3.60834 30.0784C3.60834 30.3746 3.5347 30.5967 3.5347 30.7447V30.8188C3.46106 31.1149 3.46106 31.4111 3.38742 31.7812C3.1665 32.4476 3.01922 33.1139 2.94558 33.7802C2.94558 34.1504 2.94558 34.5946 3.01922 35.0388C3.01922 35.1869 3.01922 35.409 3.09286 35.5571C3.09286 35.6311 3.09286 35.7051 3.1665 35.7792C3.24014 36.1493 3.31378 36.5936 3.24014 37.1118C3.01922 38.0743 3.24014 39.0367 3.46106 40.1473C3.68197 41.0357 3.90289 41.9241 4.12381 42.7385L4.41837 43.701C4.34473 43.9231 4.41837 44.1452 4.41837 44.3673C4.49201 44.7375 4.56565 45.1817 4.71293 45.4038C5.37568 46.8105 6.03844 48.1431 6.77483 49.4758C7.21667 50.2902 7.73215 51.1045 8.46854 52.141C9.4995 53.5477 10.6041 55.1765 12.0769 56.3611C12.7396 56.9534 13.4024 57.5457 14.0651 58.0639C14.6543 58.5822 15.1697 59.1004 15.7589 59.5446C16.348 60.0629 16.8634 60.359 17.3789 60.6552C19.2199 61.4695 21.0609 62.2839 22.7546 63.0243L23.0492 63.1724C23.9328 63.5425 24.7429 63.8387 25.5529 64.0608C26.8048 64.3569 28.1303 64.505 29.8976 64.7271C31.7386 64.8752 33.506 64.8752 35.4206 64.8752H36.157C37.2616 64.8752 38.2925 64.7271 39.3971 64.6531L40.2808 64.579C41.0172 64.505 41.68 64.431 42.1954 64.2829C43.5209 63.8387 44.9937 63.3945 46.3929 62.8022C48.0866 62.0618 49.633 60.9513 51.0322 59.9148C52.1368 59.1004 53.4623 58.0639 54.4196 56.6572C54.8614 55.9909 55.3769 55.3246 55.8187 54.6583C56.4815 53.6958 57.1443 52.8074 57.7334 51.8449C58.9852 49.8459 60.0898 47.6249 60.9735 45.2557C61.3417 44.1452 61.7099 42.9606 62.0781 41.8501C62.2254 41.3318 62.3727 40.8136 62.5936 40.2953C62.5936 40.2213 62.6672 40.0732 62.6672 39.9992C62.7409 39.8511 62.7409 39.7031 62.8145 39.629L62.8881 39.1108C63.1091 38.0002 63.2563 36.8897 63.4036 35.8532C63.4772 35.0388 63.5509 34.2244 63.6245 33.4841C63.6245 33.2619 63.6982 32.9658 63.6982 32.7437L63.6245 31.337C63.5509 30.2265 63.4772 29.19 63.4036 28.1535C63.33 27.3391 63.2563 26.6728 63.109 26.1545C62.9618 25.7103 62.8145 25.2661 62.5936 24.8219C62.4463 24.5257 62.3727 24.2296 62.2254 23.9335C62.1517 23.7113 62.0781 23.4892 62.0781 23.3412C62.0781 23.1931 62.0045 23.045 62.0045 22.971C61.7835 22.5268 61.5626 22.0826 61.2681 21.6383C60.6789 20.4538 60.0898 19.3432 59.2798 18.3808C58.6907 17.6404 58.1752 16.9001 57.6597 16.2337C57.3652 15.8636 57.0706 15.4194 56.7761 15.0492C56.7761 15.0492 56.7024 14.9751 56.6288 14.9751C56.5551 14.9011 56.4815 14.8271 56.4079 14.8271C56.2606 14.679 56.1869 14.605 56.0397 14.4569C55.7451 14.1607 55.4505 13.9386 55.156 13.6425C54.9351 13.3464 54.6405 13.1242 54.4196 12.8281C53.5359 11.9397 52.7259 11.0512 51.7686 10.3849C50.4431 9.42246 49.0439 8.53403 47.7184 7.71964C46.982 7.27543 46.3929 6.83121 45.6565 6.53507L45.2883 6.387C44.4046 5.94278 43.5209 5.57261 42.6373 5.49857C41.9009 5.42453 41.3854 5.20243 40.9436 4.98032C40.7226 4.90628 40.5017 4.75821 40.4281 4.75821L39.9126 4.61014C39.2499 4.16593 38.2925 3.94382 37.3352 3.49961H37.2616C36.8197 3.42557 36.3043 3.42557 35.8624 3.35153C35.1997 3.2775 34.5369 3.20346 33.8742 3.12943C33.2851 3.05539 32.7696 2.98136 32.3277 2.75925C32.1805 2.68521 32.0332 2.68521 31.9595 2.68521Z" fill="#17219C"/>
<path d="M21.3414 31.3156C22.2884 30.7998 23.1 30.7262 23.9794 30.7262C26.2791 30.8735 28.6465 30.8735 30.9463 30.9472C31.6903 30.063 31.4198 29.0314 31.4198 28.0736C31.4874 26.821 31.4198 25.642 31.4198 24.3894C31.4874 23.1368 31.9609 22.0316 32.5697 21C33.5166 21.7368 34.3283 22.3263 35.0724 22.9158C35.5458 23.2842 35.5458 23.8 35.6135 24.3894C35.6811 26.1578 35.7488 27.9262 35.8164 29.6946C35.8164 30.063 35.884 30.4314 35.9517 30.9472C38.8602 30.6525 41.6335 30.8735 44.3391 31.2419C45.1508 31.9051 45.489 32.7156 45.7595 33.5998C46.3683 35.4419 45.8272 36.2524 44.0685 36.1787C42.0393 36.105 39.9425 36.105 37.9133 36.0313C37.3721 36.0313 36.7634 36.0313 36.2222 36.105C35.7488 36.9892 35.9517 37.9471 35.884 38.8313C35.884 41.7049 35.884 44.5785 35.8164 47.3785C35.8164 47.5995 35.8164 47.8206 35.7488 48.0416C35.5458 48.8522 34.6665 49.2943 34.0578 48.7785C33.1108 47.968 32.1638 47.1574 31.4198 46.1259C31.0816 45.6838 30.9463 44.8733 30.9463 44.2101C30.8787 42.4417 31.0139 40.6733 30.9463 38.905C30.9463 37.9471 31.2169 36.9155 30.6757 35.8103C28.3083 35.6629 25.9409 35.2208 23.5735 35.3682C21.6119 35.5155 20.7326 33.9682 21.0708 32.1998C21.1385 31.9788 21.2061 31.684 21.3414 31.3156Z" fill="#17219C"/>
</svg>
