<svg width="75" height="73" viewBox="0 0 75 73" fill="none" xmlns="http://www.w3.org/2000/svg">
<g clip-path="url(#clip0)">
<path d="M3.9032 3.44242C7.12387 2.70652 10.2539 2.26923 13.535 2.28811C14.9285 2.32811 16.2444 2.21528 17.6401 2.18004C18.462 2.12832 19.3637 2.15421 20.1855 2.10249C20.5954 2.11426 21.0872 2.12838 21.4971 2.14014C24.8644 2.01089 28.1498 1.87928 31.5171 1.75003C32.339 1.69832 33.2429 1.64896 34.0626 1.67249C37.6715 1.70078 41.2805 1.72907 44.8894 1.75737C46.2851 1.72213 47.6031 1.53404 48.9967 1.57405C52.6876 1.60469 56.3763 1.71058 60.0672 1.74123C62.2805 1.80476 64.4959 1.79305 66.7911 1.85894C70.3979 1.96247 71.2845 2.51506 72.3414 5.70821C72.6455 6.5453 72.7037 7.37533 72.7598 8.2806C72.9063 11.7488 73.0529 15.2171 73.0355 18.6806C73.0741 25.911 73.3564 33.2237 73.0671 40.4447C72.9612 44.1316 72.6095 47.8115 72.2577 51.4913C72.0506 52.9915 72.1713 54.5011 72.0462 56.0036C71.7872 59.3096 71.4462 62.6132 71.1872 65.9192C70.9304 69.15 68.5682 71.4166 64.8708 71.6117C63.3091 71.7175 61.7537 71.5975 60.1963 71.5528C57.7371 71.4822 55.1938 71.4845 52.7368 71.3387C51.8351 71.3128 50.8558 71.1341 49.9541 71.1082C45.9353 71.0681 41.9165 71.0281 37.8157 70.9857C36.3402 70.9433 34.9531 70.6776 33.4798 70.56C32.9082 70.4683 32.2545 70.3742 31.6786 70.433C28.8872 70.5035 26.0117 70.6468 23.2203 70.7173C18.5393 70.8842 13.7784 70.9734 9.09734 71.1402C7.78362 71.1778 6.5562 71.0673 5.3439 70.4301C3.16305 69.2379 2.06727 67.3991 1.63592 65.2782C1.4224 64.1425 1.37499 62.9362 1.32757 61.73C1.2349 59.2423 0.980453 56.6746 1.21567 54.1963C1.36028 52.0166 1.34311 49.7569 1.15983 47.5678C1.04772 45.7573 1.18153 43.9538 1.23337 42.1479C1.28953 40.1916 1.26371 38.2329 1.2379 36.2743C1.25734 35.5971 1.27894 34.8446 1.29838 34.1675C1.31566 33.5655 1.49904 32.893 1.35238 32.2864C0.998672 30.3183 1.30075 28.369 1.43888 26.4151C1.73674 21.7547 2.11225 17.2472 2.4856 12.8149C2.61509 11.1619 2.82655 9.51123 3.28177 7.94289C3.64422 6.74841 3.67662 5.61977 3.71118 4.41588C3.71982 4.1149 3.81043 3.81628 3.9032 3.44242Z" fill="white"/>
<g clip-path="url(#clip1)">
<path d="M17.1245 44.9958C17.14 46.9494 17.5115 48.9345 18.3939 50.6675C19.2917 52.4005 20.7313 53.8814 22.5115 54.6219C23.3165 54.9527 24.2298 55.126 25.0502 54.8424C25.8706 54.5589 26.4744 53.8657 27.109 53.267C29.1679 51.3292 31.8304 50.2106 34.4155 49.1393C37.6818 47.7844 40.948 46.4295 44.2143 45.0589C45.4527 44.539 46.7066 44.0191 47.8675 43.3416C49.5084 42.3806 50.9635 41.136 52.4186 39.8756C53.2855 39.1351 54.1524 38.3789 54.8025 37.4494C55.7932 36.0472 56.2422 34.3142 56.5208 32.6128C56.9078 30.3283 57.0316 27.9967 56.9233 25.6965C53.9047 28.2487 52.6663 32.3134 50.4991 35.6376C49.8335 36.6617 49.044 37.6542 47.9759 38.2371C47.0936 38.7255 46.0719 38.8831 45.0657 38.9776C42.7592 39.2139 40.4217 39.1509 38.0997 39.1982C30.7778 39.3557 23.2391 40.7579 17.2174 44.9958" fill="#E6652D"/>
<path d="M52.247 17.0789C50.9932 16.7323 49.7702 17.6461 48.7331 18.4495C47.6495 19.2688 46.5195 20.025 45.343 20.6867C37.8507 24.9404 28.5783 25.9014 22.0613 31.5888C20.3585 33.0698 18.8879 34.8815 18.0829 37.0084C17.5257 38.4893 17.3244 40.0963 17.1387 41.6718C17.0303 42.6485 16.9219 43.6253 16.9993 44.6179C17.2006 47.4694 18.9808 50.1477 21.504 51.4081C22.6031 51.9595 23.9343 52.2431 25.0334 51.7074C26.5659 50.967 27.0767 49.0134 28.1758 47.7058C28.9962 46.729 30.1572 46.0988 31.2873 45.5316C37.7733 42.3177 44.7702 40.2223 51.0086 36.5358C52.4947 35.6535 53.9498 34.661 54.9405 33.2431C55.8229 31.9827 56.2873 30.4545 56.5969 28.9263C57.0458 26.6734 57.1851 24.2945 56.5195 22.1046C55.8538 19.9147 54.3058 17.8824 52.1541 17.1577" fill="#EF7744"/>
<path d="M17.1863 42.7272C18.4866 44.0978 19.5392 45.626 20.7312 47.0912C21.9696 48.6194 23.4866 49.927 24.8643 51.2977C25.081 51.5025 25.4061 51.1716 25.1894 50.9668C23.7962 49.5962 22.2792 48.2886 21.0563 46.7604C19.8643 45.2952 18.8117 43.767 17.5114 42.3964C17.3101 42.1758 16.9696 42.5224 17.1863 42.7272Z" fill="#7F3214"/>
<path d="M19.3378 35.4013C21.2728 36.8823 22.8517 38.7571 24.4771 40.5846C26.1954 42.5066 27.9136 44.4445 29.6164 46.3665C29.8177 46.5871 30.1427 46.2562 29.9415 46.0357C28.1613 44.0348 26.3811 42.034 24.5855 40.0174C23.0065 38.2372 21.4585 36.4254 19.5545 34.9917C19.3378 34.8027 19.1056 35.2123 19.3378 35.4013Z" fill="#7F3214"/>
<path d="M23.7497 30.6119C26.0562 33.0381 28.502 35.3856 30.6382 37.9693C31.5361 39.0564 32.5113 39.9386 33.6104 40.8051C34.1367 41.2305 34.6785 41.6716 35.1274 42.1915C35.4215 42.5381 35.6382 43.1211 36.0871 43.2944C36.1645 43.3259 36.2574 43.2944 36.3193 43.2313C36.4277 43.1053 36.4432 43.0265 36.4122 42.8532C36.3967 42.7745 36.3193 42.6957 36.2574 42.6957C36.2419 42.6957 36.211 42.6957 36.1955 42.6799C35.9014 42.6327 35.7775 43.0896 36.0717 43.1368C36.4277 43.1841 35.7466 42.2073 35.7311 42.1758C35.5763 41.971 35.406 41.7819 35.2203 41.5929C34.7713 41.1202 34.2605 40.7264 33.7652 40.3168C32.6506 39.4345 31.7218 38.505 30.8085 37.4179C28.7032 34.9287 26.3348 32.6443 24.0902 30.2811C23.8735 30.0605 23.5484 30.3914 23.7497 30.6119Z" fill="#7F3214"/>
<path d="M30.7776 26.689C32.0005 27.8864 33.2235 29.0995 34.4309 30.2968C35.081 30.9428 35.7157 31.6202 36.242 32.3764C36.6445 32.9594 37.0005 33.5738 37.4959 34.0779C38.595 35.2123 39.7714 36.2363 40.8241 37.4179C41.3349 37.9851 41.8303 38.568 42.3566 39.1036C42.6817 39.4345 43.1461 40.1119 43.6724 40.0962C43.7807 40.0962 43.8581 40.0174 43.8891 39.9229C43.9355 39.7811 43.92 39.7023 43.8426 39.592C43.7807 39.5133 43.6878 39.4502 43.5795 39.4817C43.564 39.4817 43.5331 39.4975 43.5176 39.4975C43.2389 39.6078 43.3628 40.0647 43.6414 39.9544C43.6569 39.9544 43.6878 39.9386 43.7033 39.9386C43.6104 39.9071 43.5331 39.8599 43.4402 39.8283C43.4402 39.8126 43.4402 39.8126 43.4402 39.7968C43.5176 39.7338 43.595 39.6866 43.6569 39.6235C43.3937 39.6393 42.9448 39.0406 42.7591 38.8673C42.5114 38.6152 42.2637 38.3474 42.016 38.0796C41.5052 37.5124 41.0098 36.9295 40.499 36.3781C39.4773 35.2438 38.1306 34.33 37.2327 33.0854C36.4123 31.9353 35.6228 30.864 34.6166 29.8557C33.4402 28.6741 32.2482 27.5083 31.0563 26.3424C30.886 26.1376 30.5609 26.4685 30.7776 26.689Z" fill="#7F3214"/>
<path d="M37.9139 24.4361C38.595 24.6882 39.1678 25.4759 39.6631 25.9643C40.1739 26.4685 40.7003 26.9884 41.2111 27.4925C42.2792 28.5481 43.3628 29.6036 44.4309 30.6592C46.4433 32.6285 48.4402 34.5978 50.4526 36.5672C50.5145 36.6302 50.6074 36.6617 50.6848 36.6302C50.9479 36.5356 51.0408 36.2678 50.8241 36.063C50.6074 35.8582 50.2823 36.189 50.499 36.3939C50.6693 36.126 50.6229 35.937 50.3597 35.8109C50.2204 35.6691 50.0811 35.5274 49.9263 35.3856C49.6476 35.102 49.3535 34.8342 49.0749 34.5506C48.5795 34.0622 48.0842 33.5738 47.5888 33.0854C46.5052 32.0141 45.4061 30.9428 44.3226 29.8715C43.2235 28.8002 42.1089 27.7131 40.9944 26.6103C40.4371 26.0589 39.8798 25.5232 39.3226 24.9718C38.9201 24.5779 38.564 24.1683 38.0222 23.9635C37.7591 23.869 37.6352 24.3259 37.9139 24.4361Z" fill="#7F3214"/>
<path d="M45.7004 20.6078C47.3413 22.2935 48.9822 23.9793 50.6076 25.6493C51.4125 26.4685 52.2175 27.3035 53.0224 28.1227C53.4404 28.5481 53.8583 28.9735 54.2763 29.4146C54.5859 29.7297 55.4528 30.3599 55.4992 30.8167C55.5302 31.1161 55.9946 31.1161 55.9636 30.8167C55.9172 30.4071 55.7314 30.2338 55.4373 29.9345C55.0193 29.4934 54.6014 29.0837 54.1834 28.6426C53.2856 27.7131 52.3723 26.7836 51.4744 25.8541C49.6633 23.995 47.8521 22.1202 46.0255 20.2612C45.8243 20.0564 45.4837 20.3872 45.7004 20.6078Z" fill="#7F3214"/>
<path d="M17.9908 38.8988C27.3097 33.306 36.9846 28.3275 46.9227 23.995C49.8329 22.7347 52.7741 21.5216 55.7308 20.3715C56.0094 20.2612 55.8856 19.8043 55.6069 19.9146C45.4367 23.8847 35.5295 28.5166 25.9475 33.7786C23.1921 35.291 20.4521 36.8665 17.7432 38.4892C17.4955 38.6468 17.7277 39.0406 17.9908 38.8988Z" fill="#7F3214"/>
<path d="M17.6817 46.1302C18.6879 45.1534 19.8024 44.3184 21.0563 43.6725C22.3411 43.0108 23.7343 42.6642 25.0811 42.1758C27.6353 41.2463 29.9263 39.6708 32.4031 38.5522C35.0037 37.3706 37.6198 36.2363 40.1585 34.9287C42.6507 33.6526 45.0966 32.2977 47.5733 31.0058C50.4526 29.5091 53.3628 28.0912 56.3969 26.9569C56.6755 26.8466 56.5517 26.3897 56.273 26.5C50.9325 28.5008 45.9789 31.3682 40.9325 33.9992C38.3938 35.3226 35.8241 36.5199 33.208 37.67C31.8458 38.2687 30.499 38.8831 29.1987 39.592C27.8829 40.301 26.6136 41.0887 25.2204 41.6244C23.7963 42.1758 22.3102 42.5224 20.9325 43.2156C19.6012 43.8773 18.4093 44.7595 17.3566 45.7993C17.1399 46.0041 17.465 46.3507 17.6817 46.1302Z" fill="#7F3214"/>
<path d="M20.4216 50.0688C29.4309 44.8856 38.982 40.7106 48.3628 36.2993C49.6941 35.6692 51.0408 35.039 52.3721 34.4245C53.0222 34.1252 53.6569 33.8259 54.3071 33.5108C54.7405 33.306 55.2978 33.2114 55.4526 32.7231C55.4835 32.6285 55.4371 32.5025 55.3442 32.4552C55.3133 32.4395 55.2978 32.4237 55.2668 32.408C55.1894 32.3607 55.0965 32.3607 55.0346 32.408C55.0037 32.4237 54.9727 32.4395 54.9572 32.4552C54.8489 32.534 54.8179 32.66 54.8798 32.7861C54.8953 32.8018 54.8953 32.8176 54.9108 32.8333C55.0346 33.1012 55.4371 32.8648 55.3133 32.597C55.2978 32.5813 55.2978 32.5655 55.2823 32.5498C55.2513 32.66 55.2204 32.7703 55.2049 32.8806C55.1739 32.8806 55.1585 32.8806 55.1275 32.8648C55.0965 32.7703 55.0501 32.6915 55.0191 32.597C54.9108 32.9121 53.8272 33.2272 53.5331 33.369C52.9294 33.6526 52.3411 33.9362 51.7374 34.204C50.5455 34.7711 49.338 35.3226 48.1461 35.8897C45.8396 36.9768 43.5331 38.0638 41.2266 39.1509C36.691 41.2935 32.1244 43.3731 27.6352 45.626C25.112 46.8864 22.6507 48.257 20.2049 49.6592C19.9263 49.8167 20.1585 50.2264 20.4216 50.0688Z" fill="#7F3214"/>
</g>
</g>
<defs>
<clipPath id="clip0">
<rect width="72.1652" height="70.833" fill="white" transform="translate(2.03271) rotate(1.64427)"/>
</clipPath>
<clipPath id="clip1">
<rect width="40" height="38" fill="white" transform="translate(17.0005 17)"/>
</clipPath>
</defs>
</svg>
