<svg width="34" height="34" viewBox="0 0 34 34" fill="none" xmlns="http://www.w3.org/2000/svg">
<path d="M0.0430013 15.8674C0.0430013 12.7481 1.06209 9.35768 3.22764 6.50969C5.77536 3.11923 9.08739 1.08495 13.1637 0.542475C14.3102 0.406856 15.4567 0.135619 16.6031 0C17.1127 0 17.6222 5.15323e-07 18.1318 0.135619C22.7177 1.62742 26.6666 3.93294 29.5965 8.00149C32.2716 11.9344 34.9467 16.003 33.6728 21.2921C32.6537 25.6319 30.6156 29.2936 26.4118 31.1923C24.7558 32.006 23.0998 32.9553 21.4438 33.4978C17.7496 34.7183 14.0554 33.4978 10.616 32.1416C7.17661 30.7854 4.5015 28.2087 2.33594 24.9538C0.679929 22.6483 -0.21177 19.6647 0.0430013 15.8674Z" fill="#FF5050"/>
<path d="M15.2389 20.4284C15.3481 19.8197 15.4652 19.3125 15.5901 18.9067C15.7149 18.4853 15.9178 18.0483 16.1987 17.5957L16.1753 17.6191C16.2689 17.4475 16.4874 17.1353 16.8308 16.6827L16.9947 16.472C17.4004 15.9414 17.7048 15.5044 17.9077 15.161C18.1106 14.8021 18.212 14.4587 18.212 14.131C18.212 13.694 17.9857 13.3897 17.5331 13.218C17.3926 13.1712 17.2756 13.1478 17.1819 13.1478C17.0103 13.1478 16.8698 13.2024 16.7606 13.3116C16.6513 13.4209 16.5187 13.5926 16.3626 13.8267C16.3314 13.8579 16.2768 13.9359 16.1987 14.0608C16.1207 14.17 16.0348 14.2637 15.9412 14.3417C15.8476 14.4197 15.7461 14.4743 15.6369 14.5056C15.2311 14.5368 14.8643 14.5524 14.5366 14.5524C14.2713 14.5524 13.9045 14.5368 13.4363 14.5056L12.8745 14.4587L12.2424 14.3885C12.2892 13.5457 12.5545 12.7342 13.0383 11.9538C13.5221 11.1735 14.1698 10.5414 14.9814 10.0576C15.7929 9.55819 16.6669 9.30848 17.6033 9.30848C18.5085 9.30848 19.3435 9.49577 20.1082 9.87033C20.8886 10.2449 21.505 10.7599 21.9576 11.4154C22.4258 12.0709 22.66 12.8044 22.66 13.616C22.66 14.6148 22.262 15.6058 21.466 16.5891L20.7169 17.4553C20.4828 17.6894 20.2643 17.9391 20.0614 18.2044C19.7961 18.5789 19.5776 18.9925 19.4059 19.4451C19.2499 19.8821 19.1094 20.4049 18.9845 21.0136L18.9611 21.0838C18.8987 21.2711 18.8675 21.4194 18.8675 21.5286C18.8675 21.6223 18.8909 21.7393 18.9377 21.8798C18.6568 21.9266 18.3212 21.9578 17.9311 21.9734C17.5565 21.989 17.2288 21.989 16.9478 21.9734H15.4028C15.3091 21.8798 15.2467 21.7862 15.2155 21.6925C15.1999 21.5989 15.1921 21.4818 15.1921 21.3414L15.2389 20.4284ZM15.2389 26.0936C15.1765 25.7191 15.1453 25.2821 15.1453 24.7827L15.1687 24.2208V23.7526L15.1921 23.4717V23.2376C15.6135 23.0503 16.2611 22.9567 17.1351 22.9567C17.9779 22.9567 18.5085 23.0113 18.727 23.1205C18.7426 23.1361 18.7582 23.183 18.7738 23.261C18.7895 23.339 18.7973 23.4249 18.7973 23.5185C18.7973 23.6434 18.7817 23.9243 18.7504 24.3613L18.61 26.1171L15.2389 26.0936Z" fill="white"/>
</svg>
