<svg width="41" height="34" viewBox="0 0 41 34" fill="none" xmlns="http://www.w3.org/2000/svg">
<path d="M17.9133 8.49104C18.4764 5.69652 18.582 2.79452 18.1597 -3.17513e-06C20.1305 1.50474 22.1365 3.04531 24.1073 4.55005C25.0575 5.26659 25.9725 5.98314 26.9227 6.69968C31.5682 10.2466 36.2137 13.7935 41 17.1254C32.8 22.0695 25.2687 28.0527 17.7725 34C18.2652 31.1697 18.5468 28.3035 18.6524 25.4373C12.4584 25.0074 6.22919 24.8999 4.39749e-06 25.1507C0.774252 21.0306 0.879832 16.7313 0.281548 12.5753C0.105582 11.3572 -0.105577 10.1033 0.281548 8.92097C6.01803 8.88514 12.1064 8.52687 17.9133 8.49104Z" fill="white"/>
</svg>
