<svg width="68" height="71" viewBox="0 0 68 71" fill="none" xmlns="http://www.w3.org/2000/svg">
<path d="M6.42688 10.0791C8.85257 9.50345 11.2783 9.28758 13.704 9.07172C15.8443 8.92781 17.9846 8.92781 20.1962 8.85586C20.3389 8.85586 20.4816 8.85586 20.6243 8.85586C24.9763 8.28022 29.3996 8.42413 33.7516 8.06436C35.1071 7.9924 36.3913 7.92045 37.7468 8.20827C38.603 8.35218 39.5304 8.28022 40.3865 8.20827C42.0988 7.9924 43.8111 7.92045 45.5233 8.13631C45.8087 8.13631 46.0941 8.20827 46.3794 8.13631C49.9466 7.84849 53.5138 8.49608 57.081 8.42413C58.0798 8.42413 59.15 8.71195 60.1488 8.71195C61.1476 8.7839 61.861 9.21563 62.5031 9.79126C64.3581 11.6621 65.785 13.7488 66.213 16.4111C66.6411 18.8575 66.7124 21.304 66.8551 23.7504C67.0692 27.4921 66.9978 31.2337 67.1405 34.9753C67.2118 36.99 67.4972 39.0767 67.7112 41.0914C68.068 44.8331 68.068 48.5747 67.8539 52.3163C67.7112 54.6189 67.6399 56.9934 67.4972 59.2959C67.3545 62.2461 67.5686 65.1962 67.1405 68.1463C66.9265 69.5854 66.3557 70.305 64.9288 70.6647C64.6435 70.7367 64.3581 70.7367 64.0727 70.7367C61.7184 70.8806 59.364 71.0965 56.9383 70.9525C55.0834 70.8806 53.2284 71.0245 51.3735 70.9525C48.3057 70.8806 45.3093 70.5928 42.2415 70.5208C37.7468 70.305 33.1808 69.9452 28.6862 70.233C27.3306 70.305 26.0464 70.233 24.6909 70.161C22.1939 70.0891 19.6255 70.161 17.1285 70.233C14.4174 70.233 11.635 70.3769 8.92391 69.8013C7.78241 69.5854 6.99763 69.0817 6.49822 68.1463C6.07016 67.4268 5.78478 66.5633 5.57075 65.7718C5.21403 64.9084 5 63.8291 5 62.7497C5 58.5764 5.07134 54.403 5.14269 50.2297C5.21403 48.4308 5.35672 46.56 5.35672 44.7611C5.35672 43.1062 5.21403 41.5232 5.14269 39.8682C5.14269 39.2926 5 38.7169 5.14269 38.2133C5.49941 36.4144 5.49941 34.5436 5.49941 32.7447C5.49941 31.1617 5.49941 29.6507 5.49941 28.0677C5.49941 26.7725 5.57075 25.5493 5.64209 24.2541C5.64209 23.8943 5.78478 23.5346 5.71344 23.1748C5.28538 20.9442 5.92747 18.8575 6.07016 16.6989C6.21285 15.1159 6.1415 13.4609 6.1415 11.806C6.28419 11.3023 6.35553 10.7267 6.42688 10.0791Z" fill="#F9DB62"/>
<path d="M1.44299 2.24403C3.89607 1.59031 6.4213 1.3724 8.87438 1.1545C11.0389 1.00923 13.2755 1.00923 15.44 0.936591C15.5843 0.936591 15.7286 0.936591 15.8729 0.936591C20.274 0.282873 24.7473 0.355509 29.2205 0.064967C30.5914 -0.00766832 31.8901 -0.0803037 33.2609 0.210238C34.1267 0.355509 35.0646 0.282873 35.9304 0.210238C37.662 -0.00766833 39.3936 -0.0803037 41.1252 0.137602C41.4138 0.137602 41.7024 0.210238 42.0631 0.137602C45.6706 -0.152939 49.2781 0.500779 52.9577 0.428144C53.9678 0.428144 55.05 0.718685 56.0601 0.791321C57.0702 0.863956 57.7917 1.29977 58.4411 1.95349C60.317 3.98728 61.7599 6.23897 62.1928 9.07175C62.6257 11.6866 62.6979 14.3741 62.8422 16.989C63.0586 20.984 62.9865 25.0515 63.1308 29.0465C63.2029 31.2255 63.4915 33.4772 63.708 35.6563C64.0687 39.6512 64.0687 43.7188 63.8523 47.7138C63.708 50.1834 63.6358 52.7256 63.4915 55.2678C63.3472 58.4638 63.5637 61.6598 63.1308 64.8557C62.9143 66.3811 62.3371 67.18 60.8941 67.6159C60.6056 67.6885 60.317 67.6885 60.0284 67.6885C57.6474 67.8338 55.1943 68.0517 52.8134 67.979C50.9375 67.9064 49.0616 68.0517 47.1136 67.979C44.0112 67.8338 40.9087 67.6159 37.8063 67.4706C33.1888 67.2527 28.6433 66.8169 24.0258 67.18C22.6549 67.2527 21.2841 67.18 19.9854 67.1074C17.388 67.0348 14.8628 67.1074 12.2654 67.18C9.52373 67.18 6.63775 67.3253 3.89607 66.7442C2.74168 66.5263 1.94804 65.9452 1.44299 64.9283C1.01009 64.1294 0.721495 63.2577 0.505046 62.3861C0.216448 61.2966 0 60.1344 0 59.0449C0 54.5415 0.0721495 50.0381 0.144299 45.6073C0.216448 43.6462 0.360747 41.685 0.360747 39.7239C0.360747 37.9806 0.216448 36.2374 0.144299 34.4941C0.144299 33.913 0 33.2593 0.144299 32.6782C0.505046 30.7171 0.505046 28.7559 0.505046 26.7948C0.505046 25.1242 0.505046 23.4536 0.505046 21.7829C0.505046 20.4029 0.577196 19.0228 0.649345 17.7154C0.649345 17.3522 0.793644 16.9164 0.721495 16.5532C0.288598 14.1562 0.937943 11.9045 1.08224 9.5802C1.22654 7.83695 1.15439 6.0937 1.15439 4.35045C1.29869 3.55146 1.37084 2.97038 1.44299 2.24403ZM4.40112 63.403C6.5656 63.5483 8.58579 63.7662 10.606 63.8388C10.9667 63.8388 11.3275 63.6935 11.7604 63.6935C13.8527 63.6209 16.0172 63.5483 18.1095 63.6209C20.0576 63.6935 22.0056 63.7662 23.9536 63.6209C25.8295 63.4756 27.7054 63.6209 29.5813 63.6935C31.0964 63.7662 32.6116 63.9114 34.1267 63.9841C35.3532 64.0567 36.5076 64.0567 37.7342 64.1294C41.6302 64.4199 45.5263 64.9283 49.4945 64.5652C50.0717 64.4925 50.7211 64.4925 51.2983 64.6378C53.6071 65.0736 55.8437 64.4925 58.0803 64.3473C59.379 64.2746 59.8119 63.7662 59.8841 62.4587C60.0284 60.9334 60.1005 59.4081 60.1727 57.8827C60.317 53.452 60.3891 49.0938 60.6056 44.6631C60.7499 40.886 60.822 37.0364 60.3891 33.2593C60.0284 29.4097 59.9562 25.4873 59.8841 21.6377C59.7398 17.7154 59.5955 13.7204 59.379 9.79811C59.379 9.28966 59.2347 8.78121 59.0904 8.20013C58.4411 5.36735 56.9259 4.641 54.9057 4.49572C52.1641 4.35045 49.4945 3.98728 46.7529 4.05991C43.0732 4.13255 39.3215 3.69674 35.6418 4.13255C35.1368 4.20518 34.5596 4.13255 34.0546 4.13255C32.6116 4.13255 31.1686 3.98728 29.7256 4.05991C27.7054 4.13255 25.6852 4.35045 23.5929 4.49572C21.5005 4.641 19.4082 4.71363 17.2437 4.78627C16.8108 4.78627 16.3058 4.8589 15.8729 4.8589C13.0591 4.56836 10.3174 5.00417 7.50354 5.22208C7.1428 5.29471 6.49345 5.36735 5.91626 5.43998C4.97831 5.58525 4.61757 6.02107 4.47327 6.96533C4.40112 7.3285 4.47327 7.69168 4.40112 8.12749C4.32897 9.72547 4.25682 11.3234 4.11252 12.9214C4.04037 14.0836 3.67962 15.2458 3.82392 16.3353C4.04037 17.7154 3.89607 19.0954 3.89607 20.4029C3.89607 21.7829 4.04037 23.163 3.96822 24.4704C3.96822 27.4485 3.89607 30.4265 3.82392 33.332C3.82392 34.4215 3.67962 35.4384 3.67962 36.5279C3.75177 38.1985 3.96822 39.8691 3.89607 41.5398C3.82392 43.5736 3.82392 45.6073 3.67962 47.6411C3.60747 51.854 3.75177 56.1395 3.67962 60.4249C3.67962 61.3692 3.82392 62.3861 4.40112 63.403Z" fill="#17219C"/>
<path d="M24.2321 31.6315C24.8761 31.2999 25.428 31.2525 26.026 31.2525C27.5898 31.3473 29.1996 31.3473 30.7635 31.3946C31.2694 30.8262 31.0855 30.1631 31.0855 29.5473C31.1315 28.742 31.0855 27.9842 31.0855 27.1789C31.1315 26.3737 31.4534 25.6631 31.8674 25C32.5113 25.4737 33.0633 25.8526 33.5692 26.2316C33.8912 26.4684 33.8912 26.8 33.9372 27.1789C33.9832 28.3157 34.0292 29.4526 34.0752 30.5894C34.0752 30.8262 34.1212 31.0631 34.1671 31.3946C36.1449 31.2052 38.0308 31.3473 39.8706 31.5841C40.4225 32.0104 40.6525 32.5315 40.8365 33.0999C41.2504 34.2841 40.8825 34.8051 39.6866 34.7577C38.3067 34.7104 36.8809 34.7104 35.501 34.663C35.133 34.663 34.7191 34.663 34.3511 34.7104C34.0292 35.2788 34.1671 35.8946 34.1212 36.463C34.1212 38.3103 34.1212 40.1576 34.0752 41.9576C34.0752 42.0997 34.0752 42.2418 34.0292 42.3839C33.8912 42.905 33.2932 43.1892 32.8793 42.8576C32.2353 42.3365 31.5914 41.8155 31.0855 41.1524C30.8555 40.8682 30.7635 40.3471 30.7635 39.9208C30.7175 38.784 30.8095 37.6472 30.7635 36.5103C30.7635 35.8946 30.9475 35.2314 30.5795 34.5209C28.9697 34.4262 27.3598 34.142 25.75 34.2367C24.4161 34.3314 23.8182 33.3367 24.0482 32.1999C24.0942 32.0578 24.1402 31.8683 24.2321 31.6315Z" fill="#17219C"/>
</svg>
