<svg width="39" height="30" viewBox="0 0 39 30" fill="none" xmlns="http://www.w3.org/2000/svg">
<path d="M3.70353 6.07876C4.93128 4.00746 7.06569 2.59433 9.33231 1.89745C11.7689 1.16185 14.1867 1.02634 16.3777 1.00698C18.3233 0.987624 20.2688 1.00698 22.2143 1.08441C26.4264 1.25864 30.9408 1.82002 34.0574 4.72371C34.8318 5.43995 35.4929 6.2917 36.2107 7.06601C36.6263 7.51125 37.0796 7.95648 37.344 8.51786C37.5707 9.00181 37.6651 9.56319 37.7407 10.0859C37.9862 11.7506 38.2129 13.4735 37.6462 15.0608C36.7774 17.4806 34.2463 18.8163 31.8097 19.4744C29.3731 20.1326 26.7853 20.3456 24.5565 21.5457C21.0432 23.4235 18.8332 27.5467 15.0366 28.6888C12.94 29.3276 10.6545 28.9211 8.65232 28.0307C6.34792 26.9853 4.30796 25.2625 3.06131 22.9976C2.38133 21.7587 1.94689 20.3843 1.6069 18.9905C1.09691 16.7837 0.832467 14.4801 1.1158 12.2152C1.39912 9.95035 2.24911 7.74354 3.72241 6.04004" fill="#E97C7E"/>
<path d="M1.44048 14.1949C3.92956 12.3177 6.05763 9.98549 8.0907 7.59638C9.61075 5.81403 11.2068 3.95583 11.6818 1.66153C11.7198 1.50984 11.6058 1.33919 11.6818 1.32022C11.7768 1.30126 11.8908 1.2823 12.1758 1.24438C12.4038 1.22542 12.4989 1.20646 12.5559 1.1875C12.6889 1.16854 12.5939 1.54776 12.5939 1.73737C12.6509 3.31115 12.8979 4.86597 13.3349 6.38286C13.4299 6.72417 13.5439 7.08443 13.7719 7.34988C13.9999 7.6343 14.3609 7.82392 14.7219 7.74807C14.9499 7.71015 15.1399 7.55846 15.3299 7.40677C17.838 5.47273 20.3271 3.57661 22.2082 1.01685C23.1962 1.05477 23.6902 1.07373 25.1913 1.20646C24.3743 2.19244 23.5762 3.00777 22.7592 3.99375C22.0562 4.82805 21.3532 5.66234 20.7261 6.55351C19.6431 8.12729 18.7311 9.81484 17.458 11.218C16.185 12.659 14.5889 13.7588 13.0119 14.8775C10.2948 16.8305 7.52068 18.9352 5.98163 21.9121C5.63962 22.5757 5.33561 23.2963 4.68959 23.6565C4.57558 23.7134 4.23357 24.1116 4.13857 24.0357C4.00556 23.903 3.81556 23.6186 3.73955 23.5427C2.37151 21.8362 1.97249 20.0918 1.49748 17.9682C1.25047 16.9443 1.07946 15.5601 1.02246 14.4414" fill="#F6CDC9"/>
<path d="M32.6017 3.40588C32.2596 4.80901 31.1386 5.87084 30.1696 6.89474C29.1055 8.01346 28.0605 9.15113 27.0155 10.2888C25.9134 11.4834 24.6974 12.6589 23.9184 14.1C23.2533 15.3704 22.9493 16.8304 22.4933 18.1767C21.9233 19.8832 21.6573 21.438 21.7523 23.2203C22.0753 22.9359 22.5693 22.4998 22.9113 22.2533C23.1963 22.0258 23.5193 21.8172 23.9184 21.5328C24.3554 21.2484 23.8234 20.3762 23.7663 19.8452C23.6713 18.8213 24.3364 17.8733 24.6974 16.9252C25.3244 15.3135 25.9134 13.2278 27.4145 12.147C29.2005 10.8766 30.2836 12.9434 30.2456 14.593C30.2266 15.5411 29.8466 16.4701 29.5805 17.3803C29.3715 18.1387 29.2005 18.973 28.9915 19.7315C29.4285 19.6367 29.6376 19.5987 30.0556 19.5039C30.3216 19.4471 30.5686 19.3902 30.6826 19.3712C30.7966 19.3523 30.7016 19.2385 30.7396 18.9351C30.9296 16.9063 31.6326 15.1429 33.0387 13.6449C34.0267 12.6021 35.2617 11.0472 36.6678 10.5922C37.0478 10.4784 38.0548 10.7439 37.9978 10.3646C37.9598 10.1371 37.9598 10.0233 37.8838 9.62516C37.0098 9.53035 36.2688 10.175 35.3567 10.1371C34.1217 10.0802 33.1527 9.73892 32.8107 8.48748C32.6017 7.76696 32.4306 6.5724 32.5827 5.83292C32.7347 5.11239 33.1527 4.54356 33.2857 3.84199C33.0767 3.6903 32.8107 3.51965 32.6017 3.40588Z" fill="#F6CDC9"/>
</svg>
