<svg width="25" height="26" viewBox="0 0 25 26" fill="none" xmlns="http://www.w3.org/2000/svg">
<path d="M25 13.4464C24.9734 13.7683 24.9467 14.1975 24.8933 14.6267C24.84 15.0827 24.7599 15.5656 24.6532 16.0216C24.6265 16.1289 24.5998 16.2362 24.5465 16.3435C24.3597 16.9336 24.1729 17.5506 23.9595 18.1407C23.6393 19.0259 23.2391 19.8575 22.7321 20.6354C22.3586 21.2256 21.905 21.7889 21.5048 22.379C21.1313 22.9155 20.651 23.3179 20.1441 23.6934C19.5838 24.0958 19.0235 24.4982 18.3564 24.7933C17.8495 25.0347 17.3159 25.1956 16.7823 25.3566C16.4888 25.437 16.1419 25.4639 15.8217 25.4907C15.3682 25.5443 14.8879 25.598 14.4076 25.598C13.6339 25.598 12.8601 25.6248 12.0864 25.5443C11.5261 25.4907 10.9924 25.4102 10.4588 25.3029C10.0853 25.2224 9.71175 25.0615 9.3649 24.9006C8.69787 24.6323 8.03084 24.3372 7.39049 24.0422C7.15036 23.9349 6.91023 23.7471 6.69678 23.5861C6.2432 23.2106 5.81631 22.8082 5.36273 22.4327C4.80242 21.9767 4.37552 21.3865 3.94863 20.7964C3.7085 20.4745 3.49505 20.1258 3.30828 19.777C3.04147 19.2942 2.77466 18.7845 2.56121 18.2749C2.45448 18.0603 2.4278 17.8188 2.37444 17.5774C2.26771 17.1482 2.13431 16.719 2.02758 16.263C1.92086 15.8338 1.84082 15.3778 1.94754 14.9218C1.97422 14.7876 1.92086 14.6535 1.89418 14.5194C1.8675 14.278 1.84082 14.0097 1.8675 13.7683C1.89418 13.3928 1.97422 13.044 2.05426 12.6685C2.05426 12.6148 2.08095 12.5612 2.08095 12.4807C2.08095 11.7028 2.32108 10.9785 2.53453 10.2811C2.74797 9.61048 3.01479 8.93987 3.415 8.34972C3.62845 8.001 3.78854 7.65228 4.02867 7.30356C4.37552 6.76707 4.80242 6.31105 5.22932 5.85503C5.44277 5.64043 5.6829 5.45266 5.89635 5.23806C6.2432 4.88934 6.6701 4.59427 7.097 4.32602C7.57726 4.03095 8.03084 3.70905 8.48442 3.38716C9.12477 2.95796 9.81848 2.63607 10.5922 2.50194C10.9924 2.44829 11.366 2.31417 11.7662 2.2337C11.8996 2.20687 12.033 2.18005 12.1397 2.15322C12.3532 2.1264 12.5666 2.09957 12.7534 2.04592C12.9135 2.0191 13.0736 2.04592 13.2337 2.09957C13.3671 2.15322 13.5272 2.18005 13.6606 2.20687C14.0608 2.26052 14.4877 2.28735 14.8879 2.341C14.9679 2.341 15.0213 2.36782 15.1013 2.39464C15.4482 2.55559 15.8484 2.63607 16.2219 2.74337C16.4621 2.79702 16.6755 2.98479 16.9423 3.01161C17.3959 3.03844 17.7961 3.25303 18.1964 3.44081C18.4632 3.57493 18.73 3.73588 18.9968 3.89683C19.5037 4.21872 19.984 4.54062 20.4643 4.86252C20.9712 5.21124 21.3447 5.66726 21.7716 6.09645C21.905 6.23057 22.0651 6.3647 22.1985 6.49882C22.2519 6.55247 22.3319 6.60612 22.3853 6.65977C22.6788 7.06214 22.9723 7.46451 23.2925 7.86688C23.7194 8.40337 23.9862 9.02034 24.3063 9.61048C24.3864 9.74461 24.3864 9.90555 24.4397 10.0397C24.5465 10.3348 24.6799 10.603 24.7599 10.8981C24.84 11.1663 24.8666 11.4614 24.8933 11.7296C24.92 12.2661 24.9467 12.8026 25 13.4464Z" fill="#F9DB62"/>
<path d="M12.3534 24.5518C11.8197 24.5518 11.2861 24.5518 10.7525 24.4982C10.0855 24.4445 9.55185 24.364 9.04491 24.2567C8.67137 24.1763 8.29783 24.0153 7.95098 23.8812L7.84425 23.8275C7.20391 23.5593 6.5102 23.2642 5.84317 22.9691C5.57636 22.8618 5.33623 22.6741 5.04274 22.4327C4.82929 22.2449 4.61584 22.0571 4.40239 21.8693C4.16226 21.6547 3.94881 21.467 3.70868 21.2792C3.06833 20.7427 2.61475 20.0989 2.21453 19.5356C1.92104 19.1332 1.70759 18.7845 1.52082 18.4626C1.25401 17.9798 0.987202 17.4701 0.747072 16.9336C0.640347 16.719 0.613666 16.5312 0.560304 16.3435C0.560304 16.2362 0.533623 16.1825 0.533623 16.1289L0.453579 15.7801C0.373536 15.4582 0.266811 15.1363 0.186768 14.7876C0.0800434 14.3048 -0.0266811 13.7951 0.106725 13.2318C0.106725 13.205 0.106725 13.1781 0.106725 13.1781C0.0800434 13.0977 0.0800434 13.0172 0.0800434 12.9635C0.0800434 12.9099 0.0800434 12.8562 0.0533623 12.7758C0 12.588 0 12.3466 0 12.132C0.0266811 11.8637 0.0800434 11.5687 0.133406 11.3272C0.160087 11.2199 0.160087 11.1126 0.186768 11.0053L0.213449 10.898C0.213449 10.1201 0.426898 9.39586 0.640347 8.72524L0.69371 8.56429C0.93384 7.75955 1.25401 7.08894 1.62755 6.49879C1.73427 6.36467 1.81432 6.20372 1.89436 6.01595C2.00109 5.82818 2.10781 5.6404 2.24122 5.45263C2.64143 4.86249 3.09501 4.35282 3.52191 3.92362C3.65532 3.7895 3.76204 3.6822 3.89545 3.5749C4.00217 3.49443 4.08221 3.41395 4.18894 3.30666C4.58916 2.90429 5.01605 2.60921 5.46963 2.34097C5.92321 2.0459 6.40347 1.724 6.85705 1.4021C7.60412 0.892435 8.37788 0.570539 9.17831 0.436415C9.41844 0.409591 9.65857 0.329117 9.8987 0.275467C10.0321 0.248643 10.1655 0.194993 10.2989 0.168169C10.4056 0.141344 10.5391 0.114519 10.6458 0.114519H10.7258C10.8059 0.114519 10.8592 0.0876945 10.9393 0.0876945C11.0727 0.0608699 11.1794 0.0608699 11.2861 0.0340452C11.6063 -0.0464289 11.8998 0.0340452 12.0599 0.0876945C12.1399 0.114519 12.2466 0.141344 12.38 0.168169C12.6202 0.194993 12.8603 0.221818 13.0738 0.248643C13.2605 0.141344 13.4206 0.168169 13.6074 0.194993C13.7408 0.221818 13.8742 0.248643 13.9809 0.302292C14.221 0.409591 14.5145 0.490065 14.808 0.570539L14.9948 0.624188C15.1549 0.651013 15.2616 0.731487 15.395 0.785136C15.4751 0.838786 15.5818 0.86561 15.6351 0.86561C16.1421 0.892435 16.569 1.10703 16.9692 1.26798L17.0759 1.32163C17.3961 1.45575 17.6629 1.64353 17.9297 1.80447C18.41 2.12637 18.9169 2.44827 19.4239 2.79699C19.8508 3.09206 20.1976 3.4676 20.5445 3.81633C20.6245 3.8968 20.7312 4.0041 20.8113 4.08457C20.8913 4.16505 20.9981 4.24552 21.0781 4.32599C21.1315 4.37964 21.1848 4.40647 21.2382 4.46012L21.2649 4.48694C21.3182 4.54059 21.3983 4.59424 21.4516 4.67471C21.5584 4.80884 21.6651 4.96979 21.7718 5.10391C21.9586 5.37216 22.1453 5.61358 22.3321 5.855C22.679 6.2842 22.9458 6.76704 23.1592 7.22306C23.2393 7.38401 23.3193 7.51813 23.3994 7.67908C23.4794 7.8132 23.5061 7.94733 23.5328 8.05462C23.5328 8.08145 23.5594 8.1351 23.5594 8.16192C23.5861 8.2424 23.6395 8.3497 23.6662 8.43017C23.7462 8.61794 23.8263 8.83254 23.8796 9.04714C23.9597 9.39586 24.013 9.74458 24.0397 9.986C24.0664 10.3615 24.0931 10.7371 24.1197 11.1663L24.1464 11.7564V11.8101C24.1464 11.8906 24.1197 11.9979 24.1197 12.1052C24.0931 12.3734 24.0664 12.6953 24.0397 13.0172C23.9863 13.4464 23.9063 13.8488 23.8529 14.2511L23.8263 14.4389C23.7996 14.573 23.7729 14.6535 23.7462 14.7608L23.7195 14.8413C23.6662 15.029 23.6128 15.2168 23.5328 15.4046C23.3994 15.807 23.266 16.2362 23.1059 16.6653C22.759 17.6042 22.3321 18.4894 21.8252 19.2673C21.585 19.6429 21.3182 19.9916 21.0781 20.3403C20.918 20.5817 20.7312 20.7963 20.5712 21.0378C20.1443 21.6816 19.5573 22.1376 19.1037 22.4863C18.5434 22.8887 17.9297 23.3179 17.236 23.6398C16.6757 23.8812 16.1154 24.069 15.5818 24.2299C15.2616 24.3104 14.9681 24.364 14.6746 24.3909L14.4078 24.4445C13.9809 24.4982 13.554 24.525 13.1271 24.525H12.8603C12.6735 24.5518 12.5135 24.5518 12.3534 24.5518ZM11.5796 0.972909H11.5529C11.3928 1.02656 11.2328 1.02656 11.0727 1.05338C11.0193 1.05338 10.9393 1.08021 10.8859 1.08021H10.8059C10.7258 1.10703 10.6191 1.10703 10.539 1.13386C10.4056 1.16068 10.2722 1.18751 10.1655 1.24116C9.8987 1.32163 9.63189 1.37528 9.36508 1.42893C8.69805 1.53623 8.08438 1.80447 7.47072 2.23367C7.01714 2.55557 6.53688 2.85064 6.05662 3.17253C5.6564 3.44078 5.28287 3.6822 4.96269 4.0041C4.85597 4.1114 4.74924 4.19187 4.64252 4.29917C4.53579 4.40647 4.42907 4.51377 4.32234 4.62107C3.94881 4.99661 3.52191 5.47946 3.17506 5.98912C3.06833 6.15007 2.98829 6.31102 2.88156 6.49879C2.77484 6.68657 2.6948 6.84751 2.56139 7.03529C2.24122 7.54496 1.9744 8.1351 1.76096 8.85937L1.70759 9.02031C1.49414 9.66411 1.30738 10.2811 1.30738 10.898C1.30738 11.0053 1.28069 11.0858 1.28069 11.1395V11.1663C1.25401 11.2736 1.25401 11.3809 1.22733 11.515C1.14729 11.7564 1.09393 11.9979 1.06725 12.2393C1.06725 12.3734 1.06725 12.5343 1.09393 12.6953C1.09393 12.7489 1.09393 12.8294 1.12061 12.8831C1.12061 12.9099 1.12061 12.9367 1.14729 12.9635C1.17397 13.0977 1.20065 13.2586 1.17397 13.4464C1.09393 13.7951 1.17397 14.1438 1.25401 14.5462C1.33406 14.8681 1.4141 15.19 1.49414 15.4851L1.60087 15.8338C1.57419 15.9143 1.60087 15.9947 1.60087 16.0752C1.62755 16.2093 1.65423 16.3703 1.70759 16.4508C1.94772 16.9604 2.18785 17.4433 2.45466 17.9261C2.61475 18.2212 2.80152 18.5163 3.06833 18.8918C3.44187 19.4015 3.84208 19.9916 4.37571 20.4208C4.61584 20.6354 4.85597 20.85 5.0961 21.0378C5.30955 21.2255 5.49631 21.4133 5.70976 21.5743C5.92321 21.762 6.10998 21.8693 6.29675 21.9766C6.96378 22.2717 7.63081 22.5668 8.24447 22.835L8.3512 22.8887C8.67137 23.0228 8.96486 23.1301 9.25836 23.2106C9.71193 23.3179 10.1922 23.3715 10.8325 23.452C11.4996 23.5056 12.1399 23.5056 12.8336 23.5056H13.1004C13.5007 23.5056 13.8742 23.452 14.2744 23.4252L14.5946 23.3983C14.8614 23.3715 15.1015 23.3447 15.2883 23.291C15.7686 23.1301 16.3022 22.9691 16.8091 22.7545C17.4228 22.4863 17.9831 22.0839 18.49 21.7084C18.8902 21.4133 19.3705 21.0378 19.7174 20.5281C19.8774 20.2867 20.0642 20.0453 20.2243 19.8038C20.4644 19.4551 20.7046 19.1332 20.918 18.7845C21.3716 18.0602 21.7718 17.2555 22.092 16.3971C22.2254 15.9947 22.3588 15.5655 22.4922 15.1632C22.5456 14.9754 22.5989 14.7876 22.679 14.5998C22.679 14.573 22.7056 14.5194 22.7056 14.4925C22.7323 14.4389 22.7323 14.3853 22.759 14.3584L22.7857 14.1707C22.8657 13.7683 22.9191 13.3659 22.9725 12.9904C22.9991 12.6953 23.0258 12.4002 23.0525 12.132C23.0525 12.0515 23.0792 11.9442 23.0792 11.8637L23.0525 11.3541C23.0258 10.9517 22.9991 10.5761 22.9725 10.2006C22.9458 9.90553 22.9191 9.66411 22.8657 9.47633C22.8124 9.31539 22.759 9.15444 22.679 8.99349C22.6256 8.88619 22.5989 8.77889 22.5456 8.67159C22.5189 8.59112 22.4922 8.51064 22.4922 8.45699C22.4922 8.40335 22.4655 8.3497 22.4655 8.32287C22.3855 8.16192 22.3054 8.00098 22.1987 7.84003C21.9853 7.41083 21.7718 7.00846 21.4783 6.65974C21.2649 6.39149 21.0781 6.12325 20.8913 5.88183C20.7846 5.7477 20.6779 5.58675 20.5712 5.45263C20.5712 5.45263 20.5445 5.42581 20.5178 5.42581C20.4911 5.39898 20.4644 5.37216 20.4378 5.37216C20.3844 5.31851 20.3577 5.29168 20.3043 5.23803C20.1976 5.13073 20.0909 5.05026 19.9842 4.94296C19.9041 4.83566 19.7974 4.75519 19.7174 4.64789C19.3972 4.32599 19.1037 4.0041 18.7568 3.76268C18.2766 3.41395 17.7696 3.09206 17.2894 2.79699C17.0226 2.63604 16.8091 2.47509 16.5423 2.36779L16.4089 2.31414C16.0887 2.15319 15.7686 2.01907 15.4484 1.99225C15.1816 1.96542 14.9948 1.88495 14.8347 1.80447C14.7547 1.77765 14.6746 1.724 14.6479 1.724L14.4612 1.67035C14.221 1.5094 13.8742 1.42893 13.5273 1.26798H13.5007C13.3406 1.24116 13.1538 1.24116 12.9937 1.21433C12.7536 1.18751 12.5135 1.16068 12.2733 1.13386C12.0599 1.10703 11.8731 1.08021 11.713 0.999734C11.6597 0.972909 11.6063 0.972909 11.5796 0.972909Z" fill="#17219C"/>
<path d="M9.17925 8.9565C9.55316 9.05687 9.78851 9.23658 10.025 9.45156C10.6095 10.0513 11.2463 10.6301 11.8478 11.2111C12.2523 11.1682 12.4179 10.8397 12.6393 10.5961C12.947 10.2942 13.2013 9.97788 13.4908 9.65937C13.7985 9.3574 14.1813 9.19213 14.5835 9.07866C14.6679 9.49754 14.75 9.84587 14.8138 10.1777C14.856 10.3871 14.7368 10.5182 14.6188 10.6847C14.2282 11.1509 13.8377 11.617 13.4472 12.0832C13.362 12.1769 13.2951 12.2871 13.194 12.4348C14.0445 13.071 14.7393 13.8052 15.3818 14.5603C15.4469 14.9274 15.3505 15.2162 15.2189 15.5072C14.9569 16.1244 14.624 16.1982 14.168 15.7495C13.6393 15.2346 13.0753 14.722 12.5465 14.2071C12.401 14.0748 12.2373 13.926 12.0747 13.8125C11.743 13.9215 11.5762 14.2147 11.3536 14.423C10.6894 15.1537 10.0252 15.8844 9.35989 16.5798C9.3088 16.636 9.25771 16.6922 9.18843 16.7319C8.94651 16.8883 8.60783 16.7858 8.5633 16.5058C8.49594 16.0682 8.42857 15.6306 8.46688 15.1864C8.47809 14.9913 8.62904 14.7521 8.78232 14.5835C9.17285 14.1173 9.61797 13.7007 10.0085 13.2345C10.2299 12.991 10.5411 12.7948 10.651 12.3815C10.0483 11.7652 9.51375 11.074 8.84294 10.5327C8.28129 10.0906 8.40242 9.48215 8.90212 9.11518C8.9714 9.07551 9.05771 9.01711 9.17925 8.9565Z" fill="#17219C"/>
</svg>
