<svg width="31" height="31" viewBox="0 0 31 31" fill="none" xmlns="http://www.w3.org/2000/svg">
<path d="M30.4759 13.0806C30.0958 12.7757 29.571 12.7219 29.1005 12.5785C28.0509 12.2736 27.1822 11.4129 26.8565 10.3907C26.5308 9.35063 26.766 8.16709 27.4537 7.32427C27.7251 7.00148 28.069 6.64284 27.9604 6.23039C27.9061 6.05107 27.7794 5.90761 27.6347 5.78208C26.947 5.10065 26.2231 4.43715 25.4811 3.80952C25.3364 3.68399 25.1735 3.54053 24.9925 3.4688C24.4134 3.25361 23.8162 3.70192 23.2552 3.98884C22.2418 4.50888 20.975 4.47302 19.9978 3.91711C19.0206 3.36121 18.3329 2.28526 18.2786 1.17345C18.2605 0.796871 18.2605 0.330629 17.9167 0.133372C17.7719 0.0616427 17.6091 0.0616427 17.4643 0.0437102C16.5775 0.0616427 15.727 0.0257778 14.8764 0.00784543C14.5145 -0.010087 14.1345 -0.010087 13.8087 0.151305C12.9582 0.56375 12.9944 1.74729 12.7048 2.62598C12.4153 3.54053 11.6371 4.29369 10.6961 4.56268C9.77315 4.8496 8.72354 4.63441 7.96347 4.0247C7.54725 3.68399 7.18531 3.19981 6.64241 3.07429C5.99093 2.93083 5.37563 3.37914 4.85083 3.79158C3.92789 4.56268 2.89638 5.62069 3.25831 6.75043C3.42118 7.23461 3.80122 7.61119 4.07267 8.04156C5.0318 9.56582 4.19934 11.897 2.46205 12.4529C1.61151 12.7399 0.47141 12.7399 0.109474 13.5647C-0.0172031 13.8337 0.000893667 14.1565 0.000893667 14.4614C0.0189904 15.1428 0.0370872 15.8242 0.055184 16.4877C0.0732808 16.8643 0.0913775 17.2768 0.380926 17.5099C0.634281 17.7071 0.978119 17.7071 1.30386 17.7251C2.67922 17.8327 3.92789 18.8369 4.34412 20.128C4.76034 21.4191 3.52976 23.2662 2.98686 23.9835C3.83741 25.0056 4.61557 26.0816 5.46612 27.1037C5.64709 27.3189 5.84615 27.5341 6.1176 27.57C6.31667 27.5879 6.51573 27.4982 6.6967 27.4086C7.51105 26.9961 8.32541 26.5837 9.23025 26.4402C10.1351 26.2968 11.1123 26.4761 11.7638 27.1037C12.5239 27.8389 12.6505 28.9687 12.7772 30.0088C12.7953 30.1343 12.8134 30.2778 12.9039 30.3853C12.9944 30.475 13.1391 30.5109 13.2658 30.5288C14.0983 30.6543 14.9126 30.7978 15.7451 30.9233C16.1794 30.995 16.6499 31.0668 17.048 30.8875C17.9348 30.4929 17.971 29.2915 18.2967 28.3769C18.6949 27.283 19.7264 26.4223 20.8846 26.2609C22.0428 26.0995 23.2914 26.5837 23.9972 27.5162C24.1058 27.6596 24.2144 27.8031 24.3772 27.8389C24.5763 27.8748 24.7573 27.7313 24.9021 27.6058C25.6802 26.9244 26.4403 26.243 27.2184 25.5795C27.4356 25.3822 27.6709 25.167 27.7432 24.898C27.8699 24.3959 27.4356 23.9297 27.128 23.5172C26.4041 22.531 26.2412 21.1681 26.7298 20.0383C27.2184 18.9086 28.3223 18.0837 29.5529 17.9403C29.9691 17.8865 30.4759 17.8685 30.6749 17.4919C30.7473 17.3485 30.7654 17.1871 30.7835 17.0436C30.8378 16.4339 30.8921 15.8242 30.9283 15.2325C31.055 14.4614 31.073 13.5647 30.4759 13.0806ZM20.5588 15.8242C20.4683 17.5278 19.4006 19.1417 17.8624 19.9128C16.3242 20.6839 14.3878 20.5763 12.922 19.6618C11.2571 18.5858 10.3161 16.5057 10.6418 14.569C10.9856 12.6323 12.2343 10.9108 14.5869 10.5521C15.3831 10.4266 16.3242 10.3907 17.1204 10.5521C17.7719 10.6956 18.4777 10.857 18.9663 11.3053C19.2559 11.5742 19.4549 11.915 19.6359 12.2736C20.1969 13.3675 20.6131 14.5869 20.5588 15.8242Z" fill="white"/>
</svg>
