<svg width="48" height="47" viewBox="0 0 48 47" fill="none" xmlns="http://www.w3.org/2000/svg">
<g clip-path="url(#clip0)">
<path d="M23.4 46.5C25.3 46.5 25.3 43.5 23.4 43.5C21.5 43.5 21.5 46.5 23.4 46.5Z" fill="#1B1F9B"/>
<path d="M9.49995 42.6C13.4 42.6 13.4 36.6 9.49995 36.6C5.59995 36.6 5.59995 42.6 9.49995 42.6Z" fill="#1B1F9B"/>
<path d="M36.5 42.7C40.4 42.7 40.4 36.7 36.5 36.7C32.7 36.7 32.7 42.7 36.5 42.7Z" fill="#1B1F9B"/>
<path d="M4.30001 30.1C10.1 30.1 10.1 21.1 4.30001 21.1C-1.39999 21.1 -1.49999 30.1 4.30001 30.1Z" fill="#1B1F9B"/>
<path d="M42.9 30.8C48.7 30.8 48.7 21.8 42.9 21.8C37.1 21.8 37.1 30.8 42.9 30.8Z" fill="#1B1F9B"/>
<path d="M10.2 18C17.9 18 17.9 6 10.2 6C2.50005 6 2.50005 18 10.2 18Z" fill="#1B1F9B"/>
<path d="M23.1 12C30.8 12 30.8 0 23.1 0C15.4 0 15.4 12 23.1 12Z" fill="#1B1F9B"/>
<path d="M36.7 18.5C44.4 18.5 44.4 6.5 36.7 6.5C29 6.5 29 18.5 36.7 18.5Z" fill="#1B1F9B"/>
</g>
<defs>
<clipPath id="clip0">
<rect width="47.2" height="46.5" fill="white"/>
</clipPath>
</defs>
</svg>
