<svg width="100" height="138" viewBox="0 0 100 138" fill="none" xmlns="http://www.w3.org/2000/svg">
<path d="M74.1128 54.4229C86.1671 54.623 86.6173 49.7713 93.9199 46.6202C96.4207 45.5698 96.0706 43.8192 96.2707 43.319C97.5211 40.568 96.5708 38.8674 95.8205 36.6166C94.8202 33.4155 93.4197 30.7145 91.2189 28.2136C89.0181 25.7127 86.0671 24.4123 82.7159 24.1122C81.8656 16.3094 79.0646 9.25692 71.9621 5.45557C64.8096 1.65422 57.2069 2.1544 51.4548 7.55632C48.7038 3.65493 44.8025 2.05437 40.0008 1.10403C35.1991 0.153692 30.1973 1.10403 25.7457 3.35483C22.1944 5.15546 19.1434 7.75639 17.1927 11.3076C15.192 14.9089 15.1419 18.6602 16.5424 22.4116C12.391 24.0622 9.0898 26.563 6.48888 30.3144C4.18807 33.6656 2.83758 37.5169 3.63787 41.5183C4.23808 44.6194 6.38884 47.1203 8.13946 49.3211C9.69001 51.3218 11.4406 53.2725 13.4414 54.1228C18.193 56.2236 21.5942 55.3733 26.646 53.9728C40.601 53.7727 62.0586 54.2729 74.1128 54.4229Z" fill="#F9DB4E"/>
<path d="M25.7467 52.9225C25.7967 52.8225 25.8467 52.7725 25.9468 52.7725C28.7477 51.8721 31.3486 53.0726 34.0496 53.4227C38.2511 53.9229 42.2025 52.7725 46.404 52.6224C53.7066 52.3223 60.9091 53.8228 68.2117 53.6728C70.8126 53.6228 73.3635 53.2726 75.9645 53.8728C76.2146 53.9229 76.3646 54.0729 76.3646 54.323C76.4146 57.6742 76.5647 61.0754 76.7147 64.3766C76.7147 64.5766 76.7147 64.7267 76.6147 64.8767C76.4646 65.0768 76.2145 65.1268 76.0145 65.1268C65.5608 65.9271 55.007 66.0772 44.5533 65.9271C42.1024 65.8771 39.7516 65.8271 37.3007 65.477C33.4494 64.8767 29.7481 63.7263 25.7967 64.4766C25.4966 64.5266 25.1965 64.3265 25.1965 64.0264C25.1465 60.5252 25.2465 57.074 25.3965 53.6228C25.3965 53.5227 25.4466 53.4227 25.4966 53.3226C25.5466 53.2226 25.6966 53.0225 25.7467 52.9225Z" fill="#1B1F9B"/>
<path d="M23.5457 63.5262C15.993 61.5755 8.5904 62.976 3.93875 69.7785C-0.762916 76.5809 0.737598 84.4336 4.88907 91.086C2.38818 92.7366 0.787615 95.1875 0.387474 98.1385C-0.0126682 101.09 0.387486 103.891 1.08773 106.742C2.73832 113.044 4.73902 119.096 10.6411 122.547C15.4428 125.348 21.0948 124.298 26.4467 124.398C31.6486 132.501 39.4513 138.103 49.4048 137.152C59.3584 136.202 65.4605 129.85 71.3126 122.497C74.5638 124.598 78.3151 124.748 82.1165 124.548C85.5677 124.348 88.9689 124.198 91.7699 122.047C93.4705 120.747 94.3708 118.946 95.3211 117.145C97.872 112.043 100.423 107.042 99.2725 101.19C98.3222 96.4879 94.7709 93.4368 91.8199 89.9856C95.7213 88.4351 97.872 84.9338 97.722 80.7323C97.5719 76.5308 95.7213 73.1296 93.4204 69.7284C90.4194 65.3269 86.7181 61.6756 81.2161 61.8756C78.2151 61.9757 75.8142 63.7763 73.0632 64.4266C70.8124 64.9267 68.5616 65.1268 66.3108 65.2268C56.5574 65.5269 46.954 65.8771 37.2505 64.8267C33.1491 64.3765 29.2477 63.4262 25.0962 63.5262C24.7461 63.3762 23.8458 63.1261 23.5457 63.5262Z" fill="#F9DB4E"/>
<path d="M34.899 96.0376C36.2495 95.6375 40.8511 96.2377 43.5021 97.2881C44.3023 97.5882 45.0526 97.9383 45.8529 98.0883C47.8536 98.5385 50.0044 97.9883 51.9551 97.238C53.9058 96.4878 55.8564 95.6875 57.9072 95.5374C59.2576 95.4374 60.6581 95.6875 61.9586 96.0876C62.959 96.3877 63.9593 96.7879 64.7096 97.5381C65.4098 98.2884 65.7099 99.3388 65.86 100.339C66.1101 102.04 66.01 103.74 65.5599 105.391C65.3598 106.141 65.1097 106.891 64.6595 107.492C64.0093 108.342 63.009 108.892 62.0586 109.392C60.6081 110.143 59.1076 110.943 57.507 111.393C55.9565 111.843 54.3059 111.893 52.7053 112.193C51.2548 112.443 49.8543 112.794 48.4038 112.744C47.1033 112.694 45.8529 112.243 44.5524 111.943C41.9515 111.293 39.2005 111.143 36.5996 110.393C33.9987 109.642 31.4478 108.092 30.3974 105.591C29.247 102.89 30.2474 99.6389 32.1981 97.4881C32.9983 96.6378 32.7482 96.6378 34.899 96.0376Z" fill="#1B1F9B"/>
<path d="M43.9027 100.039C41.6519 98.6387 38.7009 98.3886 36.2 99.1889C35.2997 99.4389 34.4494 99.8891 33.8992 100.639C33.299 101.49 33.1489 102.59 33.399 103.59C33.6491 104.591 34.2993 105.441 34.9996 106.191C37.4505 108.592 41.1017 109.292 44.553 109.643C46.1535 109.793 47.7041 109.943 49.3046 109.843C50.7051 109.743 52.0556 109.493 53.4061 109.242C54.8066 108.992 56.2071 108.692 57.4576 108.042C58.2078 107.642 58.908 107.142 59.6583 106.792C60.8587 106.241 62.4093 106.041 63.1596 104.941C63.6597 104.141 63.6097 103.14 63.4597 102.24C63.3096 101.54 63.1095 100.789 62.6094 100.239C61.659 99.1889 60.0585 98.9888 58.708 99.2389C45.2532 101.64 43.9027 100.039 43.9027 100.039Z" fill="white"/>
<path d="M36.7497 88.9346C37.7001 89.1847 38.6004 89.6348 39.5007 89.9349C40.6511 90.3351 41.9516 90.5351 43.102 90.085C43.6022 89.8849 44.1023 89.5348 44.5025 89.1847C44.9526 88.8345 45.3528 88.4844 45.6029 87.9842C46.103 87.1339 46.003 86.0836 45.903 85.0832C45.8029 84.2329 45.6529 83.3326 45.1527 82.6323C44.8026 82.1322 44.3024 81.732 43.8022 81.3819C42.4017 80.4316 40.8512 79.7813 39.2006 79.3812C38.5504 79.2311 37.9001 79.0811 37.2499 78.981C34.9491 78.6309 32.5482 78.731 30.2474 79.0811C28.6969 79.2812 27.1463 79.6313 25.7958 80.3315C24.8955 80.8317 24.0952 81.4819 23.2949 82.2322C22.5447 82.9324 21.7444 83.7828 21.5443 84.7831C21.3943 85.5334 21.5444 86.2836 21.6944 86.9839C21.8445 87.6341 22.0445 88.2843 22.3946 88.8345C22.8948 89.5348 23.6451 90.035 24.4454 90.2851C25.2457 90.5351 26.146 90.6352 26.9963 90.6852C27.8966 90.7352 28.947 90.7852 29.6472 90.235L29.9473 90.035C31.748 89.0346 33.8487 88.3844 35.8994 88.7345C36.2495 88.8345 36.4996 88.8846 36.7497 88.9346Z" fill="white"/>
<path d="M66.76 88.4351C67.7103 88.6851 68.6106 89.1353 69.511 89.4354C70.6614 89.8356 71.9618 90.0356 73.1122 89.5855C73.6124 89.3854 74.1126 89.0353 74.5127 88.6851C74.9629 88.335 75.363 87.9849 75.6131 87.4847C76.1133 86.6344 76.0133 85.5841 75.9132 84.5837C75.8132 83.7334 75.6631 82.8331 75.1629 82.1328C74.8128 81.6327 74.3126 81.2325 73.8125 80.8824C72.412 79.9321 70.8614 79.2818 69.2109 78.8817C68.5606 78.7316 67.9104 78.5816 67.2602 78.4815C64.9593 78.1314 62.5585 78.2314 60.2577 78.5816C58.7071 78.7816 57.1566 79.1318 55.8061 79.832C54.9058 80.3322 54.1055 80.9824 53.3052 81.7327C52.5549 82.4329 51.7547 83.2832 51.5546 84.2836C51.4045 85.0339 51.5546 85.7841 51.7047 86.4844C51.8547 87.1346 52.0548 87.7848 52.4049 88.335C52.9051 89.0353 53.6553 89.5355 54.4556 89.7855C55.2559 90.0356 56.1562 90.1357 57.0065 90.1857C57.9068 90.2357 58.9572 90.2857 59.6575 89.7355L59.9576 89.5355C61.7582 88.5351 63.8589 87.8849 65.9097 88.235C66.2598 88.335 66.5099 88.385 66.76 88.4351Z" fill="white"/>
<path d="M66.76 88.4351C67.7103 88.6851 68.6106 89.1353 69.511 89.4354C70.6614 89.8356 71.9618 90.0356 73.1122 89.5855C73.6124 89.3854 74.1126 89.0353 74.5127 88.6851C74.9629 88.335 75.363 87.9849 75.6131 87.4847C76.1133 86.6344 76.0133 85.5841 75.9132 84.5837C75.8132 83.7334 75.6631 82.8331 75.1629 82.1328C74.8128 81.6327 74.3126 81.2325 73.8125 80.8824C72.412 79.9321 70.8614 79.2818 69.2109 78.8817C68.5606 78.7316 67.9104 78.5816 67.2602 78.4815C64.9593 78.1314 62.5585 78.2314 60.2577 78.5816C58.7071 78.7816 57.1566 79.1318 55.8061 79.832C54.9058 80.3322 54.1055 80.9824 53.3052 81.7327C52.5549 82.4329 51.7547 83.2832 51.5546 84.2836C51.4045 85.0339 51.5546 85.7841 51.7047 86.4844C51.8547 87.1346 52.0548 87.7848 52.4049 88.335C52.9051 89.0353 53.6553 89.5355 54.4556 89.7855C55.2559 90.0356 56.1562 90.1357 57.0065 90.1857C57.9068 90.2357 58.9572 90.2857 59.6575 89.7355L59.9576 89.5355C61.7582 88.5351 63.8589 87.8849 65.9097 88.235C66.2598 88.335 66.5099 88.385 66.76 88.4351Z" fill="white"/>
<path d="M39.1011 86.6845C40.2015 85.334 39.8513 83.7834 39.8013 82.4329C39.7013 80.4823 36.6002 79.2318 34.7495 78.6816C33.9993 78.4315 30.9982 78.6816 29.9978 79.3819C28.9975 80.0821 28.3973 81.9328 28.2472 82.2329C27.1968 84.4837 28.8974 87.4347 29.9978 88.9352C30.9482 90.1857 32.8488 90.7859 34.5995 90.3858C36.3501 89.9856 38.1507 88.335 39.1011 86.6845Z" fill="#1B1F9B"/>
<path d="M69.1113 86.1842C70.2117 84.8337 69.8616 83.2832 69.8115 81.9327C69.7115 79.982 66.6104 78.7316 64.7598 78.1814C64.0095 77.9313 61.0084 78.1814 60.0081 78.8816C59.0077 79.5819 58.4075 81.4325 58.2575 81.7326C57.2071 83.9834 58.9077 86.9345 60.0081 88.435C60.9584 89.6854 62.8591 90.2857 64.6097 89.8855C66.3603 89.4854 68.161 87.8348 69.1113 86.1842Z" fill="#1B1F9B"/>
</svg>
