<svg width="388" height="534" viewBox="0 0 388 534" fill="none" xmlns="http://www.w3.org/2000/svg">
<path d="M288.614 209.904C335.702 210.685 337.46 191.733 365.986 179.424C375.755 175.321 374.387 168.483 375.169 166.529C380.053 155.783 376.341 149.14 373.41 140.348C369.503 127.843 364.032 117.293 355.435 107.523C346.838 97.7544 335.311 92.6745 322.22 91.5022C318.899 61.0226 307.957 33.4737 280.213 18.6247C252.273 3.77567 222.575 5.72949 200.106 26.8307C189.556 11.3956 174.316 5.14335 155.559 1.43109C136.803 -2.28117 117.264 1.43109 99.8755 10.2233C85.808 17.257 74.085 27.4169 66.2698 41.4844C58.4545 55.5519 58.2591 70.2055 63.7298 84.8592C47.5131 91.3068 34.6179 101.076 24.458 115.73C15.4704 128.82 10.1951 143.865 13.3212 159.495C15.6658 171.609 24.0673 181.378 30.9056 189.975C36.9625 197.79 43.8008 205.41 51.6161 208.731C70.1774 216.937 83.4634 213.616 103.197 208.145C157.709 207.364 241.527 209.318 288.614 209.904Z" fill="#F9DB4E"/>
<path d="M99.6807 204.044C99.8761 203.653 100.072 203.457 100.462 203.457C111.404 199.941 121.564 204.63 132.114 205.997C148.526 207.951 163.961 203.457 180.373 202.871C208.899 201.699 237.034 207.561 265.56 206.974C275.72 206.779 285.684 205.411 295.844 207.756C296.821 207.951 297.407 208.537 297.407 209.514C297.603 222.605 298.189 235.891 298.775 248.786C298.775 249.568 298.775 250.154 298.384 250.74C297.798 251.521 296.821 251.717 296.04 251.717C255.205 254.843 213.979 255.429 173.144 254.843C163.571 254.648 154.388 254.452 144.814 253.085C129.77 250.74 115.311 246.246 99.8761 249.177C98.7038 249.372 97.5315 248.591 97.5315 247.418C97.3362 233.742 97.7269 220.26 98.3131 206.779C98.3131 206.388 98.5084 205.997 98.7038 205.607C98.8992 205.216 99.4854 204.434 99.6807 204.044Z" fill="#3F3969"/>
<path d="M91.0828 245.464C61.5801 237.844 32.6636 243.315 14.4931 269.886C-3.87285 296.458 1.98861 327.133 18.2053 353.119C8.43622 359.567 2.184 369.141 0.620939 380.668C-0.942117 392.196 0.620939 403.137 3.35629 414.274C9.80389 438.892 17.6192 462.533 40.6742 476.014C59.4309 486.956 81.5091 482.853 102.415 483.244C122.735 514.895 153.214 536.778 192.095 533.066C230.976 529.354 254.813 504.54 277.673 475.819C290.372 484.025 305.026 484.611 319.875 483.83C333.356 483.048 346.642 482.462 357.584 474.061C364.227 468.981 367.744 461.947 371.456 454.913C381.42 434.984 391.385 415.446 386.891 392.586C383.179 374.22 369.307 362.302 357.779 348.821C373.019 342.764 381.42 329.087 380.834 312.675C380.248 296.263 373.019 282.977 364.031 269.691C352.309 252.497 337.85 238.235 316.358 239.016C304.635 239.407 295.257 246.441 284.511 248.981C275.719 250.934 266.927 251.716 258.134 252.107C220.035 253.279 182.522 254.647 144.617 250.544C128.596 248.785 113.356 245.073 97.1396 245.464C95.772 244.878 92.2551 243.901 91.0828 245.464Z" fill="#F9DB4E"/>
<path d="M158.533 386.779C161.42 385.924 171.256 387.207 176.923 389.452C178.633 390.094 180.237 390.842 181.948 391.163C186.224 392.125 190.822 390.949 194.991 389.345C199.161 387.849 203.33 386.031 207.714 385.71C210.601 385.496 213.594 386.031 216.374 386.886C218.512 387.528 220.651 388.383 222.254 389.987C223.751 391.591 224.393 393.836 224.713 395.974C225.248 399.609 225.034 403.244 224.072 406.772C223.644 408.376 223.11 409.98 222.147 411.263C220.757 413.08 218.619 414.256 216.588 415.325C213.487 416.929 210.28 418.64 206.859 419.602C203.544 420.564 200.016 420.671 196.595 421.313C193.494 421.847 190.501 422.596 187.4 422.489C184.62 422.382 181.948 421.42 179.168 420.778C173.608 419.388 167.728 419.067 162.169 417.464C156.609 415.86 151.156 412.546 148.911 407.2C146.452 401.427 148.59 394.477 152.76 389.88C154.471 388.062 153.936 388.062 158.533 386.779Z" fill="#3F3969"/>
<path d="M177.778 395.333C172.967 392.339 166.659 391.805 161.313 393.515C159.389 394.05 157.571 395.012 156.395 396.616C155.112 398.433 154.791 400.785 155.326 402.924C155.86 405.062 157.25 406.879 158.747 408.483C163.986 413.615 171.791 415.112 179.168 415.86C182.589 416.181 185.903 416.502 189.324 416.288C192.318 416.074 195.205 415.539 198.091 415.005C201.085 414.47 204.079 413.829 206.751 412.439C208.355 411.584 209.852 410.515 211.456 409.766C214.022 408.59 217.336 408.162 218.94 405.81C220.009 404.1 219.902 401.961 219.581 400.037C219.26 398.54 218.833 396.936 217.764 395.76C215.732 393.515 212.311 393.088 209.424 393.622C180.664 398.754 177.778 395.333 177.778 395.333Z" fill="white"/>
<path d="M142.668 344.721C146.38 345.697 149.897 347.456 153.414 348.628C157.908 350.191 162.988 350.973 167.482 349.214C169.436 348.433 171.389 347.065 172.952 345.697C174.711 344.33 176.274 342.962 177.251 341.008C179.205 337.687 178.814 333.584 178.423 329.676C178.032 326.355 177.446 322.838 175.492 320.102C174.125 318.149 172.171 316.586 170.217 315.218C164.746 311.506 158.69 308.966 152.242 307.403C149.702 306.816 147.162 306.23 144.622 305.84C135.634 304.472 126.256 304.863 117.269 306.23C111.212 307.012 105.155 308.38 99.8796 311.115C96.3627 313.069 93.2366 315.609 90.1105 318.539C87.1797 321.275 84.0536 324.596 83.2721 328.504C82.6859 331.435 83.2721 334.365 83.8582 337.101C84.4444 339.641 85.2259 342.181 86.5936 344.33C88.5474 347.065 91.4781 349.019 94.6042 349.996C97.7304 350.973 101.247 351.364 104.569 351.559C108.086 351.754 112.189 351.95 114.924 349.801L116.096 349.019C123.13 345.111 131.336 342.571 139.347 343.939C140.714 344.33 141.691 344.525 142.668 344.721Z" fill="white"/>
<path d="M259.901 342.765C263.613 343.742 267.13 345.5 270.647 346.673C275.14 348.236 280.22 349.017 284.714 347.259C286.668 346.477 288.622 345.11 290.185 343.742C291.943 342.374 293.506 341.007 294.483 339.053C296.437 335.731 296.046 331.628 295.656 327.721C295.265 324.399 294.679 320.882 292.725 318.147C291.357 316.193 289.403 314.63 287.45 313.262C281.979 309.55 275.922 307.01 269.474 305.447C266.934 304.861 264.394 304.275 261.854 303.884C252.867 302.516 243.489 302.907 234.501 304.275C228.444 305.056 222.387 306.424 217.112 309.159C213.595 311.113 210.469 313.653 207.343 316.584C204.412 319.319 201.286 322.641 200.505 326.548C199.918 329.479 200.505 332.41 201.091 335.145C201.677 337.685 202.458 340.225 203.826 342.374C205.78 345.11 208.711 347.064 211.837 348.04C214.963 349.017 218.48 349.408 221.801 349.603C225.318 349.799 229.421 349.994 232.156 347.845L233.329 347.064C240.362 343.156 248.568 340.616 256.579 341.984C257.947 342.374 258.924 342.57 259.901 342.765Z" fill="white"/>
<path d="M259.901 342.765C263.613 343.742 267.13 345.5 270.647 346.673C275.14 348.236 280.22 349.017 284.714 347.259C286.668 346.477 288.622 345.11 290.185 343.742C291.943 342.374 293.506 341.007 294.483 339.053C296.437 335.731 296.046 331.628 295.656 327.721C295.265 324.399 294.679 320.882 292.725 318.147C291.357 316.193 289.403 314.63 287.45 313.262C281.979 309.55 275.922 307.01 269.474 305.447C266.934 304.861 264.394 304.275 261.854 303.884C252.867 302.516 243.489 302.907 234.501 304.275C228.444 305.056 222.387 306.424 217.112 309.159C213.595 311.113 210.469 313.653 207.343 316.584C204.412 319.319 201.286 322.641 200.505 326.548C199.918 329.479 200.505 332.41 201.091 335.145C201.677 337.685 202.458 340.225 203.826 342.374C205.78 345.11 208.711 347.064 211.837 348.04C214.963 349.017 218.48 349.408 221.801 349.603C225.318 349.799 229.421 349.994 232.156 347.845L233.329 347.064C240.362 343.156 248.568 340.616 256.579 341.984C257.947 342.374 258.924 342.57 259.901 342.765Z" fill="white"/>
<path d="M151.851 335.926C156.149 330.651 154.781 324.594 154.586 319.318C154.195 311.698 142.082 306.814 134.853 304.665C131.922 303.688 120.199 304.665 116.291 307.4C112.384 310.135 110.039 317.365 109.453 318.537C105.35 327.329 111.993 338.857 116.291 344.718C120.003 349.603 127.428 351.947 134.266 350.384C141.105 348.821 148.138 342.373 151.851 335.926Z" fill="#3F3969"/>
<path d="M269.08 333.972C273.378 328.696 272.01 322.639 271.815 317.364C271.424 309.744 259.311 304.86 252.082 302.711C249.151 301.734 237.428 302.711 233.52 305.446C229.613 308.181 227.268 315.41 226.682 316.583C222.579 325.375 229.222 336.902 233.52 342.764C237.232 347.648 244.657 349.993 251.495 348.43C258.334 346.867 265.367 340.419 269.08 333.972Z" fill="#3F3969"/>
</svg>
