<?xml version="1.0" encoding="utf-8"?>
<!-- Generator: Adobe Illustrator 21.1.0, SVG Export Plug-In . SVG Version: 6.00 Build 0)  -->
<svg version="1.1" id="Calque_1" xmlns="http://www.w3.org/2000/svg" xmlns:xlink="http://www.w3.org/1999/xlink" x="0px" y="0px"
	 viewBox="0 0 360 497" style="enable-background:new 0 0 360 497;" xml:space="preserve">
<style type="text/css">
	.st0{fill:#F9DB4E;}
	.st1{fill:#3F3969;}
	.st2{fill:#FFFFFF;}
	.st3{clip-path:url(#SVGID_1_);}
	.st4{fill:none;}
	.st5{clip-path:url(#SVGID_2_);}
</style>
<g>
	<g>
		<g>
			<path class="st0" d="M264.4,197.8c42.1,0.6,43.6-16.3,69.2-27.2c8.8-3.8,7.4-9.7,8.3-11.6c4.3-9.6,1-15.5-1.5-23.3
				c-3.5-11.2-8.3-20.5-16-29.4c-7.7-8.9-18-13.3-29.7-14.3c-3-27.2-12.7-51.8-37.6-65.1c-24.9-13.3-51.4-11.6-71.6,7.3
				c-9.6-13.6-23.3-19.2-40-22.5s-34.2,0-49.8,7.9c-12.4,6.3-23,15.3-29.9,27.8c-6.9,12.5-7.2,25.6-2.3,38.8
				c-14.5,5.8-26,14.5-35.1,27.5c-8,11.6-12.7,25.2-9.9,39c2.1,10.8,9.7,19.5,15.7,27.1c5.5,7,11.6,13.8,18.4,16.8
				c16.6,7.3,28.4,4.4,46.2-0.5C147.4,195.5,222.3,197.2,264.4,197.8z"/>
		</g>
		<g>
			<path class="st1" d="M95.7,192.6c0.2-0.3,0.4-0.4,0.7-0.5c9.7-3.2,18.8,1.1,28.3,2.2c14.7,1.7,28.5-2.2,43.1-2.8
				c25.4-1,50.6,4.2,76.1,3.7c9-0.2,18-1.4,27,0.6c0.8,0.2,1.3,0.7,1.3,1.7c0.2,11.6,0.7,23.5,1.2,35.1c0,0.8,0.1,1.2-0.4,1.8
				c-0.4,0.6-1.4,0.8-2.1,0.8c-36.5,2.9-73.2,3.3-109.8,2.8c-8.5-0.1-16.8-0.3-25.3-1.6c-13.5-2.1-26.3-6-40.1-3.5
				c-1.1,0.2-2.1-0.5-2.1-1.6c-0.2-12.1,0.1-24.2,0.7-36.3c0-0.3,0.1-0.6,0.4-1C95,193.6,95.5,192.9,95.7,192.6z"/>
		</g>
		<g>
			<path class="st0" d="M88,229.5c-26.3-6.9-52.1-2-68.4,21.7C3.3,274.9,8.4,302.3,23,325.5c-8.7,5.7-14.3,14.3-15.7,24.7
				c-1.4,10.3-0.1,20.1,2.5,30c5.8,22.1,12.7,43.2,33.4,55.2c16.8,9.8,36.5,6.2,55.1,6.5c18.2,28.3,45.4,47.8,80.1,44.5
				s56.1-25.5,76.5-51.2c11.3,7.4,24.4,7.8,37.7,7.1c12.1-0.7,23.9-1.3,33.7-8.7c5.9-4.5,9.1-10.8,12.4-17.2
				c9-17.8,17.8-35.3,13.7-55.7c-3.2-16.4-15.6-27.1-26-39.2c13.6-5.4,21.2-17.7,20.7-32.3c-0.5-14.6-7.1-26.6-15-38.3
				c-10.4-15.3-23.4-28-42.6-27.4c-10.4,0.3-18.8,6.7-28.5,8.9c-7.9,1.7-15.7,2.5-23.6,2.7c-34,1.1-67.6,2.3-101.4-1.4
				c-14.3-1.6-28-4.9-42.5-4.6C92.1,229.1,89,228.1,88,229.5"/>
		</g>
	</g>
	<g>
		<g>
			<path class="st2" d="M238.7,316.5c3.3,0.9,6.4,2.4,9.6,3.4c4.1,1.4,8.6,2.2,12.5,0.6c1.8-0.7,3.4-1.9,4.9-3.1
				c1.5-1.2,3-2.5,3.9-4.2c1.7-3,1.5-6.7,1.1-10.1c-0.4-3-0.9-6.1-2.6-8.6c-1.2-1.8-2.9-3.1-4.7-4.3c-4.9-3.3-10.3-5.6-16-7.1
				c0,0,0,0,0,0c-2.2-0.6-4.5-1-6.7-1.4c-8.1-1.2-16.4-0.8-24.5,0.3c-5.4,0.7-10.8,1.8-15.6,4.4c-3.2,1.7-6,4.1-8.7,6.6
				c-2.7,2.5-5.4,5.4-6.1,8.9c-0.5,2.6,0,5.2,0.6,7.7c0.5,2.3,1.2,4.6,2.5,6.5c1.7,2.5,4.4,4.2,7.2,5.1c2.9,1,5.9,1.3,8.9,1.5
				c3.2,0.2,6.7,0.3,9.3-1.6l1-0.7c6.3-3.5,13.7-5.8,20.8-4.6C237,316.1,237.8,316.3,238.7,316.5"/>
		</g>
		<g>
			<path class="st2" d="M238.7,316.5c3.3,0.9,6.4,2.4,9.6,3.4c4.1,1.4,8.6,2.2,12.5,0.6c1.8-0.7,3.4-1.9,4.9-3.1
				c1.5-1.2,3-2.5,3.9-4.2c1.7-3,1.5-6.7,1.1-10.1c-0.4-3-0.9-6.1-2.6-8.6c-1.2-1.8-2.9-3.1-4.7-4.3c-4.9-3.3-10.3-5.6-16-7.1
				c0,0,0,0,0,0c-2.2-0.6-4.5-1-6.7-1.4c-8.1-1.2-16.4-0.8-24.5,0.3c-5.4,0.7-10.8,1.8-15.6,4.4c-3.2,1.7-6,4.1-8.7,6.6
				c-2.7,2.5-5.4,5.4-6.1,8.9c-0.5,2.6,0,5.2,0.6,7.7c0.5,2.3,1.2,4.6,2.5,6.5c1.7,2.5,4.4,4.2,7.2,5.1c2.9,1,5.9,1.3,8.9,1.5
				c3.2,0.2,6.7,0.3,9.3-1.6l1-0.7c6.3-3.5,13.7-5.8,20.8-4.6C237,316.1,237.8,316.3,238.7,316.5"/>
		</g>
		<g>
			<defs>
				<path id="SVGID_5_" d="M238.7,316.5c3.3,0.9,6.4,2.4,9.6,3.4c4.1,1.4,8.6,2.2,12.5,0.6c1.8-0.7,3.4-1.9,4.9-3.1
					c1.5-1.2,3-2.5,3.9-4.2c1.7-3,1.5-6.7,1.1-10.1c-0.4-3-0.9-6.1-2.6-8.6c-1.2-1.8-2.9-3.1-4.7-4.3c-4.9-3.3-10.3-5.6-16-7.1
					c0,0,0,0,0,0c-2.2-0.6-4.5-1-6.7-1.4c-8.1-1.2-16.4-0.8-24.5,0.3c-5.4,0.7-10.8,1.8-15.6,4.4c-3.2,1.7-6,4.1-8.7,6.6
					c-2.7,2.5-5.4,5.4-6.1,8.9c-0.5,2.6,0,5.2,0.6,7.7c0.5,2.3,1.2,4.6,2.5,6.5c1.7,2.5,4.4,4.2,7.2,5.1c2.9,1,5.9,1.3,8.9,1.5
					c3.2,0.2,6.7,0.3,9.3-1.6l1-0.7c6.3-3.5,13.7-5.8,20.8-4.6C237,316.1,237.8,316.3,238.7,316.5"/>
			</defs>
			<clipPath id="SVGID_1_">
				<use xlink:href="#SVGID_5_"  style="overflow:visible;"/>
			</clipPath>
			<g class="st3">
				<path class="st1" d="M246.9,308.6c3.8-4.6,2.6-10.1,2.5-14.8c-0.3-6.7-11.2-11.1-17.6-13.2c-2.7-0.8-13.1,0-16.6,2.4
					c-3.6,2.4-5.6,8.8-6.1,9.9c-3.7,7.8,2.2,18.2,6.1,23.4c3.3,4.4,9.9,6.4,16.1,5.1C237.3,320.1,243.6,314.4,246.9,308.6"/>
			</g>
		</g>
	</g>
	<g>
		<g>
			<path class="st2" d="M134,318.2c3.3,0.9,6.4,2.4,9.6,3.4c4.1,1.4,8.6,2.2,12.5,0.6c1.8-0.7,3.4-1.9,4.9-3.1
				c1.5-1.2,3-2.5,3.9-4.2c1.7-3,1.5-6.7,1.1-10.1c-0.4-3-0.9-6.1-2.6-8.6c-1.2-1.8-2.9-3.1-4.7-4.3c-4.9-3.3-10.3-5.6-16-7.1
				c0,0,0,0,0,0c-2.2-0.6-4.5-1-6.7-1.4c-8.1-1.2-16.4-0.8-24.5,0.3c-5.4,0.7-10.8,1.8-15.6,4.4c-3.2,1.7-6,4.1-8.7,6.6
				c-2.7,2.5-5.4,5.4-6.1,8.9c-0.5,2.6,0,5.2,0.6,7.7c0.5,2.3,1.2,4.6,2.5,6.5c1.7,2.5,4.4,4.2,7.2,5.1c2.9,1,5.9,1.3,8.9,1.5
				c3.2,0.2,6.7,0.3,9.3-1.6l1-0.7c6.3-3.5,13.7-5.8,20.8-4.6C132.3,317.8,133.1,318,134,318.2"/>
		</g>
		<g>
			<path class="st4" d="M134,318.2c3.3,0.9,6.4,2.4,9.6,3.4c4.1,1.4,8.6,2.2,12.5,0.6c1.8-0.7,3.4-1.9,4.9-3.1
				c1.5-1.2,3-2.5,3.9-4.2c1.7-3,1.5-6.7,1.1-10.1c-0.4-3-0.9-6.1-2.6-8.6c-1.2-1.8-2.9-3.1-4.7-4.3c-4.9-3.3-10.3-5.6-16-7.1
				c0,0,0,0,0,0c-2.2-0.6-4.5-1-6.7-1.4c-8.1-1.2-16.4-0.8-24.5,0.3c-5.4,0.7-10.8,1.8-15.6,4.4c-3.2,1.7-6,4.1-8.7,6.6
				c-2.7,2.5-5.4,5.4-6.1,8.9c-0.5,2.6,0,5.2,0.6,7.7c0.5,2.3,1.2,4.6,2.5,6.5c1.7,2.5,4.4,4.2,7.2,5.1c2.9,1,5.9,1.3,8.9,1.5
				c3.2,0.2,6.7,0.3,9.3-1.6l1-0.7c6.3-3.5,13.7-5.8,20.8-4.6C132.3,317.8,133.1,318,134,318.2"/>
		</g>
		<g>
			<defs>
				<path id="SVGID_7_" d="M134,318.3c3.3,0.9,6.4,2.4,9.6,3.4c4.1,1.4,8.6,2.2,12.5,0.6c1.8-0.7,3.4-1.9,4.9-3.1
					c1.5-1.2,3-2.5,3.9-4.2c1.7-3,1.5-6.7,1.1-10.1c-0.4-3-0.9-6.1-2.6-8.6c-1.2-1.8-2.9-3.1-4.7-4.3c-4.9-3.3-10.3-5.6-16-7.1
					c0,0,0,0,0,0c-2.2-0.6-4.5-1-6.7-1.4c-8.1-1.2-16.4-0.8-24.5,0.3c-5.4,0.7-10.8,1.8-15.6,4.4c-3.2,1.7-6,4.1-8.7,6.6
					c-2.7,2.5-5.4,5.4-6.1,8.9c-0.5,2.6,0,5.2,0.6,7.7c0.5,2.3,1.2,4.6,2.5,6.5c1.7,2.5,4.4,4.2,7.2,5.1c2.9,1,5.9,1.3,8.9,1.5
					c3.2,0.2,6.7,0.3,9.3-1.6l1-0.7c6.3-3.5,13.7-5.8,20.8-4.6C132.3,317.8,133.1,318,134,318.3"/>
			</defs>
			<clipPath id="SVGID_2_">
				<use xlink:href="#SVGID_7_"  style="overflow:visible;"/>
			</clipPath>
			<g class="st5">
				<path class="st1" d="M142.2,310.3c3.8-4.6,2.6-10.1,2.5-14.8c-0.3-6.7-11.2-11.1-17.6-13.2c-2.7-0.8-13.1,0-16.6,2.4
					c-3.6,2.4-5.6,8.8-6.1,9.9c-3.7,7.8,2.2,18.2,6.1,23.4c3.3,4.4,9.9,6.4,16.1,5.1C132.6,321.9,138.9,316.1,142.2,310.3"/>
			</g>
		</g>
	</g>
</g>
</svg>
