<?xml version="1.0" encoding="utf-8"?>
<!-- Generator: Adobe Illustrator 21.1.0, SVG Export Plug-In . SVG Version: 6.00 Build 0)  -->
<svg version="1.1" id="Calque_1" xmlns="http://www.w3.org/2000/svg" xmlns:xlink="http://www.w3.org/1999/xlink" x="0px" y="0px"
	 viewBox="0 0 360 497" style="enable-background:new 0 0 360 497;" xml:space="preserve">
<style type="text/css">
	.st0{fill:#F9DB4E;}
	.st1{fill:#1B1F9B;}
	.st2{fill:#FFFFFF;}
</style>
<path class="st0" d="M267.6,195.5c43.7,0.7,45.3-16.9,71.7-28.4c9.1-3.8,7.8-10.2,8.5-12c4.5-10,1.1-16.2-1.6-24.4
	c-3.6-11.7-8.7-21.5-16.7-30.6c-8-9.1-18.7-13.8-30.8-14.9c-3.1-28.4-13.2-54.1-39-67.9c-25.9-13.8-53.4-12-74.3,7.6
	c-9.8-14.4-23.9-20.2-41.3-23.7c-17.4-3.5-35.5,0-51.6,8.2c-13,6.6-23.9,16-31.2,29.1S54,65.4,59.1,79c-15,6-27,15.1-36.4,28.8
	C14.3,120,9.5,134,12.4,148.6c2.2,11.3,10,20.4,16.3,28.4c5.6,7.3,12,14.4,19.2,17.5c17.2,7.6,29.5,4.6,47.8-0.5
	C146.2,193.2,224,195,267.6,195.5z"/>
<path class="st1" d="M92.4,190.1c0.2-0.4,0.4-0.5,0.7-0.5c10.1-3.3,19.6,1.1,29.4,2.4c15.2,1.8,29.5-2.4,44.8-2.9
	c26.5-1.1,52.5,4.4,79,3.8c9.4-0.2,18.7-1.5,28.1,0.7c0.9,0.2,1.5,0.7,1.5,1.6c0.2,12.2,0.7,24.6,1.3,36.6c0,0.7,0,1.3-0.4,1.8
	c-0.5,0.7-1.5,0.9-2.2,0.9c-37.9,2.9-76.1,3.5-114,2.9c-8.9-0.2-17.4-0.4-26.3-1.6c-14-2.2-27.4-6.4-41.7-3.6
	c-1.1,0.2-2.2-0.5-2.2-1.6c-0.2-12.7,0.2-25.3,0.7-37.9c0-0.4,0.2-0.7,0.4-1.1S92.3,190.4,92.4,190.1z"/>
<path class="st0" d="M84.5,228.7c-27.4-7.1-54.2-2-71,22.8c-17,24.8-11.6,53.3,3.4,77.6C7.8,335,2,343.9,0.6,354.6
	c-1.4,10.7,0,20.9,2.5,31.3c6,22.9,13.2,45,34.6,57.5c17.4,10.2,37.9,6.4,57.3,6.7c18.8,29.5,47.1,49.9,83.2,46.4
	c36.1-3.5,58.2-26.6,79.4-53.3c11.8,7.6,25.4,8.2,39.1,7.5c12.5-0.7,24.8-1.3,35-9.1c6.2-4.7,9.4-11.3,12.9-17.8
	c9.2-18.6,18.5-36.8,14.3-58.1c-3.4-17.1-16.3-28.2-27-40.8c14.1-5.6,21.9-18.4,21.4-33.7c-0.5-15.3-7.2-27.7-15.6-40.1
	c-10.9-16-24.3-29.3-44.2-28.6c-10.9,0.4-19.6,6.9-29.5,9.3c-8.2,1.8-16.3,2.5-24.5,2.9c-35.3,1.1-70.1,2.4-105.3-1.5
	c-14.9-1.6-29-5.1-44-4.7C88.8,228.1,85.5,227.2,84.5,228.7z"/>
<path class="st2" d="M132.3,293.5c3.4,0.9,6.7,2.5,10,3.6c4.2,1.5,8.9,2.2,13,0.5c1.8-0.7,3.6-2,5.1-3.3c1.6-1.3,3.1-2.5,4-4.4
	c1.8-3.1,1.4-6.9,1.1-10.6c-0.4-3.1-0.9-6.4-2.7-8.9c-1.3-1.8-3.1-3.3-4.9-4.6c-5.1-3.5-10.7-5.8-16.7-7.3c-2.4-0.5-4.7-1.1-7.1-1.5
	c-8.3-1.3-17-0.9-25.4,0.4c-5.6,0.7-11.2,2-16.1,4.6c-3.3,1.8-6.2,4.2-9.1,6.9c-2.7,2.5-5.6,5.6-6.3,9.3c-0.5,2.7,0,5.5,0.5,8
	c0.5,2.4,1.3,4.7,2.5,6.7c1.8,2.5,4.5,4.4,7.4,5.3c2.9,0.9,6.2,1.3,9.2,1.5c3.3,0.2,7.1,0.4,9.6-1.6l1.1-0.7
	c6.5-3.6,14.1-6,21.6-4.7C130.4,293.1,131.4,293.3,132.3,293.5z"/>
<path class="st2" d="M241,291.7c3.4,0.9,6.7,2.5,10,3.6c4.2,1.5,8.9,2.2,13,0.5c1.8-0.7,3.6-2,5.1-3.3c1.6-1.3,3.1-2.5,4-4.4
	c1.8-3.1,1.5-6.9,1.1-10.6c-0.4-3.1-0.9-6.4-2.7-8.9c-1.3-1.8-3.1-3.3-4.9-4.6c-5.1-3.5-10.7-5.8-16.7-7.3c-2.4-0.5-4.7-1.1-7.1-1.5
	c-8.3-1.3-17-0.9-25.4,0.4c-5.6,0.7-11.2,2-16.1,4.6c-3.3,1.8-6.2,4.2-9.1,6.9c-2.7,2.5-5.6,5.6-6.3,9.3c-0.5,2.7,0,5.5,0.5,8
	c0.5,2.4,1.3,4.7,2.5,6.7c1.8,2.5,4.5,4.4,7.4,5.3c2.9,0.9,6.2,1.3,9.2,1.5c3.3,0.2,7.1,0.4,9.6-1.6l1.1-0.7
	c6.5-3.6,14.1-6,21.6-4.7C239.2,291.3,240.1,291.5,241,291.7z"/>
<path class="st2" d="M241,291.7c3.4,0.9,6.7,2.5,10,3.6c4.2,1.5,8.9,2.2,13,0.5c1.8-0.7,3.6-2,5.1-3.3c1.6-1.3,3.1-2.5,4-4.4
	c1.8-3.1,1.5-6.9,1.1-10.6c-0.4-3.1-0.9-6.4-2.7-8.9c-1.3-1.8-3.1-3.3-4.9-4.6c-5.1-3.5-10.7-5.8-16.7-7.3c-2.4-0.5-4.7-1.1-7.1-1.5
	c-8.3-1.3-17-0.9-25.4,0.4c-5.6,0.7-11.2,2-16.1,4.6c-3.3,1.8-6.2,4.2-9.1,6.9c-2.7,2.5-5.6,5.6-6.3,9.3c-0.5,2.7,0,5.5,0.5,8
	c0.5,2.4,1.3,4.7,2.5,6.7c1.8,2.5,4.5,4.4,7.4,5.3c2.9,0.9,6.2,1.3,9.2,1.5c3.3,0.2,7.1,0.4,9.6-1.6l1.1-0.7
	c6.5-3.6,14.1-6,21.6-4.7C239.2,291.3,240.1,291.5,241,291.7z"/>
<path class="st1" d="M140.8,285.3c4-4.9,2.7-10.6,2.5-15.5c-0.4-7.1-11.6-11.7-18.3-13.7c-2.7-0.9-13.6,0-17.2,2.5
	c-3.6,2.5-5.8,9.3-6.3,10.4c-3.8,8.2,2.4,18.9,6.3,24.4c3.4,4.6,10.3,6.7,16.7,5.3C130.8,297.3,137.3,291.3,140.8,285.3z"/>
<path class="st1" d="M249.5,283.5c4-4.9,2.7-10.6,2.5-15.5c-0.4-7.1-11.6-11.7-18.3-13.7c-2.7-0.9-13.6,0-17.2,2.5
	c-3.6,2.5-5.8,9.3-6.3,10.4c-3.8,8.2,2.4,18.9,6.3,24.4c3.4,4.6,10.3,6.7,16.7,5.3C239.5,295.5,246,289.5,249.5,283.5z"/>
</svg>
