<svg width="360" height="334" viewBox="0 0 360 334" fill="none" xmlns="http://www.w3.org/2000/svg">
<g clip-path="url(#clip0)">
<path d="M267.632 32.5233C311.296 33.2515 312.926 15.5926 339.378 4.12334C348.437 0.300262 347.169 -6.07155 347.894 -7.89206C352.423 -17.9049 348.981 -24.0946 346.263 -32.2869C342.639 -43.9382 337.566 -53.769 329.595 -62.8715C321.623 -71.9741 310.933 -76.7074 298.794 -77.7998C295.714 -106.2 285.568 -131.869 259.841 -145.705C233.933 -159.541 206.394 -157.72 185.558 -138.059C175.775 -152.441 161.643 -158.266 144.25 -161.725C126.857 -165.184 108.739 -161.725 92.6142 -153.533C79.5694 -146.979 68.6988 -137.513 61.4517 -124.405C54.2046 -111.297 54.0234 -97.6433 59.0963 -83.9895C44.0586 -77.9818 32.1009 -68.8792 22.6796 -55.2254C14.3455 -43.028 9.45367 -29.01 12.3525 -14.4459C14.5266 -3.15872 22.3173 5.94383 28.6585 13.9541C34.275 21.2361 40.6162 28.3362 47.8633 31.431C65.0752 39.0772 77.3953 35.9823 95.6942 30.8849C146.243 30.1567 223.968 31.9772 267.632 32.5233Z" fill="#F9DB4E"/>
<path d="M92.4329 27.0616C92.6141 26.6975 92.7953 26.5154 93.1576 26.5154C103.304 23.2385 112.725 27.6077 122.508 28.8821C137.727 30.7026 152.04 26.5154 167.259 25.9693C193.711 24.877 219.801 30.3385 246.253 29.7924C255.674 29.6103 264.914 28.3359 274.335 30.5206C275.241 30.7026 275.785 31.2488 275.785 32.159C275.966 44.3564 276.509 56.7359 277.053 68.7513C277.053 69.4795 277.053 70.0257 276.691 70.5718C276.147 71.3001 275.241 71.4821 274.516 71.4821C236.65 74.3949 198.422 74.9411 160.556 74.3949C151.678 74.2129 143.163 74.0308 134.285 72.7565C120.334 70.5718 106.927 66.3847 92.6141 69.1154C91.527 69.2975 90.44 68.5693 90.44 67.477C90.2588 54.7334 90.6211 42.1718 91.1647 29.6103C91.1647 29.2462 91.3458 28.8821 91.527 28.518C91.7082 28.1539 92.2517 27.4257 92.4329 27.0616Z" fill="#1B1F9B"/>
<path d="M84.4612 65.6564C57.1034 58.5564 30.2891 63.6538 13.4396 88.4128C-3.59111 113.172 1.84422 141.754 16.882 165.967C7.82309 171.974 2.0254 180.895 0.57598 191.636C-0.873442 202.377 0.57598 212.572 3.11247 222.949C9.09133 245.887 16.3384 267.915 37.7174 280.477C55.1105 290.672 75.5835 286.849 94.9695 287.213C113.812 316.705 142.076 337.095 178.13 333.636C214.184 330.177 236.288 307.056 257.486 280.295C269.262 287.941 282.851 288.487 296.62 287.759C309.122 287.031 321.442 286.485 331.588 278.656C337.748 273.923 341.009 267.369 344.451 260.815C353.691 242.246 362.931 224.041 358.764 202.741C355.322 185.628 342.458 174.523 331.769 161.962C345.901 156.318 353.691 143.574 353.148 128.282C352.604 112.99 345.901 100.61 337.566 88.2307C326.696 72.2102 313.289 58.9205 293.359 59.6487C282.488 60.0128 273.792 66.5666 263.827 68.9333C255.674 70.7538 247.521 71.482 239.368 71.8461C204.038 72.9384 169.252 74.2128 134.104 70.3897C119.247 68.7512 105.115 65.2923 90.0777 65.6564C88.8095 65.1102 85.5483 64.2 84.4612 65.6564Z" fill="#F9DB4E"/>
<path d="M132.259 130.507C135.702 131.418 138.963 133.056 142.224 134.148C146.391 135.605 151.102 136.333 155.269 134.695C157.081 133.966 158.892 132.692 160.342 131.418C161.972 130.143 163.422 128.869 164.328 127.048C166.139 123.954 165.777 120.131 165.415 116.49C165.052 113.395 164.509 110.118 162.697 107.569C161.429 105.749 159.617 104.292 157.805 103.018C152.732 99.5588 147.116 97.1921 141.137 95.7357C138.782 95.1896 136.426 94.6434 134.071 94.2793C125.737 93.0049 117.04 93.369 108.706 94.6434C103.09 95.3716 97.4731 96.646 92.5813 99.1947C89.3201 101.015 86.4213 103.382 83.5224 106.113C80.8047 108.661 77.9059 111.756 77.1812 115.397C76.6377 118.128 77.1812 120.859 77.7247 123.407C78.2683 125.774 78.993 128.141 80.2612 130.143C82.073 132.692 84.7907 134.513 87.6895 135.423C90.5883 136.333 93.8495 136.697 96.9296 136.879C100.191 137.061 103.995 137.243 106.532 135.241L107.619 134.513C114.141 130.872 121.751 128.505 129.179 129.779C130.447 130.143 131.353 130.325 132.259 130.507Z" fill="white"/>
<path d="M240.966 128.687C244.408 129.597 247.669 131.236 250.93 132.328C255.098 133.784 259.808 134.513 263.975 132.874C265.787 132.146 267.599 130.872 269.048 129.597C270.679 128.323 272.128 127.048 273.034 125.228C274.846 122.133 274.484 118.31 274.121 114.669C273.759 111.574 273.215 108.297 271.404 105.748C270.135 103.928 268.324 102.472 266.512 101.197C261.439 97.7382 255.822 95.3716 249.843 93.9152C247.488 93.369 245.133 92.8228 242.777 92.4587C234.443 91.1844 225.747 91.5485 217.413 92.8228C211.796 93.551 206.18 94.8254 201.288 97.3741C198.027 99.1946 195.128 101.561 192.229 104.292C189.511 106.841 186.612 109.936 185.888 113.577C185.344 116.307 185.888 119.038 186.431 121.587C186.975 123.954 187.7 126.32 188.968 128.323C190.78 130.872 193.497 132.692 196.396 133.602C199.295 134.513 202.556 134.877 205.636 135.059C208.897 135.241 212.702 135.423 215.239 133.42L216.326 132.692C222.848 129.051 230.457 126.684 237.886 127.959C239.154 128.323 240.06 128.505 240.966 128.687Z" fill="white"/>
<path d="M240.966 128.687C244.408 129.597 247.669 131.236 250.93 132.328C255.098 133.784 259.808 134.513 263.975 132.874C265.787 132.146 267.599 130.872 269.048 129.597C270.679 128.323 272.128 127.048 273.034 125.228C274.846 122.133 274.484 118.31 274.121 114.669C273.759 111.574 273.215 108.297 271.404 105.748C270.135 103.928 268.324 102.472 266.512 101.197C261.439 97.7382 255.822 95.3716 249.843 93.9152C247.488 93.369 245.133 92.8228 242.777 92.4587C234.443 91.1844 225.747 91.5485 217.413 92.8228C211.796 93.551 206.18 94.8254 201.288 97.3741C198.027 99.1946 195.128 101.561 192.229 104.292C189.511 106.841 186.612 109.936 185.888 113.577C185.344 116.307 185.888 119.038 186.431 121.587C186.975 123.954 187.7 126.32 188.968 128.323C190.78 130.872 193.497 132.692 196.396 133.602C199.295 134.513 202.556 134.877 205.636 135.059C208.897 135.241 212.702 135.423 215.239 133.42L216.326 132.692C222.848 129.051 230.457 126.684 237.886 127.959C239.154 128.323 240.06 128.505 240.966 128.687Z" fill="white"/>
<path d="M140.775 122.315C144.761 117.4 143.492 111.756 143.311 106.841C142.949 99.7409 131.716 95.1896 125.012 93.187C122.295 92.2768 111.424 93.187 107.8 95.7357C104.177 98.2845 102.003 105.02 101.459 106.113C97.6545 114.305 103.814 125.046 107.8 130.508C111.243 135.059 118.128 137.243 124.469 135.787C130.81 134.331 137.332 128.323 140.775 122.315Z" fill="#1B1F9B"/>
<path d="M249.481 120.495C253.467 115.579 252.199 109.936 252.018 105.02C251.655 97.9203 240.422 93.369 233.719 91.3665C231.001 90.4562 220.13 91.3665 216.507 93.9152C212.883 96.4639 210.709 103.2 210.166 104.292C206.361 112.484 212.521 123.225 216.507 128.687C219.949 133.238 226.834 135.423 233.175 133.966C239.517 132.51 246.039 126.502 249.481 120.495Z" fill="#1B1F9B"/>
<path d="M161.263 147.885C163.043 147.366 169.202 148.172 172.739 149.53C173.773 149.927 174.79 150.383 175.87 150.629C178.566 151.238 181.368 150.473 183.965 149.527C186.562 148.581 189.148 147.439 191.904 147.27C193.721 147.16 195.541 147.479 197.286 147.99C198.624 148.378 199.979 148.912 200.921 149.945C201.848 150.963 202.264 152.349 202.469 153.713C202.81 155.961 202.663 158.278 202.088 160.477C201.828 161.469 201.475 162.452 200.857 163.27C199.982 164.428 198.662 165.141 197.382 165.82C195.432 166.856 193.464 167.897 191.338 168.483C189.264 169.054 187.097 169.173 184.976 169.527C183.067 169.846 181.16 170.357 179.227 170.258C177.479 170.168 175.804 169.582 174.105 169.159C170.621 168.291 166.987 168.097 163.537 167.088C160.091 166.078 156.679 164.025 155.292 160.7C153.787 157.098 155.081 152.761 157.684 149.855C158.736 148.677 158.389 148.703 161.263 147.885Z" fill="#1B1F9B"/>
<path d="M173.238 153.228C170.25 151.357 166.339 151.021 162.976 152.065C161.8 152.431 160.636 153.008 159.902 154C159.082 155.108 158.914 156.616 159.264 157.948C159.613 159.282 160.437 160.451 161.422 161.414C164.706 164.622 169.543 165.539 174.099 166.023C176.199 166.247 178.314 166.412 180.423 166.273C182.269 166.154 184.092 165.806 185.906 165.446C187.752 165.08 189.627 164.698 191.297 163.825C192.291 163.305 193.195 162.624 194.218 162.165C195.844 161.44 197.869 161.194 198.852 159.703C199.539 158.658 199.481 157.295 199.247 156.065C199.062 155.096 198.765 154.11 198.106 153.379C196.858 151.993 194.717 151.677 192.886 152.022C175.02 155.384 173.238 153.228 173.238 153.228Z" fill="white"/>
</g>
<g clip-path="url(#clip1)">
<path d="M166.169 255.808C165.866 256.678 166 257.582 165.933 258.486C165.866 259.255 165.798 260.059 165.663 260.828C165.596 261.096 165.293 261.364 165.057 261.464C164.821 261.565 164.484 261.063 164.484 260.594C164.484 260.46 164.484 260.326 164.484 260.193C164.484 258.552 164.484 256.912 164.484 255.272C164.484 254.971 164.518 254.703 164.518 254.402C164.518 254.235 164.653 254.101 164.821 254.101C166.573 253.833 168.191 254.067 169.606 255.272C170.651 254.168 171.864 253.833 173.245 253.9C174.93 254 176.042 254.938 176.076 256.578C176.109 257.883 175.941 259.188 175.806 260.494C175.806 260.628 175.537 260.795 175.368 260.828C175.233 260.828 174.964 260.661 174.93 260.527C174.795 260.025 174.593 259.49 174.694 258.988C174.896 257.716 174.155 256.845 173.447 256.009C172.773 255.138 171.56 255.272 170.954 256.176C170.819 256.377 170.718 256.611 170.549 256.845C170.448 257.013 170.314 257.147 170.314 257.147C170.314 258.218 170.314 259.155 170.314 260.059C170.314 260.427 170.212 260.728 169.808 260.795C169.437 260.828 169.235 260.561 169.168 260.193C168.966 259.222 168.797 258.251 168.561 257.314C168.292 256.31 167.584 255.808 166.573 255.674C166.472 255.64 166.337 255.741 166.169 255.808Z" fill="#1B1F9B"/>
<path d="M211.053 254.134C211.963 253.967 212.771 253.833 213.614 253.699C214.49 253.565 215.332 253.733 216.04 254.335C216.343 254.603 216.646 254.837 216.983 255.105C217.758 254.636 218.5 254.134 219.308 253.766C220.589 253.197 221.465 253.465 222.173 254.67C222.442 255.105 222.712 255.641 222.745 256.109C222.847 257.749 222.847 259.389 222.88 261.029C222.88 261.096 222.88 261.197 222.847 261.23C222.644 261.364 222.442 261.632 222.24 261.598C222.038 261.565 221.768 261.297 221.735 261.096C221.667 260.327 221.735 259.523 221.633 258.72C221.532 257.883 221.297 257.046 221.061 256.243C220.96 255.942 220.791 255.641 220.589 255.406C220.117 254.804 219.308 254.737 218.87 255.339C218.095 256.444 217.152 257.515 217.287 259.021C217.354 259.657 217.287 260.327 217.219 260.996C217.186 261.163 216.882 261.465 216.714 261.431C216.512 261.431 216.242 261.163 216.208 260.962C216.107 260.594 216.175 260.193 216.107 259.791C216.006 258.62 215.905 257.448 215.703 256.277C215.534 255.272 215.029 254.837 214.153 254.804C213.176 254.77 212.603 255.139 212.434 256.076C212.266 257.046 212.198 258.017 212.131 259.021C212.097 259.624 212.097 260.193 212.097 260.795C212.097 261.163 211.929 261.465 211.525 261.465C211.154 261.465 210.985 261.13 210.918 260.795C210.884 260.594 210.817 260.393 210.817 260.226C210.851 258.184 210.817 256.143 211.053 254.134Z" fill="#1B1F9B"/>
<path d="M236.662 260.962C236.629 261.331 236.258 262 235.921 261.331C235.584 260.695 234.573 261.297 233.933 261.464C232.652 261.766 231.473 261.297 230.462 260.46C230.294 260.326 230.159 260.193 230.058 260.025C228.744 258.285 229.552 254.971 231.574 254.067C232.551 253.632 233.562 253.331 234.641 253.666C234.708 253.699 234.742 253.699 234.809 253.699C235.079 253.733 235.348 253.599 235.449 253.365C235.618 252.996 235.55 252.628 235.55 252.26C235.584 251.724 235.55 251.222 235.584 250.687C235.618 250.352 235.753 250.017 236.157 250.017C236.561 249.984 236.73 250.285 236.73 250.653C236.73 250.787 236.73 250.921 236.73 251.055C236.73 253.867 236.73 256.678 236.73 259.49C236.763 259.958 236.696 260.393 236.662 260.962ZM234.506 255.406C233.866 255.038 232.551 255.172 232.315 255.272C231.069 255.774 230.395 257.314 231.001 258.519C231.642 259.791 232.855 260.326 234.304 259.691C234.876 259.456 235.213 258.988 235.213 258.318C235.213 257.582 235.584 255.975 234.506 255.406Z" fill="#1B1F9B"/>
<path d="M149.186 257.883C147.434 258.954 145.648 258.419 143.828 258.72C143.963 259.088 144.03 259.423 144.199 259.624C144.569 260.025 145.008 260.26 145.58 260.226C146.456 260.193 147.265 259.958 148.007 259.523C148.647 259.122 149.051 259.222 149.186 259.557C149.354 260.059 149.017 260.293 148.714 260.527C147.4 261.498 145.985 262.167 144.3 261.498C144.064 261.398 143.794 261.297 143.592 261.13C142.379 260.092 142.11 258.686 142.076 257.247C142.042 255.841 142.918 254.938 144.098 254.335C145.479 253.632 146.793 253.833 148.007 254.703C148.546 255.105 148.95 255.641 149.017 256.343C149.119 256.812 149.152 257.348 149.186 257.883ZM143.559 257.113C145.008 257.247 146.288 257.113 147.568 256.979C147.501 255.808 147.232 255.339 146.389 255.239C145.884 255.205 145.311 255.239 144.873 255.44C144.3 255.741 143.66 256.042 143.559 257.113Z" fill="#1B1F9B"/>
<path d="M160.71 262C160.036 261.933 159.868 261.598 159.43 261.364C159.328 261.364 159.227 261.431 159.059 261.498C158.284 261.732 157.509 261.866 156.7 261.732C155.487 261.531 154.712 260.829 154.544 259.724C154.409 258.82 154.948 257.85 155.992 257.381C156.498 257.147 157.138 257.08 157.711 257.046C158.351 257.013 159.025 257.113 159.733 257.147C159.766 256.243 159.362 255.574 159.093 254.904C158.216 254.469 157.644 254.871 157.037 255.339C156.532 255.741 156.397 255.674 155.79 254.971C155.992 254.268 156.565 253.934 157.172 253.632C158.823 252.862 160.205 253.398 160.777 255.138C161.047 255.942 161.114 256.812 161.148 257.649C161.215 258.988 161.148 260.025 161.114 261.632C161.114 261.866 160.912 262.033 160.71 262ZM159.632 258.72C158.958 258.553 158.318 258.385 157.711 258.285C157.408 258.251 157.071 258.318 156.767 258.385C156.296 258.519 155.992 259.122 156.094 259.657C156.161 260.126 156.532 260.293 156.936 260.293C157.509 260.293 158.115 260.326 158.688 260.226C159.295 260.126 159.665 259.691 159.632 258.72Z" fill="#1B1F9B"/>
<path d="M192.655 254.235C192.756 253.465 192.857 252.695 192.992 251.925C193.059 251.624 193.194 251.289 193.362 251.055C193.43 250.955 193.699 250.921 193.901 250.955C194.003 250.955 194.137 251.088 194.171 251.189C194.238 251.423 194.34 251.691 194.34 251.959C194.306 254.335 194.272 256.678 194.238 259.055C194.238 259.791 194.003 260.46 193.834 261.197C193.767 261.431 193.565 261.565 193.362 261.565C193.16 261.565 193.025 261.531 192.891 261.464C192.149 260.393 192.082 261.063 191.644 261.331C191.576 261.364 191.509 261.397 191.442 261.431C188.375 262.335 186.219 259.657 186.926 256.879C187.027 256.444 187.297 256.042 187.634 255.707C188.847 254.502 190.229 253.666 192.082 254.302C192.149 254.302 192.351 254.235 192.655 254.235ZM192.52 255.54C191.981 255.373 191.543 255.172 191.105 255.105C189.015 254.837 187.432 256.812 188.038 258.82C188.645 260.795 190.667 260.996 192.183 259.757C192.351 259.624 192.52 259.322 192.52 259.088C192.554 257.95 192.52 256.845 192.52 255.54Z" fill="#1B1F9B"/>
<path d="M124.823 261.364C124.082 261.197 123.138 261.096 122.262 260.829C121.116 260.46 120.611 259.624 120.678 258.419C120.847 255.741 121.892 254.536 124.52 254.034C124.992 253.934 125.396 254 125.834 254.268C127.081 255.138 127.856 256.343 128.26 257.749C128.361 258.151 128.227 258.653 128.092 259.088C127.788 260.26 126.171 261.398 124.823 261.364ZM124.284 259.657C124.554 259.59 124.891 259.59 125.194 259.49C126.676 259.021 127.013 257.515 125.901 256.41C125.8 256.31 125.699 256.243 125.598 256.176C124.621 255.339 123.846 255.373 123.071 256.31C122.599 256.879 122.33 257.548 122.397 258.318C122.464 258.988 122.801 259.423 123.442 259.59C123.711 259.624 123.981 259.624 124.284 259.657Z" fill="#1B1F9B"/>
<path d="M115.388 259.757C116.433 258.017 116.77 256.41 117.444 254.938C117.781 254.235 118.118 253.532 118.488 252.829C118.623 252.595 118.758 252.394 118.96 252.226C119.095 252.126 119.364 252.026 119.466 252.093C119.668 252.193 119.904 252.494 119.87 252.628C119.634 253.498 119.432 254.402 119.061 255.239C118.387 256.812 117.646 258.352 116.905 259.858C116.568 260.561 116.062 261.163 115.253 261.398C115.085 261.297 114.95 261.264 114.849 261.197C114.681 260.996 114.478 260.795 114.377 260.561C113.333 258.251 112.254 255.908 111.244 253.565C111.109 253.298 111.075 252.963 110.974 252.561C111.311 252.494 111.581 252.36 111.783 252.427C112.12 252.561 112.49 252.795 112.726 253.063C112.928 253.298 113.029 253.632 113.097 253.967C113.4 255.942 114.546 257.582 115.388 259.757Z" fill="#1B1F9B"/>
<path d="M202.932 261.665C202.73 261.531 202.73 261.13 202.561 260.996C201.786 261.063 200.843 261.531 200.102 261.464C198.922 261.364 198.08 260.661 197.878 259.523C197.642 257.917 197.372 256.277 197.642 254.636C197.743 254.034 197.81 254.034 198.821 253.833C198.855 254.067 198.922 254.302 198.922 254.569C198.956 255.875 198.956 257.18 199.023 258.486C199.023 258.82 199.124 259.122 199.259 259.423C199.596 260.393 200.708 260.661 201.483 259.992C201.955 259.59 202.191 259.055 202.325 258.486C202.595 257.247 202.73 256.042 202.561 254.77C202.494 254.302 202.528 253.867 202.966 253.532C203.303 253.264 203.842 253.365 203.943 253.766C203.977 253.9 204.01 254.034 204.01 254.168C203.943 256.511 203.909 258.887 203.842 261.23C203.808 261.699 203.269 261.933 202.932 261.665Z" fill="#1B1F9B"/>
<path d="M130.417 253.934C130.518 253.632 130.552 253.431 130.653 253.264C130.99 252.595 131.36 252.461 131.798 252.996C132.068 253.331 132.034 253.967 132.506 253.967C133.348 253.967 133.989 254.134 134.359 254.77C134.292 255.306 133.989 255.44 133.551 255.507C133.045 255.54 132.54 255.607 131.9 255.674C131.933 257.281 131.967 258.753 132.439 260.126C133.247 260.561 133.921 260.092 134.629 260.025C134.831 260.025 135.168 260.193 135.235 260.393C135.303 260.561 135.168 260.895 135 261.029C134.696 261.264 134.359 261.498 133.989 261.598C132.472 262.134 131.192 261.364 130.922 259.757C130.821 259.055 130.72 258.318 130.653 257.615C130.585 256.979 130.585 256.31 130.552 255.574C130.046 255.507 129.574 255.473 129.204 255.306C128.968 255.205 128.766 254.871 128.665 254.603C128.631 254.503 128.968 254.201 129.17 254.134C129.507 254.034 129.911 254.034 130.417 253.934Z" fill="#1B1F9B"/>
<path d="M137.797 254.57C138.841 254.503 139.717 254.402 140.627 254.402C140.762 254.402 140.998 254.737 141.065 254.938C141.099 255.038 140.897 255.339 140.762 255.373C140.391 255.507 139.987 255.507 139.616 255.574C138.74 255.775 138.235 256.344 138.1 257.214C137.999 257.85 138.066 258.519 138.032 259.189C137.999 259.824 137.931 260.494 137.763 261.13C137.729 261.297 137.392 261.531 137.19 261.498C136.988 261.465 136.752 261.23 136.651 261.029C136.55 260.795 136.55 260.527 136.55 260.26C136.583 258.218 136.718 256.21 136.28 254.201C136.246 254.034 136.482 253.699 136.651 253.599C136.819 253.532 137.19 253.599 137.325 253.766C137.594 254.001 137.729 254.402 137.797 254.57Z" fill="#1B1F9B"/>
<path d="M225.812 257.984C225.812 256.946 225.812 255.908 225.812 254.871C225.812 254.636 225.947 254.369 226.082 254.168C226.115 254.067 226.317 254.001 226.419 254.034C226.587 254.067 226.755 254.168 226.89 254.268C226.924 254.302 226.958 254.369 226.958 254.436C227.16 256.712 227.396 258.988 226.958 261.264C226.924 261.398 226.924 261.565 226.857 261.632C226.722 261.766 226.52 261.933 226.419 261.9C226.216 261.833 225.913 261.699 225.846 261.498C225.745 261.197 225.778 260.862 225.778 260.527C225.778 259.691 225.778 258.854 225.812 257.984Z" fill="#1B1F9B"/>
<path d="M240.201 253.934C240.537 254.067 240.773 254.101 240.942 254.268C241.077 254.369 241.144 254.636 241.11 254.804C240.908 256.846 241.077 258.854 241.11 260.896C241.11 261.029 241.11 261.197 241.043 261.264C240.942 261.398 240.74 261.632 240.605 261.598C240.369 261.565 240.167 261.398 239.965 261.264C239.931 261.23 239.897 261.13 239.897 261.063C239.931 258.753 239.661 256.41 240.201 253.934Z" fill="#1B1F9B"/>
<path d="M179.176 254.569C179.884 254.302 180.153 254.603 180.254 255.005C180.355 255.507 180.423 256.042 180.423 256.544C180.389 257.783 180.322 258.988 180.254 260.226C180.22 260.594 180.187 261.029 179.681 261.096C179.311 261.13 179.075 260.762 179.075 260.059C179.075 259.088 179.041 258.117 179.075 257.147C179.075 256.277 179.142 255.44 179.176 254.569Z" fill="#1B1F9B"/>
<path d="M180.928 251.892C180.861 252.327 180.187 252.829 179.783 252.729C179.412 252.628 179.041 252.093 179.109 251.691C179.142 251.256 179.648 250.821 180.018 250.854C180.423 250.888 180.962 251.49 180.928 251.892Z" fill="#1B1F9B"/>
<path d="M240.773 251.189C240.908 251.39 241.211 251.624 241.279 251.925C241.38 252.427 240.841 252.929 240.335 252.929C239.931 252.963 239.493 252.461 239.493 252.026C239.527 251.524 239.998 251.122 240.773 251.189Z" fill="#1B1F9B"/>
<path d="M226.149 250.586C226.553 250.52 227.025 250.888 227.092 251.356C227.16 251.892 226.823 252.394 226.317 252.494C225.879 252.595 225.408 252.227 225.408 251.758C225.374 251.155 225.711 250.62 226.149 250.586Z" fill="#1B1F9B"/>
<path d="M276.087 191.845C280.4 190.607 284.747 189.469 289.296 189.1C292.43 188.866 295.463 189.335 298.428 190.372C299.709 190.807 300.753 191.711 301.562 192.782C301.798 193.083 302 193.519 302 193.887C302 194.623 301.933 195.393 301.73 196.096C300.72 199.711 299.641 203.259 298.664 206.873C297.855 209.852 297.282 212.865 296.474 215.844C295.935 217.852 295.193 219.793 294.149 221.601C293.576 222.605 292.767 223.14 291.689 223.575C289.195 224.513 286.668 224.579 284.04 224.312C281.344 224.01 279.794 222.471 278.985 220.094C278.446 218.521 278.075 216.881 277.705 215.275C277.267 213.4 276.862 211.559 276.458 209.685C275.818 206.673 275.11 203.694 274.605 200.648C274.335 198.941 274.369 197.167 274.369 195.426C274.335 193.987 275.38 193.016 276.087 191.845Z" fill="#1B1F9B"/>
<path d="M285.388 242.821C282.894 242.62 280.636 241.75 278.952 239.876C277.84 238.637 277.368 237.165 277.705 235.491C278.042 233.684 278.615 231.943 279.592 230.37C280.03 229.667 280.603 229.031 281.243 228.529C282.355 227.659 283.568 226.889 284.781 226.153C285.253 225.885 285.893 225.617 286.398 225.684C287.982 225.885 289.566 226.086 291.049 226.621C294.62 227.893 296.946 232.713 295.227 236.294C293.576 239.775 291.082 242.085 287.106 242.553C286.567 242.62 285.994 242.721 285.388 242.821Z" fill="#1B1F9B"/>
<path d="M270.832 189V189.1L270.696 189.033L270.832 189Z" fill="#1B1F9B"/>
<path d="M80.8155 230.906C80.7144 232.01 80.6133 232.981 80.5122 233.918C80.4448 234.487 80.4111 235.123 80.2426 235.658C79.872 236.863 79.535 238.169 78.4904 238.939C77.3784 239.742 75.9968 239.809 74.6827 239.976C73.8066 240.077 72.8968 239.976 71.987 239.976C68.4151 239.976 64.8433 239.976 61.2714 240.01C60.5975 240.01 59.9573 240.177 59.2833 240.244C57.2278 240.378 55.2734 240.01 53.5212 238.872C52.6788 238.303 52.1733 237.566 52.0723 236.495C51.9038 234.587 51.5668 232.68 51.3309 230.772C51.2635 230.27 51.2972 229.734 51.2972 229.232C51.2972 228.563 51.3309 227.927 51.3309 227.257C51.3309 226.822 51.2635 226.387 51.2635 225.918C51.2635 223.107 51.2972 220.329 51.2635 217.517C51.2298 213.668 51.0277 209.819 51.0614 205.97C51.0951 203.526 51.2972 201.116 51.8027 198.707C52.207 196.832 53.656 195.728 54.7343 194.322C55.88 193.987 56.992 193.586 58.1713 193.385C60.3953 193.017 62.653 193.15 64.8433 193.519C66.427 193.786 67.9771 193.586 69.5271 193.519C70.9424 193.452 72.3239 193.15 73.7392 193.017C74.312 192.95 74.9186 193.05 75.5251 193.083C78.7937 193.284 82.0285 193.686 85.3308 193.753C88.2287 193.82 91.0929 194.322 93.9571 194.824C95.6757 195.125 97.0909 196.163 98.4051 197.267C99.2475 197.97 99.9551 198.84 100.798 199.61C102.314 201.016 103.224 202.79 103.965 204.664C104.302 205.501 104.538 206.338 104.909 207.141C106.56 210.555 106.324 214.003 105.414 217.517C104.605 220.697 102.651 223.241 100.427 225.55C99.2138 226.822 97.6638 227.692 95.7768 227.994C94.0245 228.261 92.3397 228.964 90.6549 229.567C89.7788 229.868 88.9026 230.169 88.0602 230.002C86.7798 229.801 85.533 230.035 84.3199 230.27C83.2416 230.504 82.1296 230.671 80.8155 230.906ZM80.3437 219.659C81.5231 219.358 82.4329 219.157 83.3427 218.89C84.2525 218.588 85.1286 218.254 85.971 217.818C87.5885 217.049 88.4309 215.71 88.5657 213.936C88.6331 212.999 88.7005 212.061 88.7342 211.091C88.8016 209.016 87.8918 207.576 85.9037 206.974C84.084 206.438 82.197 206.171 80.2426 206.94C79.4339 211.091 79.6361 215.174 80.3437 219.659Z" fill="#1B1F9B"/>
<path d="M191.576 237.667C190.767 237.667 190.296 238.202 189.79 238.604C187.196 240.579 184.365 241.917 181.164 242.587C180.254 242.788 179.378 242.855 178.502 242.654C176.379 242.185 174.189 241.917 172.234 241.114C168.764 239.708 166.034 237.499 164.686 233.75C163.709 231.006 163.642 228.228 163.574 225.45C163.507 223.241 163.642 221.032 163.675 218.822C163.675 218.454 163.743 218.086 163.844 217.751C164.686 214.505 166.405 211.727 168.966 209.551C170.819 207.978 173.043 206.806 175.402 206.037C176.008 205.836 176.716 205.869 177.39 205.836C179.176 205.769 180.962 205.635 182.748 205.668C185.511 205.735 187.937 206.873 190.397 207.978C190.666 208.112 190.936 208.212 191.34 208.38C191.475 207.978 191.677 207.677 191.711 207.342C191.913 205.735 192.082 204.095 192.216 202.489C192.385 200.347 192.486 198.204 192.587 196.062C192.621 195.393 192.52 194.723 192.486 194.087C192.486 193.318 192.857 192.816 193.598 192.615C193.969 192.514 194.339 192.481 194.71 192.481C196.563 192.414 198.45 192.38 200.304 192.314C200.978 192.28 201.651 192.38 202.325 192.247C204.415 191.845 206.504 192.046 208.559 192.012C209.065 192.012 209.604 192.079 210.109 192.18C212.165 192.648 213.445 193.954 213.546 196.029C213.681 198.673 213.647 201.351 213.513 204.028C213.378 206.773 213.344 209.484 213.479 212.229C213.614 214.873 213.917 217.517 213.782 220.195C213.647 223.006 213.749 225.818 213.614 228.596C213.513 230.872 213.243 233.181 213.075 235.458C213.007 236.194 213.007 236.93 212.906 237.667C212.805 238.47 212.704 239.273 212.468 240.043C212.064 241.315 211.525 241.75 210.21 241.75C208.559 241.75 206.942 241.616 205.291 241.516C203.134 241.382 200.978 241.281 198.821 241.616C197.473 241.817 196.125 241.683 194.845 241.348C193.328 240.947 192.082 240.21 191.846 238.47C191.745 238.202 191.644 237.901 191.576 237.667ZM191.576 223.441C191.475 221.4 191.104 219.894 190.262 218.789C190.026 218.521 189.588 218.187 189.285 218.22C188.51 218.287 187.735 218.454 186.926 218.555C185.949 218.655 185.073 219.291 184.601 220.195C182.95 223.207 183.287 226.286 184.601 229.299C184.837 229.868 185.309 230.236 185.949 230.203C188.308 230.136 190.06 229.466 190.835 226.989C191.172 225.851 191.34 224.646 191.576 223.441Z" fill="#1B1F9B"/>
<path d="M133.955 242.152C129.81 241.784 125.834 241.583 121.959 240.277C118.421 239.072 115.388 237.198 112.591 234.822C111.345 233.751 110.469 232.445 109.727 230.939C108.716 228.83 108.278 226.554 108.143 224.312C107.908 220.73 108.75 217.283 110.839 214.204C112.861 211.225 115.59 209.417 119.061 208.614C120.881 208.212 122.7 207.844 124.52 207.476C125.093 207.342 125.699 207.275 126.272 207.074C129.136 206.104 132.068 205.769 135.067 205.869C136.314 205.903 137.561 206.171 138.841 206.304C142.11 206.639 145.311 207.208 148.411 208.38C150.534 209.183 152.454 210.254 154.24 211.593C154.375 211.693 154.476 211.76 154.577 211.894C156.768 214.773 158.453 217.818 158.756 221.5C158.924 223.81 158.318 226.019 157.779 228.228C157.711 228.429 157.61 228.663 157.61 228.864C157.239 232.044 155.386 234.387 153.263 236.596C151.713 238.202 149.792 239.072 147.703 239.742C145.008 240.579 142.312 241.348 139.448 241.449C137.493 241.549 135.674 241.918 133.955 242.152ZM134.326 216.915C133.854 217.116 133.551 217.283 133.214 217.383C131.158 217.952 129.979 219.291 129.372 221.333C128.934 222.873 128.934 224.479 128.597 226.019C128.328 227.358 128.698 228.429 129.406 229.5C130.585 231.341 132.776 231.776 134.393 230.337C135.707 229.132 136.92 227.793 137.358 226.019C137.729 224.479 138.066 222.906 138.167 221.366C138.302 219.693 137.628 218.254 135.943 217.484C135.438 217.283 134.932 217.116 134.326 216.915Z" fill="#1B1F9B"/>
<path d="M242.087 237.901C241.953 237.934 241.144 240.277 240.74 240.445C238.954 241.248 236.999 241.415 235.112 241.784C231.743 242.453 228.44 241.984 225.239 240.913C224.532 240.679 223.757 240.646 223.116 240.277C220.892 239.072 219.106 237.432 218.938 234.688C218.837 233.282 218.668 231.91 218.534 230.504C218.399 229.031 219.14 227.759 219.747 226.521C221.162 223.642 223.487 221.601 226.317 220.128C226.587 219.994 226.89 219.927 227.16 219.86C230.226 219.157 233.36 218.889 236.494 219.291C237.505 219.425 238.482 219.86 239.493 220.128C239.965 220.262 240.47 220.295 241.009 220.362C241.38 219.124 241.346 218.053 241.144 216.948C240.942 215.844 240.504 215.375 239.425 215.241C237.774 215.007 236.157 215.241 234.607 215.877C232.349 216.814 230.058 217.718 227.8 218.655C226.25 219.291 224.936 219.023 223.757 217.785C222.712 216.714 222.038 215.542 222.173 214.036C222.173 213.902 222.173 213.735 222.173 213.601C222.173 211.024 222.476 210.656 224.97 209.819C225.61 209.618 226.25 209.384 226.857 209.116C231.945 207.007 237.269 206.171 242.795 206.438C244.716 206.539 246.67 206.572 248.591 206.74C253.78 207.275 258.194 209.317 261.396 213.501C262.676 215.174 263.249 217.182 263.687 219.224C264.192 221.467 264.395 223.743 264.294 226.052C264.125 230.102 264.058 234.186 263.889 238.236C263.856 238.738 263.754 239.273 263.62 239.742C263.35 240.512 262.811 240.98 261.969 241.047C260.722 241.148 259.509 241.348 258.228 241.047C256.847 240.712 255.431 240.679 254.016 240.478C252.23 240.21 251.523 240.143 249.804 240.612C248.49 240.947 246.064 241.315 244.75 241.047C243.84 240.846 243.267 238.236 242.087 237.901ZM237.437 232.479C238.752 233.416 240.032 233.349 241.312 233.014C241.717 232.914 242.155 232.713 242.424 232.412C243.503 231.274 244.278 229.901 244.581 228.362C244.716 227.659 244.547 226.789 244.244 226.119C244.042 225.651 243.402 225.316 242.997 224.948C241.279 225.684 239.291 225.483 238.145 227.291C237.1 228.897 236.763 230.537 237.437 232.479Z" fill="#1B1F9B"/>
<path d="M32.9999 250.084C33.1347 250.252 33.2358 250.319 33.3031 250.386C33.3368 250.453 33.3031 250.519 33.3031 250.62C33.2021 250.586 33.0673 250.586 33.0336 250.519C32.9662 250.419 32.9999 250.285 32.9999 250.084Z" fill="#1B1F9B"/>
</g>
<defs>
<clipPath id="clip0">
<rect width="360" height="497" fill="white" transform="translate(0 -163)"/>
</clipPath>
<clipPath id="clip1">
<rect width="269" height="73" fill="white" transform="translate(33 189)"/>
</clipPath>
</defs>
</svg>
