<svg width="346" height="174" viewBox="0 0 346 174" fill="none" xmlns="http://www.w3.org/2000/svg">
<path d="M246.792 164.347C283.699 164.937 285.028 150.027 307.467 140.432C315.144 137.184 313.963 131.87 314.701 130.246C318.539 121.831 315.587 116.665 313.373 109.874C310.272 100.131 306.139 91.864 299.348 84.1877C292.557 76.3636 283.552 72.5255 273.365 71.6397C270.708 47.7249 262.293 26.1719 240.444 14.5098C218.595 2.84757 195.418 4.3238 177.702 20.8575C169.287 8.9001 157.33 4.02855 142.714 1.0761C128.099 -1.72873 112.746 1.0761 99.0165 8.01436C88.092 13.4764 78.7914 21.448 72.8863 32.3721C66.8335 43.2962 66.5383 54.8107 70.9671 66.3253C58.2711 71.3445 48.0848 79.0209 40.2605 90.3878C33.1743 100.574 29.1883 112.384 31.5504 124.636C33.4696 134.084 39.9652 141.76 45.2798 148.404C50.0039 154.456 55.4662 160.509 61.3713 163.166C75.9865 169.514 86.3204 167.004 101.821 162.723C144.338 162.28 209.885 163.756 246.792 164.347Z" fill="#F9DB4E"/>
<path d="M84.4014 50.6773C84.6967 50.3821 84.8443 50.2345 85.1396 50.0868C94.883 46.8391 103.888 51.2678 113.337 52.3012C127.952 53.925 141.829 50.0868 156.296 49.4963C181.688 48.463 206.638 53.6298 232.177 53.1869C241.183 53.0393 250.188 51.8583 259.046 53.7774C259.784 53.925 260.374 54.5155 260.374 55.4013C260.522 66.9158 261.112 78.8733 261.555 90.3878C261.555 91.1259 261.703 91.5688 261.26 92.1593C260.817 92.7498 259.931 92.8974 259.193 93.045C222.729 95.8499 186.265 96.2927 149.801 95.8499C141.238 95.7022 132.971 95.5546 124.556 94.226C111.122 92.1593 98.2785 88.1735 84.6967 90.6831C83.5157 90.8307 82.6299 90.0926 82.6299 89.0592C82.4823 76.9542 82.7775 64.9967 83.368 52.8917C83.368 52.5964 83.5157 52.3012 83.6633 51.8583C83.8109 51.4154 84.1062 50.9726 84.4014 50.6773Z" fill="#3F3969"/>
<path d="M81.0058 59.387C54.728 52.5964 29.0407 57.3203 12.8016 81.0876C-3.43747 104.707 1.58189 132.017 16.1971 155.194C7.48701 160.951 1.87714 169.514 0.548482 179.7C-0.780171 190.033 0.400861 199.776 3.05817 209.519C8.81567 231.515 15.7542 252.625 36.2745 264.583C52.9565 274.326 72.591 270.783 91.1922 271.078C109.35 299.274 136.366 318.76 171.059 315.365C205.752 311.969 227.01 289.974 247.235 264.287C258.603 271.668 271.594 272.111 284.88 271.373C296.986 270.635 308.796 270.045 318.54 262.663C324.445 258.235 327.693 251.887 330.793 245.539C339.798 227.824 348.508 210.257 344.522 190.033C341.274 173.647 329.021 163.018 318.54 151.061C332.121 145.746 339.65 133.346 339.208 118.879C338.765 104.412 332.121 92.3069 324.297 80.6447C313.963 65.2919 300.972 52.744 281.78 53.3345C271.446 53.6298 263.031 59.9775 253.288 62.1919C245.464 63.9633 237.639 64.7015 229.815 64.8491C195.861 65.8824 162.497 67.211 128.69 63.5205C114.517 61.8966 100.788 58.6489 86.3204 58.9442C85.1394 58.9442 82.0392 58.0584 81.0058 59.387Z" fill="#F9DB4E"/>
<path d="M153.188 138.025C154.493 137.658 158.937 138.229 161.466 139.208C162.2 139.493 162.934 139.819 163.708 139.982C165.666 140.431 167.664 139.86 169.54 139.208C171.416 138.514 173.291 137.699 175.289 137.577C176.594 137.495 177.899 137.74 179.163 138.107C180.142 138.392 181.121 138.759 181.773 139.493C182.426 140.227 182.752 141.206 182.874 142.184C183.119 143.815 182.997 145.487 182.589 147.037C182.385 147.73 182.14 148.464 181.692 149.035C181.039 149.85 180.101 150.38 179.163 150.87C177.736 151.604 176.35 152.378 174.8 152.786C173.291 153.194 171.742 153.276 170.192 153.52C168.806 153.765 167.419 154.132 166.033 154.05C164.769 153.969 163.545 153.561 162.322 153.276C159.794 152.664 157.184 152.501 154.696 151.767C152.209 151.033 149.762 149.565 148.743 147.159C147.642 144.549 148.58 141.45 150.456 139.371C151.353 138.596 151.108 138.637 153.188 138.025Z" fill="#3F3969"/>
<path d="M161.832 141.858C159.671 140.512 156.858 140.268 154.411 141.002C153.554 141.246 152.739 141.695 152.209 142.388C151.597 143.204 151.516 144.264 151.76 145.243C152.005 146.221 152.617 147.037 153.31 147.73C155.675 150.054 159.182 150.707 162.485 151.033C163.994 151.196 165.543 151.318 167.052 151.196C168.398 151.114 169.703 150.87 171.008 150.584C172.353 150.34 173.699 150.054 174.882 149.402C175.616 149.035 176.268 148.545 177.002 148.219C178.185 147.689 179.653 147.526 180.346 146.466C180.835 145.732 180.794 144.753 180.631 143.856C180.509 143.163 180.264 142.47 179.816 141.94C178.919 140.961 177.369 140.716 176.064 140.961C163.097 143.408 161.832 141.858 161.832 141.858Z" fill="white"/>
<path d="M231.291 110.612C234.539 111.498 237.639 112.974 240.887 114.007C244.873 115.336 249.449 116.222 253.435 114.598C255.207 113.86 256.831 112.679 258.307 111.498C259.783 110.317 261.26 108.988 262.145 107.364C263.769 104.412 263.622 100.721 263.179 97.326C262.884 94.3736 262.293 91.2735 260.669 88.7639C259.488 86.9925 257.717 85.6638 255.945 84.4829C251.073 81.2352 245.611 78.8732 240.001 77.397C237.787 76.8065 235.572 76.3636 233.21 76.0684C225.091 74.8874 216.824 75.1826 208.852 76.3636C203.537 77.1017 198.075 78.1351 193.351 80.7923C190.103 82.5638 187.298 84.9257 184.641 87.2877C181.983 89.7973 179.326 92.6021 178.588 96.1451C177.997 98.6546 178.588 101.312 179.178 103.821C179.769 106.036 180.359 108.398 181.688 110.317C183.312 112.826 186.117 114.45 188.922 115.336C191.727 116.222 194.827 116.517 197.78 116.812C201.027 117.107 204.423 117.107 207.08 115.188L208.114 114.45C214.462 110.907 221.695 108.693 228.929 109.874C229.52 110.317 230.405 110.464 231.291 110.612Z" fill="white"/>
<path d="M231.291 110.612C234.539 111.498 237.639 112.974 240.887 114.007C244.873 115.336 249.449 116.222 253.435 114.598C255.207 113.86 256.831 112.679 258.307 111.498C259.783 110.317 261.26 108.988 262.145 107.364C263.769 104.412 263.622 100.721 263.179 97.326C262.884 94.3736 262.293 91.2735 260.669 88.7639C259.488 86.9925 257.717 85.6638 255.945 84.4829C251.073 81.2352 245.611 78.8732 240.001 77.397C237.787 76.8065 235.572 76.3636 233.21 76.0684C225.091 74.8874 216.824 75.1826 208.852 76.3636C203.537 77.1017 198.075 78.1351 193.351 80.7923C190.103 82.5638 187.298 84.9257 184.641 87.2877C181.983 89.7973 179.326 92.6021 178.588 96.1451C177.997 98.6546 178.588 101.312 179.178 103.821C179.769 106.036 180.359 108.398 181.688 110.317C183.312 112.826 186.117 114.45 188.922 115.336C191.727 116.222 194.827 116.517 197.78 116.812C201.027 117.107 204.423 117.107 207.08 115.188L208.114 114.45C214.462 110.907 221.695 108.693 228.929 109.874C229.52 110.317 230.405 110.464 231.291 110.612Z" fill="white"/>
<path d="M229.185 103.238C233.023 98.6613 231.842 93.1993 231.695 88.4753C231.4 81.8323 220.623 77.4036 214.127 75.3369C211.47 74.4512 200.988 75.3369 197.593 77.6989C194.05 80.0608 191.983 86.5562 191.54 87.5896C187.849 95.4136 193.754 105.747 197.593 110.914C200.84 115.343 207.484 117.262 213.684 115.933C219.737 114.752 225.937 108.995 229.185 103.238Z" fill="#3F3969"/>
<path d="M126.918 112.384C130.166 113.269 133.266 114.746 136.514 115.779C140.5 117.108 145.076 117.993 149.062 116.369C150.834 115.631 152.458 114.45 153.934 113.269C155.41 112.088 156.887 110.76 157.772 109.136C159.396 106.183 159.249 102.493 158.806 99.0976C158.511 96.1451 157.92 93.045 156.296 90.5354C155.115 88.764 153.344 87.4354 151.572 86.2544C146.7 83.0067 141.238 80.6447 135.628 79.1685C133.414 78.578 131.199 78.1351 128.837 77.8399C120.718 76.6589 112.451 76.9542 104.479 78.1351C99.164 78.8732 93.7017 79.9066 88.9776 82.5638C85.7298 84.3353 82.9249 86.6972 80.2676 89.0592C77.6103 91.5688 74.953 94.3736 74.2148 97.9166C73.6243 100.426 74.2148 103.083 74.8053 105.593C75.3958 107.807 75.9863 110.169 77.315 112.088C78.9389 114.598 81.7439 116.222 84.5488 117.108C87.3537 117.993 90.4539 118.289 93.4065 118.584C96.6543 118.879 100.05 118.879 102.707 116.96L103.74 116.222C110.088 112.679 117.322 110.465 124.556 111.645C125.147 111.941 126.032 112.236 126.918 112.384Z" fill="white"/>
<path d="M124.812 105.009C128.65 100.433 127.469 94.9707 127.322 90.2468C127.026 83.6038 116.25 79.1751 109.754 77.1084C107.097 76.2227 96.615 77.1084 93.2196 79.4704C89.6765 81.8323 87.6097 88.3277 87.1669 89.3611C83.4761 97.1851 89.3813 107.519 93.2196 112.685C96.4674 117.114 103.111 119.033 109.311 117.705C115.364 116.524 121.564 110.766 124.812 105.009Z" fill="#3F3969"/>
</svg>
