<svg width="16" height="31" viewBox="0 0 16 31" fill="none" xmlns="http://www.w3.org/2000/svg">
<path d="M3.03299 6.65816C5.59577 5.15802 8.23284 4.07042 11.0927 3.32035C13.1727 2.7578 12.2813 -0.467493 10.2014 0.0575548C7.08146 0.882631 4.11011 2.12024 1.32448 3.7704C-0.53261 4.82049 1.13876 7.74576 3.03299 6.65816Z" fill="#F9DB4E"/>
<path d="M4.03585 16.5591C7.49004 16.4841 10.9442 16.2215 14.3984 15.8465C16.5155 15.6215 16.5526 12.2462 14.3984 12.4712C10.9442 12.8462 7.49004 13.0713 4.03585 13.1838C1.91877 13.2213 1.88163 16.5966 4.03585 16.5591Z" fill="#F9DB4E"/>
<path d="M1.2129 27.0975C3.4414 27.5476 5.52134 28.8602 7.52699 29.9103C9.45836 30.8854 11.1297 27.9601 9.19836 26.985C6.93272 25.8224 4.59279 24.3598 2.06716 23.8347C-0.012779 23.4222 -0.904175 26.685 1.2129 27.0975Z" fill="#F9DB4E"/>
</svg>
