<svg width="375" height="272" viewBox="0 0 375 272" fill="none" xmlns="http://www.w3.org/2000/svg">
<path d="M4.94742 58.3317C40.6034 45.3879 85.0916 44.0772 119.276 62.5917C136.122 71.6032 145.609 87.4962 150.843 105.355C155.422 121.248 159.184 141.893 150.843 157.13C146.59 164.995 137.921 171.876 129.089 166.306C122.056 161.882 116.168 150.413 114.369 142.712C111.915 132.062 119.439 124.525 129.089 121.576C138.576 118.791 148.389 121.412 157.385 124.525C175.213 130.424 191.405 135.175 210.378 133.373C228.043 131.571 244.889 125.836 260.591 117.971C277.928 109.124 293.794 97.8184 309.332 86.3492C321.435 77.5016 334.357 67.8347 339.59 53.0887C348.423 28.0203 328.632 -0.324876 301.972 0.00281477C270.405 0.49435 250.941 31.1334 250.778 59.9702C250.45 94.5415 269.096 129.277 291.504 154.673C304.425 169.419 320.618 180.233 334.684 193.832C342.044 200.877 347.932 208.905 352.512 217.917C356.928 226.601 360.363 235.776 365.76 243.805C387.677 276.574 430.366 276.246 462.914 261.5C467.658 259.37 463.569 252.324 458.825 254.454C440.67 262.647 419.735 266.579 400.435 260.189C381.952 253.963 372.139 240.364 364.124 223.488C356.601 207.431 348.096 194.651 334.847 182.854C322.09 171.713 308.678 161.718 297.392 148.938C273.676 122.068 251.268 79.9593 261.245 43.0941C265.825 26.3819 279.237 11.9635 296.574 8.68661C313.094 5.57355 328.141 16.0596 332.394 32.1165C337.628 51.7779 322.744 65.8686 308.351 76.6824C293.467 87.9877 278.092 98.9653 261.572 107.977C243.581 117.808 223.79 125.017 203.182 125.508C194.022 125.836 184.863 124.689 176.031 122.067C166.708 119.446 157.876 115.186 148.389 113.22C135.141 110.434 119.93 112.564 110.77 123.542C101.448 134.847 106.518 148.774 113.224 159.916C119.439 170.402 130.398 180.233 143.319 174.826C155.749 169.746 161.638 155.82 163.11 143.367C167.035 109.451 151.824 68.654 119.93 53.4164C83.9467 36.2126 39.7856 36.7041 2.65758 50.1395C-2.08564 52.1056 0.0406327 60.134 4.94742 58.3317Z" fill="#1B1F9B"/>
</svg>
