<svg width="73" height="70" viewBox="0 0 73 70" fill="none" xmlns="http://www.w3.org/2000/svg">
<path d="M2.79488 13.0073C2.72926 11.9935 2.58289 10.8225 2.4379 9.57357C2.30254 7.77959 2.08368 5.98413 2.1153 4.1931C2.15243 2.09059 3.42411 1.02251 5.67437 1.29593C7.92462 1.56935 10.0216 1.06112 12.198 0.787967C14.2074 0.511869 16.2127 0.469384 18.2097 0.894124C18.5423 0.977892 18.8749 1.06166 19.2089 1.06756C23.1346 1.05898 27.0492 1.67338 30.9845 1.11971C31.6552 0.975758 32.4053 1.0669 33.0747 1.00082C35.9997 0.896685 39.0083 0.794021 42.0142 0.847099C46.189 0.920819 50.3706 0.605184 54.544 0.756774C55.045 0.76562 55.6281 0.853812 56.129 0.862658C58.382 0.980338 60.6323 1.25376 62.9004 0.514859C65.0851 -0.225516 67.1615 0.434311 69.2337 1.32775C70.2274 1.81267 70.8844 2.44743 71.1156 3.54205C71.496 5.65193 72.0447 7.6869 72.258 9.79384C72.4003 11.1985 72.3742 12.678 72.2645 14.1561C72.1219 17.5031 71.9793 20.85 71.7532 24.1955C71.6257 26.6859 71.3298 29.2512 71.1188 31.7402C71.0023 33.6076 70.8858 35.475 70.8528 37.3439C70.7566 42.7949 70.6603 48.2458 70.6475 53.6983C70.5843 57.2803 70.688 60.8654 70.7918 64.4504C70.789 64.6061 70.7863 64.7619 70.7835 64.9176C70.8134 67.956 69.3788 68.7876 66.5427 68.5817C63.374 68.292 60.2833 68.3154 57.105 68.5708C57.0215 68.5693 56.938 68.5679 56.8545 68.5664C51.6874 67.9299 46.5804 68.6187 41.4065 68.3715C38.4034 68.1627 35.3085 68.4196 32.2123 68.7544C29.1175 69.0114 26.1158 68.7247 23.0223 68.9037C21.017 68.9462 19.0104 69.0666 17.0038 69.1869C14.4948 69.3763 11.905 69.4085 9.4098 68.8191C6.16722 67.9829 3.60911 66.224 1.73409 63.6204C0.91976 62.4376 0.861016 61.0344 0.551785 59.6269C-0.306163 56.1843 0.504425 52.8491 0.89891 49.4287C0.992031 48.8851 1.16727 48.4208 1.1769 47.8757C1.43052 42.9728 1.76901 37.9935 2.024 33.0127C2.03363 32.4676 2.12813 31.8461 2.13775 31.301C2.44737 27.957 2.50649 24.6086 2.31514 21.2557C2.1784 19.5396 2.37564 17.8294 2.48939 16.1177C2.58938 15.1847 2.68938 14.2517 2.79488 13.0073Z" fill="white"/>
</svg>
