<svg width="70" height="101" viewBox="0 0 70 101" fill="none" xmlns="http://www.w3.org/2000/svg">
<g clip-path="url(#clip0)">
<path d="M0.465632 2.95687C5.74279 34.8598 10.2439 66.7627 13.6585 98.9769C13.8137 100.066 14.745 100.844 15.6763 100.689C19.4013 100.533 23.1264 100.533 26.8514 100.689L51.3747 101C52.306 101 53.2373 100.378 53.3925 99.4438L70 4.82436C70.3104 3.42374 70 1.71188 68.9135 0.778132C68.6031 0.466884 68.1375 0.466884 67.6718 0.466884C54.9446 0.155636 42.3725 -0.155612 29.8004 1.2029e-05C25.9202 1.2029e-05 21.8847 0.155636 18.0044 0.778132C13.5033 1.40063 8.84701 2.64562 4.3459 1.8675C2.79379 1.55625 1.24169 1.08938 0 1.8675" fill="#9FC6F9"/>
<path d="M7.76074 26.7673C12.7275 27.0786 18.9359 30.191 23.7474 27.3898C31.6632 22.8767 36.1643 24.7442 41.2862 27.5454C46.5634 30.5023 52.3062 29.8798 56.9625 27.2342C59.2907 25.9892 61.9293 28.4792 61.6188 30.3467C58.9803 46.8428 56.9625 62.094 53.5479 79.2126C52.927 82.0138 52.927 84.9707 52.7718 87.7719C52.4614 90.5732 52.151 93.53 51.8406 96.3313C51.8406 96.4869 51.8406 96.7981 51.6854 96.9537C51.5301 97.265 51.0645 97.265 50.7541 97.265C40.1998 96.4869 29.6454 96.4869 19.2463 97.265C18.1599 97.265 17.2286 96.1756 17.0734 94.775C16.6077 83.7257 10.0889 42.1741 7.76074 26.7673Z" fill="#4B92F5"/>
<path d="M19.5564 53.6903C20.585 53.6903 21.4189 52.8542 21.4189 51.8228C21.4189 50.7914 20.585 49.9553 19.5564 49.9553C18.5277 49.9553 17.6938 50.7914 17.6938 51.8228C17.6938 52.8542 18.5277 53.6903 19.5564 53.6903Z" fill="#C3E5F2"/>
<path d="M25.7649 90.262C26.7935 90.262 27.6274 89.4259 27.6274 88.3945C27.6274 87.3631 26.7935 86.527 25.7649 86.527C24.7362 86.527 23.9023 87.3631 23.9023 88.3945C23.9023 89.4259 24.7362 90.262 25.7649 90.262Z" fill="#C3E5F2"/>
<path d="M27.0068 38.5947C27.7782 38.5947 28.4037 37.9677 28.4037 37.1941C28.4037 36.4206 27.7782 35.7935 27.0068 35.7935C26.2353 35.7935 25.6099 36.4206 25.6099 37.1941C25.6099 37.9677 26.2353 38.5947 27.0068 38.5947Z" fill="#C3E5F2"/>
<path d="M43.6143 49.3328C44.9001 49.3328 45.9424 48.2877 45.9424 46.9985C45.9424 45.7093 44.9001 44.6641 43.6143 44.6641C42.3285 44.6641 41.2861 45.7093 41.2861 46.9985C41.2861 48.2877 42.3285 49.3328 43.6143 49.3328Z" fill="#C3E5F2"/>
<path d="M48.7361 64.1171C49.6791 64.1171 50.4434 63.3507 50.4434 62.4052C50.4434 61.4598 49.6791 60.6934 48.7361 60.6934C47.7932 60.6934 47.0288 61.4598 47.0288 62.4052C47.0288 63.3507 47.7932 64.1171 48.7361 64.1171Z" fill="#C3E5F2"/>
<path d="M28.2485 63.8059C28.9343 63.8059 29.4902 63.2485 29.4902 62.5609C29.4902 61.8733 28.9343 61.3159 28.2485 61.3159C27.5628 61.3159 27.0068 61.8733 27.0068 62.5609C27.0068 63.2485 27.5628 63.8059 28.2485 63.8059Z" fill="#C3E5F2"/>
<path d="M37.2506 77.0339C38.365 77.0339 39.2684 76.1281 39.2684 75.0108C39.2684 73.8934 38.365 72.9877 37.2506 72.9877C36.1363 72.9877 35.2329 73.8934 35.2329 75.0108C35.2329 76.1281 36.1363 77.0339 37.2506 77.0339Z" fill="#C3E5F2"/>
</g>
<defs>
<clipPath id="clip0">
<rect width="70" height="101" fill="white"/>
</clipPath>
</defs>
</svg>
