<svg width="375" height="405" viewBox="0 0 375 405" fill="none" xmlns="http://www.w3.org/2000/svg">
<path d="M-13.5484 155.885C-2.70968 133.317 22.3226 116.165 47.0968 112.683C71.871 109.201 97.1613 112.812 122.194 113.198C155.484 113.714 189.935 108.169 217.419 89.5981C225.161 84.4396 232.258 78.2494 240.516 73.9936C264.516 61.871 296.516 66.9006 315.871 48.3299C323.097 41.3659 327.484 31.9515 334.839 25.2454C347.613 13.6387 367.097 11.9622 379.613 0.226562C380.129 23.5689 380.774 46.7823 381.29 70.1247C382.323 112.167 383.355 154.209 383.613 196.251C383.871 227.847 383.613 259.572 383.484 291.168C383.226 332.565 382.968 373.962 382.71 415.359C353.935 410.459 324.645 417.81 295.613 419.744C266.194 421.679 236.645 418.068 207.226 417.423C133.935 415.617 60 431.351 -12.3871 420.002C-14.1936 419.744 -16.2581 419.357 -17.5484 418.068C-19.4839 416.262 -19.6129 413.425 -19.6129 410.846C-21.1613 323.796 -16.9032 242.678 -13.5484 155.885Z" fill="#F4B0BE"/>
</svg>
